<mxfile host="app.diagrams.net" modified="2022-06-21T16:45:52.951Z" agent="5.0 (Windows NT 10.0; Win64; x64) AppleWebKit/537.36 (KHTML, like Gecko) Chrome/102.0.5005.124 Safari/537.36 Edg/102.0.1245.44" etag="ZhneWXvQ284P6Lj2piaR" version="20.0.1" type="github">
  <diagram id="8xlJwNh78yaurrVQ0NUL" name="Page-1">
    <mxGraphModel dx="1422" dy="520" grid="0" gridSize="10" guides="1" tooltips="1" connect="1" arrows="1" fold="1" page="0" pageScale="1" pageWidth="850" pageHeight="1100" background="none" math="0" shadow="0">
      <root>
        <mxCell id="0" />
        <mxCell id="1" parent="0" />
        <mxCell id="_9aK7tR2FCW0y13HPatD-86" value="" style="rounded=0;whiteSpace=wrap;html=1;fillColor=none;" vertex="1" parent="1">
          <mxGeometry x="1070" y="143" width="904" height="206" as="geometry" />
        </mxCell>
        <mxCell id="_9aK7tR2FCW0y13HPatD-107" value="" style="rounded=0;whiteSpace=wrap;html=1;fillColor=none;" vertex="1" parent="1">
          <mxGeometry x="1099" y="56" width="120" height="60" as="geometry" />
        </mxCell>
        <mxCell id="_9aK7tR2FCW0y13HPatD-17" value="" style="rounded=0;whiteSpace=wrap;html=1;fillColor=none;" vertex="1" parent="1">
          <mxGeometry x="1525.5300000000002" y="152" width="397" height="158" as="geometry" />
        </mxCell>
        <mxCell id="_9aK7tR2FCW0y13HPatD-81" value="" style="rounded=0;whiteSpace=wrap;html=1;fillColor=none;" vertex="1" parent="1">
          <mxGeometry x="1114.0000000000002" y="152" width="397" height="158" as="geometry" />
        </mxCell>
        <mxCell id="jaeh_tD_YkiiCiGiNcg3-2" value="" style="shape=image;verticalLabelPosition=bottom;labelBackgroundColor=#ffffff;verticalAlign=top;aspect=fixed;imageAspect=0;image=data:image/svg+xml,PHN2ZyB4bWxuczpkYz0iaHR0cDovL3B1cmwub3JnL2RjL2VsZW1lbnRzLzEuMS8iIHhtbG5zOmNjPSJodHRwOi8vY3JlYXRpdmVjb21tb25zLm9yZy9ucyMiIHhtbG5zOnJkZj0iaHR0cDovL3d3dy53My5vcmcvMTk5OS8wMi8yMi1yZGYtc3ludGF4LW5zIyIgeG1sbnM6c3ZnPSJodHRwOi8vd3d3LnczLm9yZy8yMDAwL3N2ZyIgeG1sbnM9Imh0dHA6Ly93d3cudzMub3JnLzIwMDAvc3ZnIiB4bWxuczpzb2RpcG9kaT0iaHR0cDovL3NvZGlwb2RpLnNvdXJjZWZvcmdlLm5ldC9EVEQvc29kaXBvZGktMC5kdGQiIHhtbG5zOmlua3NjYXBlPSJodHRwOi8vd3d3Lmlua3NjYXBlLm9yZy9uYW1lc3BhY2VzL2lua3NjYXBlIiB2ZXJzaW9uPSIxLjEiIGlkPSJzdmc2MTAxMSIgaW5rc2NhcGU6dmVyc2lvbj0iMC45Mi4zICgyNDA1NTQ2LCAyMDE4LTAzLTExKSIgc29kaXBvZGk6ZG9jbmFtZT0iYXp1cmVfcG9ydGFsX3ZpcnR1YWxfbWFjaGluZXMuc3ZnIiB4PSIwcHgiIHk9IjBweCIgdmlld0JveD0iMCAwIDU3LjY0IDUzLjIwMDAwMiIgeG1sOnNwYWNlPSJwcmVzZXJ2ZSIgd2lkdGg9IjU3LjYzOTk5OSIgaGVpZ2h0PSI1My4yMDAwMDEiPjxtZXRhZGF0YSBpZD0ibWV0YWRhdGExMDk5MCI+PHJkZjpSREY+PGNjOldvcmsgcmRmOmFib3V0PSIiPjxkYzpmb3JtYXQ+aW1hZ2Uvc3ZnK3htbDwvZGM6Zm9ybWF0PjxkYzp0eXBlIHJkZjpyZXNvdXJjZT0iaHR0cDovL3B1cmwub3JnL2RjL2RjbWl0eXBlL1N0aWxsSW1hZ2UiLz48ZGM6dGl0bGUvPjwvY2M6V29yaz48L3JkZjpSREY+PC9tZXRhZGF0YT48ZGVmcyBpZD0iZGVmczEwOTg4Ii8+JiN4YTs8ZmlsdGVyIGlkPSJmaWx0ZXJfMiI+JiN4YTsJPGZlR2F1c3NpYW5CbHVyIGlkPSJmZUdhdXNzaWFuQmx1cjYwOTIwIiBzdGREZXZpYXRpb249IjIiLz4mI3hhOzwvZmlsdGVyPiYjeGE7PHNvZGlwb2RpOm5hbWVkdmlldyBib3JkZXJjb2xvcj0iIzY2NjY2NiIgYm9yZGVyb3BhY2l0eT0iMSIgZml0LW1hcmdpbi1ib3R0b209IjAiIGZpdC1tYXJnaW4tbGVmdD0iMCIgZml0LW1hcmdpbi1yaWdodD0iMCIgZml0LW1hcmdpbi10b3A9IjAiIGdyaWR0b2xlcmFuY2U9IjEwIiBndWlkZXRvbGVyYW5jZT0iMTAiIGlkPSJuYW1lZHZpZXc2MTAxMyIgaW5rc2NhcGU6Y3VycmVudC1sYXllcj0ic3ZnNjEwMTEiIGlua3NjYXBlOmN4PSItMzMuMTQzMzAzIiBpbmtzY2FwZTpjeT0iMjQuNjk2NTQ0IiBpbmtzY2FwZTpwYWdlb3BhY2l0eT0iMCIgaW5rc2NhcGU6cGFnZXNoYWRvdz0iMiIgaW5rc2NhcGU6d2luZG93LWhlaWdodD0iMTAxNyIgaW5rc2NhcGU6d2luZG93LW1heGltaXplZD0iMSIgaW5rc2NhcGU6d2luZG93LXdpZHRoPSIxOTIwIiBpbmtzY2FwZTp3aW5kb3cteD0iLTgiIGlua3NjYXBlOndpbmRvdy15PSItOCIgaW5rc2NhcGU6em9vbT0iNS45MTg3NzA5IiBvYmplY3R0b2xlcmFuY2U9IjEwIiBwYWdlY29sb3I9IiNmZmZmZmYiIHNob3dncmlkPSJmYWxzZSI+JiN4YTsJPC9zb2RpcG9kaTpuYW1lZHZpZXc+JiN4YTsmI3hhOzxwYXRoIGlkPSJwYXRoNjA5MzMiIGlua3NjYXBlOmNvbm5lY3Rvci1jdXJ2YXR1cmU9IjAiIHN0eWxlPSJmaWxsOiM3YTdhN2EiIGQ9Ik0gMzcuMzksNDIuMTIgSCAzNi4wMSAyMi40MiAyMS43MSBjIDEuODgsNi42NSAtMC42NSw3LjYgLTExLjczLDcuNiB2IDMuNDggaCAxNC4xIDEwLjI5IDEzLjMgdiAtMy40OCBjIC0xMS4wOCwwIC0xMi4xNywtMC45NSAtMTAuMjgsLTcuNiB6Ii8+JiN4YTsmI3hhOzxwYXRoIGlkPSJwYXRoNjA5NDEiIGlua3NjYXBlOmNvbm5lY3Rvci1jdXJ2YXR1cmU9IjAiIHN0eWxlPSJmaWxsOiNhMGExYTIiIGQ9Ik0gNTQuMTYsMCBIIDMuMTMgQyAxLjQsMCAwLDEuNTUgMCwzLjI4IHYgMzUuNTkgYyAwLDEuNzIgMS40LDMuMjUgMy4xMywzLjI1IGggNTEuMDMgYyAxLjczLDAgMy40OCwtMS41MyAzLjQ4LC0zLjI1IFYgMy4yOCBDIDU3LjY0LDEuNTUgNTUuODksMCA1NC4xNiwwIFoiLz4mI3hhOyYjeGE7PHBhdGggaWQ9InBhdGg2MDk0OSIgaW5rc2NhcGU6Y29ubmVjdG9yLWN1cnZhdHVyZT0iMCIgc3R5bGU9ImZpbGw6I2ZmZmZmZjtmaWxsLW9wYWNpdHk6MC4yIiBkPSJNIDU0LjIsMCBDIDU0LjE5LDAgNTQuMTcsMCA1NC4xNiwwIEggMy4xMyBDIDEuNCwwIDAsMS41NSAwLDMuMjggdiAzNS41OSBjIDAsMS43MiAxLjQsMy4yNSAzLjEzLDMuMjUgaCAxLjIyIHoiLz4mI3hhOyYjeGE7PHJlY3QgaWQ9InJlY3Q2MDk1NyIgeD0iNC4zNjk5OTUxIiB5PSI0LjQ0MDAwMDEiIHN0eWxlPSJmaWxsOiM1OWI0ZDkiIHdpZHRoPSI0OC43Nzk5OTkiIGhlaWdodD0iMzMuMjUiLz4mI3hhOyYjeGE7JiN4YTsmI3hhOzxyZWN0IGlkPSJyZWN0NjA5NzMiIHg9IjkuOTc5OTk1NyIgeT0iNDkuNzIwMDAxIiBzdHlsZT0iZmlsbDojYTBhMWEyIiB3aWR0aD0iMzcuNjg5OTk5IiBoZWlnaHQ9IjMuNDgiLz4mI3hhOyYjeGE7PHBhdGggaWQ9InBhdGg2MDk4MSIgaW5rc2NhcGU6Y29ubmVjdG9yLWN1cnZhdHVyZT0iMCIgc3R5bGU9ImZpbGw6I2I4ZDQzMiIgZD0ibSAyOS40MiwyLjQyIGMgMCwwLjQ1IC0wLjM3LDAuODEgLTAuODIsMC44MSAtMC40NiwwIC0wLjgyLC0wLjM2IC0wLjgyLC0wLjgxIDAsLTAuNDYgMC4zNiwtMC44MiAwLjgyLC0wLjgyIDAuNDUsMCAwLjgyLDAuMzYgMC44MiwwLjgyIHoiLz4mI3hhOyYjeGE7PHBhdGggaWQ9InBhdGg2MDk4OSIgaW5rc2NhcGU6Y29ubmVjdG9yLWN1cnZhdHVyZT0iMCIgc3R5bGU9ImZpbGw6I2ZmZmZmZiIgZD0ibSAyOS40NSwyMC4wNSBjIC0wLjA2LDAgLTAuMTEsLTAuMDEgLTAuMTYsLTAuMDQgTCAxOS4xNCwxNC4xNSBjIC0wLjA5LC0wLjA1IC0wLjE1LC0wLjE2IC0wLjE1LC0wLjI2IDAsLTAuMTEgMC4wNiwtMC4yMiAwLjE1LC0wLjI3IEwgMjkuMjMsNy44IGMgMC4xLC0wLjA1IDAuMjEsLTAuMDUgMC4zLDAgbCAxMC4xNiw1Ljg2IGMgMC4wOSwwLjA1IDAuMTUsMC4xNiAwLjE1LDAuMjcgMCwwLjExIC0wLjA2LDAuMjEgLTAuMTUsMC4yNiBMIDI5LjYsMjAuMDEgYyAtMC4wNSwwLjAzIC0wLjEsMC4wNCAtMC4xNSwwLjA0IHoiLz4mI3hhOyYjeGE7PHBhdGggaWQ9InBhdGg2MDk5NyIgaW5rc2NhcGU6Y29ubmVjdG9yLWN1cnZhdHVyZT0iMCIgc3R5bGU9ImZpbGw6I2ZmZmZmZjtmaWxsLW9wYWNpdHk6MC43IiBkPSJtIDI3Ljk5LDM0LjI5IGMgLTAuMDYsMCAtMC4xMSwtMC4wMSAtMC4xNSwtMC4wNCBMIDE3LjcyLDI4LjQxIGMgLTAuMSwtMC4wNSAtMC4xNiwtMC4xNSAtMC4xNiwtMC4yNiBWIDE2LjQzIGMgMCwtMC4xMSAwLjA2LC0wLjIyIDAuMTYsLTAuMjcgMC4wOSwtMC4wNiAwLjIxLC0wLjA2IDAuMzEsMCBMIDI4LjE0LDIyIGMgMC4wOSwwLjA2IDAuMTUsMC4xNiAwLjE1LDAuMjcgdiAxMS43MiBjIDAsMC4xMSAtMC4wNiwwLjIxIC0wLjE1LDAuMjYgLTAuMDUsMC4wMyAtMC4xLDAuMDQgLTAuMTUsMC4wNCB6Ii8+JiN4YTsmI3hhOzxwYXRoIGlkPSJwYXRoNjEwMDUiIGlua3NjYXBlOmNvbm5lY3Rvci1jdXJ2YXR1cmU9IjAiIHN0eWxlPSJmaWxsOiNmZmZmZmY7ZmlsbC1vcGFjaXR5OjAuNCIgZD0iTSAzMC44NiwzNC4yOSBDIDMwLjgsMzQuMjkgMzAuNzUsMzQuMjggMzAuNywzNC4yNSAzMC42MSwzNC4yIDMwLjU1LDM0LjEgMzAuNTUsMzMuOTkgViAyMi4zNCBjIDAsLTAuMTEgMC4wNiwtMC4yMSAwLjE1LC0wLjI3IGwgMTAuMTIsLTUuODMgYyAwLjA5LC0wLjA2IDAuMjEsLTAuMDYgMC4zLDAgMC4xLDAuMDUgMC4xNiwwLjE1IDAuMTYsMC4yNiB2IDExLjY1IGMgMCwwLjExIC0wLjA2LDAuMjEgLTAuMTYsMC4yNiBsIC0xMC4xMSw1Ljg0IGMgLTAuMDQsMC4wMyAtMC4xLDAuMDQgLTAuMTUsMC4wNCB6Ii8+JiN4YTs8L3N2Zz4=;" parent="1" vertex="1">
          <mxGeometry x="511.62" y="101" width="32.83" height="30" as="geometry" />
        </mxCell>
        <mxCell id="jaeh_tD_YkiiCiGiNcg3-1" value="" style="shape=image;verticalLabelPosition=bottom;labelBackgroundColor=#ffffff;verticalAlign=top;aspect=fixed;imageAspect=0;image=data:image/svg+xml,PHN2ZyB4bWxuczpkYz0iaHR0cDovL3B1cmwub3JnL2RjL2VsZW1lbnRzLzEuMS8iIHhtbG5zOmNjPSJodHRwOi8vY3JlYXRpdmVjb21tb25zLm9yZy9ucyMiIHhtbG5zOnJkZj0iaHR0cDovL3d3dy53My5vcmcvMTk5OS8wMi8yMi1yZGYtc3ludGF4LW5zIyIgeG1sbnM6c3ZnPSJodHRwOi8vd3d3LnczLm9yZy8yMDAwL3N2ZyIgeG1sbnM9Imh0dHA6Ly93d3cudzMub3JnLzIwMDAvc3ZnIiB4bWxuczpzb2RpcG9kaT0iaHR0cDovL3NvZGlwb2RpLnNvdXJjZWZvcmdlLm5ldC9EVEQvc29kaXBvZGktMC5kdGQiIHhtbG5zOmlua3NjYXBlPSJodHRwOi8vd3d3Lmlua3NjYXBlLm9yZy9uYW1lc3BhY2VzL2lua3NjYXBlIiB2ZXJzaW9uPSIxLjEiIGlkPSJzdmc2MTAxMSIgaW5rc2NhcGU6dmVyc2lvbj0iMC45Mi4zICgyNDA1NTQ2LCAyMDE4LTAzLTExKSIgc29kaXBvZGk6ZG9jbmFtZT0iYXp1cmVfcG9ydGFsX3ZpcnR1YWxfbWFjaGluZXMuc3ZnIiB4PSIwcHgiIHk9IjBweCIgdmlld0JveD0iMCAwIDU3LjY0IDUzLjIwMDAwMiIgeG1sOnNwYWNlPSJwcmVzZXJ2ZSIgd2lkdGg9IjU3LjYzOTk5OSIgaGVpZ2h0PSI1My4yMDAwMDEiPjxtZXRhZGF0YSBpZD0ibWV0YWRhdGExMDk5MCI+PHJkZjpSREY+PGNjOldvcmsgcmRmOmFib3V0PSIiPjxkYzpmb3JtYXQ+aW1hZ2Uvc3ZnK3htbDwvZGM6Zm9ybWF0PjxkYzp0eXBlIHJkZjpyZXNvdXJjZT0iaHR0cDovL3B1cmwub3JnL2RjL2RjbWl0eXBlL1N0aWxsSW1hZ2UiLz48ZGM6dGl0bGUvPjwvY2M6V29yaz48L3JkZjpSREY+PC9tZXRhZGF0YT48ZGVmcyBpZD0iZGVmczEwOTg4Ii8+JiN4YTs8ZmlsdGVyIGlkPSJmaWx0ZXJfMiI+JiN4YTsJPGZlR2F1c3NpYW5CbHVyIGlkPSJmZUdhdXNzaWFuQmx1cjYwOTIwIiBzdGREZXZpYXRpb249IjIiLz4mI3hhOzwvZmlsdGVyPiYjeGE7PHNvZGlwb2RpOm5hbWVkdmlldyBib3JkZXJjb2xvcj0iIzY2NjY2NiIgYm9yZGVyb3BhY2l0eT0iMSIgZml0LW1hcmdpbi1ib3R0b209IjAiIGZpdC1tYXJnaW4tbGVmdD0iMCIgZml0LW1hcmdpbi1yaWdodD0iMCIgZml0LW1hcmdpbi10b3A9IjAiIGdyaWR0b2xlcmFuY2U9IjEwIiBndWlkZXRvbGVyYW5jZT0iMTAiIGlkPSJuYW1lZHZpZXc2MTAxMyIgaW5rc2NhcGU6Y3VycmVudC1sYXllcj0ic3ZnNjEwMTEiIGlua3NjYXBlOmN4PSItMzMuMTQzMzAzIiBpbmtzY2FwZTpjeT0iMjQuNjk2NTQ0IiBpbmtzY2FwZTpwYWdlb3BhY2l0eT0iMCIgaW5rc2NhcGU6cGFnZXNoYWRvdz0iMiIgaW5rc2NhcGU6d2luZG93LWhlaWdodD0iMTAxNyIgaW5rc2NhcGU6d2luZG93LW1heGltaXplZD0iMSIgaW5rc2NhcGU6d2luZG93LXdpZHRoPSIxOTIwIiBpbmtzY2FwZTp3aW5kb3cteD0iLTgiIGlua3NjYXBlOndpbmRvdy15PSItOCIgaW5rc2NhcGU6em9vbT0iNS45MTg3NzA5IiBvYmplY3R0b2xlcmFuY2U9IjEwIiBwYWdlY29sb3I9IiNmZmZmZmYiIHNob3dncmlkPSJmYWxzZSI+JiN4YTsJPC9zb2RpcG9kaTpuYW1lZHZpZXc+JiN4YTsmI3hhOzxwYXRoIGlkPSJwYXRoNjA5MzMiIGlua3NjYXBlOmNvbm5lY3Rvci1jdXJ2YXR1cmU9IjAiIHN0eWxlPSJmaWxsOiM3YTdhN2EiIGQ9Ik0gMzcuMzksNDIuMTIgSCAzNi4wMSAyMi40MiAyMS43MSBjIDEuODgsNi42NSAtMC42NSw3LjYgLTExLjczLDcuNiB2IDMuNDggaCAxNC4xIDEwLjI5IDEzLjMgdiAtMy40OCBjIC0xMS4wOCwwIC0xMi4xNywtMC45NSAtMTAuMjgsLTcuNiB6Ii8+JiN4YTsmI3hhOzxwYXRoIGlkPSJwYXRoNjA5NDEiIGlua3NjYXBlOmNvbm5lY3Rvci1jdXJ2YXR1cmU9IjAiIHN0eWxlPSJmaWxsOiNhMGExYTIiIGQ9Ik0gNTQuMTYsMCBIIDMuMTMgQyAxLjQsMCAwLDEuNTUgMCwzLjI4IHYgMzUuNTkgYyAwLDEuNzIgMS40LDMuMjUgMy4xMywzLjI1IGggNTEuMDMgYyAxLjczLDAgMy40OCwtMS41MyAzLjQ4LC0zLjI1IFYgMy4yOCBDIDU3LjY0LDEuNTUgNTUuODksMCA1NC4xNiwwIFoiLz4mI3hhOyYjeGE7PHBhdGggaWQ9InBhdGg2MDk0OSIgaW5rc2NhcGU6Y29ubmVjdG9yLWN1cnZhdHVyZT0iMCIgc3R5bGU9ImZpbGw6I2ZmZmZmZjtmaWxsLW9wYWNpdHk6MC4yIiBkPSJNIDU0LjIsMCBDIDU0LjE5LDAgNTQuMTcsMCA1NC4xNiwwIEggMy4xMyBDIDEuNCwwIDAsMS41NSAwLDMuMjggdiAzNS41OSBjIDAsMS43MiAxLjQsMy4yNSAzLjEzLDMuMjUgaCAxLjIyIHoiLz4mI3hhOyYjeGE7PHJlY3QgaWQ9InJlY3Q2MDk1NyIgeD0iNC4zNjk5OTUxIiB5PSI0LjQ0MDAwMDEiIHN0eWxlPSJmaWxsOiM1OWI0ZDkiIHdpZHRoPSI0OC43Nzk5OTkiIGhlaWdodD0iMzMuMjUiLz4mI3hhOyYjeGE7JiN4YTsmI3hhOzxyZWN0IGlkPSJyZWN0NjA5NzMiIHg9IjkuOTc5OTk1NyIgeT0iNDkuNzIwMDAxIiBzdHlsZT0iZmlsbDojYTBhMWEyIiB3aWR0aD0iMzcuNjg5OTk5IiBoZWlnaHQ9IjMuNDgiLz4mI3hhOyYjeGE7PHBhdGggaWQ9InBhdGg2MDk4MSIgaW5rc2NhcGU6Y29ubmVjdG9yLWN1cnZhdHVyZT0iMCIgc3R5bGU9ImZpbGw6I2I4ZDQzMiIgZD0ibSAyOS40MiwyLjQyIGMgMCwwLjQ1IC0wLjM3LDAuODEgLTAuODIsMC44MSAtMC40NiwwIC0wLjgyLC0wLjM2IC0wLjgyLC0wLjgxIDAsLTAuNDYgMC4zNiwtMC44MiAwLjgyLC0wLjgyIDAuNDUsMCAwLjgyLDAuMzYgMC44MiwwLjgyIHoiLz4mI3hhOyYjeGE7PHBhdGggaWQ9InBhdGg2MDk4OSIgaW5rc2NhcGU6Y29ubmVjdG9yLWN1cnZhdHVyZT0iMCIgc3R5bGU9ImZpbGw6I2ZmZmZmZiIgZD0ibSAyOS40NSwyMC4wNSBjIC0wLjA2LDAgLTAuMTEsLTAuMDEgLTAuMTYsLTAuMDQgTCAxOS4xNCwxNC4xNSBjIC0wLjA5LC0wLjA1IC0wLjE1LC0wLjE2IC0wLjE1LC0wLjI2IDAsLTAuMTEgMC4wNiwtMC4yMiAwLjE1LC0wLjI3IEwgMjkuMjMsNy44IGMgMC4xLC0wLjA1IDAuMjEsLTAuMDUgMC4zLDAgbCAxMC4xNiw1Ljg2IGMgMC4wOSwwLjA1IDAuMTUsMC4xNiAwLjE1LDAuMjcgMCwwLjExIC0wLjA2LDAuMjEgLTAuMTUsMC4yNiBMIDI5LjYsMjAuMDEgYyAtMC4wNSwwLjAzIC0wLjEsMC4wNCAtMC4xNSwwLjA0IHoiLz4mI3hhOyYjeGE7PHBhdGggaWQ9InBhdGg2MDk5NyIgaW5rc2NhcGU6Y29ubmVjdG9yLWN1cnZhdHVyZT0iMCIgc3R5bGU9ImZpbGw6I2ZmZmZmZjtmaWxsLW9wYWNpdHk6MC43IiBkPSJtIDI3Ljk5LDM0LjI5IGMgLTAuMDYsMCAtMC4xMSwtMC4wMSAtMC4xNSwtMC4wNCBMIDE3LjcyLDI4LjQxIGMgLTAuMSwtMC4wNSAtMC4xNiwtMC4xNSAtMC4xNiwtMC4yNiBWIDE2LjQzIGMgMCwtMC4xMSAwLjA2LC0wLjIyIDAuMTYsLTAuMjcgMC4wOSwtMC4wNiAwLjIxLC0wLjA2IDAuMzEsMCBMIDI4LjE0LDIyIGMgMC4wOSwwLjA2IDAuMTUsMC4xNiAwLjE1LDAuMjcgdiAxMS43MiBjIDAsMC4xMSAtMC4wNiwwLjIxIC0wLjE1LDAuMjYgLTAuMDUsMC4wMyAtMC4xLDAuMDQgLTAuMTUsMC4wNCB6Ii8+JiN4YTsmI3hhOzxwYXRoIGlkPSJwYXRoNjEwMDUiIGlua3NjYXBlOmNvbm5lY3Rvci1jdXJ2YXR1cmU9IjAiIHN0eWxlPSJmaWxsOiNmZmZmZmY7ZmlsbC1vcGFjaXR5OjAuNCIgZD0iTSAzMC44NiwzNC4yOSBDIDMwLjgsMzQuMjkgMzAuNzUsMzQuMjggMzAuNywzNC4yNSAzMC42MSwzNC4yIDMwLjU1LDM0LjEgMzAuNTUsMzMuOTkgViAyMi4zNCBjIDAsLTAuMTEgMC4wNiwtMC4yMSAwLjE1LC0wLjI3IGwgMTAuMTIsLTUuODMgYyAwLjA5LC0wLjA2IDAuMjEsLTAuMDYgMC4zLDAgMC4xLDAuMDUgMC4xNiwwLjE1IDAuMTYsMC4yNiB2IDExLjY1IGMgMCwwLjExIC0wLjA2LDAuMjEgLTAuMTYsMC4yNiBsIC0xMC4xMSw1Ljg0IGMgLTAuMDQsMC4wMyAtMC4xLDAuMDQgLTAuMTUsMC4wNCB6Ii8+JiN4YTs8L3N2Zz4=;" parent="1" vertex="1">
          <mxGeometry x="203.99999999999994" y="105" width="32.83" height="30" as="geometry" />
        </mxCell>
        <mxCell id="jaeh_tD_YkiiCiGiNcg3-4" value="" style="shape=image;verticalLabelPosition=bottom;labelBackgroundColor=#ffffff;verticalAlign=top;aspect=fixed;imageAspect=0;image=data:image/svg+xml,PHN2ZyB4bWxuczpjYz0iaHR0cDovL2NyZWF0aXZlY29tbW9ucy5vcmcvbnMjIiB4bWxuczpkYz0iaHR0cDovL3B1cmwub3JnL2RjL2VsZW1lbnRzLzEuMS8iIHhtbG5zOmlua3NjYXBlPSJodHRwOi8vd3d3Lmlua3NjYXBlLm9yZy9uYW1lc3BhY2VzL2lua3NjYXBlIiB4bWxuczpyZGY9Imh0dHA6Ly93d3cudzMub3JnLzE5OTkvMDIvMjItcmRmLXN5bnRheC1ucyMiIHhtbG5zOnNvZGlwb2RpPSJodHRwOi8vc29kaXBvZGkuc291cmNlZm9yZ2UubmV0L0RURC9zb2RpcG9kaS0wLmR0ZCIgeG1sbnM6c3ZnPSJodHRwOi8vd3d3LnczLm9yZy8yMDAwL3N2ZyIgeG1sbnM9Imh0dHA6Ly93d3cudzMub3JnLzIwMDAvc3ZnIiB4bWxuczp4bGluaz0iaHR0cDovL3d3dy53My5vcmcvMTk5OS94bGluayIgdmVyc2lvbj0iMS4xIiBpZD0ic3ZnMTAxNjY1IiBpbmtzY2FwZTp2ZXJzaW9uPSIwLjkyLjMgKDI0MDU1NDYsIDIwMTgtMDMtMTEpIiBzb2RpcG9kaTpkb2NuYW1lPSJ2aXJ0dWFsX3dhbi5zdmciIHg9IjBweCIgeT0iMHB4IiB2aWV3Qm94PSIwIDAgMzUuODUgMzUuODYiIHN0eWxlPSJlbmFibGUtYmFja2dyb3VuZDpuZXcgMCAwIDM1Ljg1IDM1Ljg2OyIgeG1sOnNwYWNlPSJwcmVzZXJ2ZSI+JiN4YTs8c29kaXBvZGk6bmFtZWR2aWV3IGJvcmRlcmNvbG9yPSIjNjY2NjY2IiBib3JkZXJvcGFjaXR5PSIxIiBmaXQtbWFyZ2luLWJvdHRvbT0iMCIgZml0LW1hcmdpbi1sZWZ0PSIwIiBmaXQtbWFyZ2luLXJpZ2h0PSIwIiBmaXQtbWFyZ2luLXRvcD0iMCIgZ3JpZHRvbGVyYW5jZT0iMTAiIGd1aWRldG9sZXJhbmNlPSIxMCIgaWQ9Im5hbWVkdmlldzEwMTY2NyIgaW5rc2NhcGU6Y3VycmVudC1sYXllcj0ic3ZnMTAxNjY1IiBpbmtzY2FwZTpjeD0iNC44OTUzNjM0IiBpbmtzY2FwZTpjeT0iMTcuMTcwMDE4IiBpbmtzY2FwZTpwYWdlb3BhY2l0eT0iMCIgaW5rc2NhcGU6cGFnZXNoYWRvdz0iMiIgaW5rc2NhcGU6d2luZG93LWhlaWdodD0iMTAxNyIgaW5rc2NhcGU6d2luZG93LW1heGltaXplZD0iMSIgaW5rc2NhcGU6d2luZG93LXdpZHRoPSIxOTIwIiBpbmtzY2FwZTp3aW5kb3cteD0iLTgiIGlua3NjYXBlOndpbmRvdy15PSItOCIgaW5rc2NhcGU6em9vbT0iOC43MDQ4MTkxIiBvYmplY3R0b2xlcmFuY2U9IjEwIiBwYWdlY29sb3I9IiNmZmZmZmYiIHNob3dncmlkPSJmYWxzZSI+JiN4YTsJPC9zb2RpcG9kaTpuYW1lZHZpZXc+JiN4YTs8ZyBpZD0iZzEwMTY2MyIgdHJhbnNmb3JtPSJ0cmFuc2xhdGUoLTAuNzUsLTAuNzQ1KSI+JiN4YTsJPHRpdGxlIGlkPSJ0aXRsZTEwMTYwMiI+UGFnZS0xPC90aXRsZT4mI3hhOwk8ZyBpZD0iZ3JvdXA1OTM3LTEiIHRyYW5zZm9ybT0idHJhbnNsYXRlKDAuNzUsLTAuNzUpIj4mI3hhOwkJPHRpdGxlIGlkPSJ0aXRsZTEwMTYwNCI+VmlydHVhbCBXQU48L3RpdGxlPiYjeGE7CQk8ZyBpZD0ic2hhcGU1OTM4LTIiIHRyYW5zZm9ybT0idHJhbnNsYXRlKDAsLTEzLjQyNSkiPiYjeGE7CQkJPHRpdGxlIGlkPSJ0aXRsZTEwMTYwNiI+U2hlZXQuNTkzODwvdGl0bGU+JiN4YTsJCQk8cGF0aCBpZD0icGF0aDEwMTYwOCIgaW5rc2NhcGU6Y29ubmVjdG9yLWN1cnZhdHVyZT0iMCIgc3R5bGU9ImZpbGw6IzU5QjREOTsiIGQ9Ik0yOC44OCwyMy43Yy0wLjAxLDAtMC4wMiwwLTAuMDMsMCAgICAgYy0wLjI2LTQuODktNC4zNy04Ljc4LTkuNDMtOC43OGMtMy43LDAtNi44OSwyLjA4LTguNDUsNS4xMWMtMC42NC0wLjE1LTEuMzItMC4yMy0yLjAxLTAuMjNDNC4wMSwxOS44LDAsMjMuNzMsMCwyOC41NyAgICAgYzAsNC44NSw0LjAxLDguNzgsOC45Niw4Ljc4aDE5LjkyYzMuODUsMCw2Ljk3LTMuMDYsNi45Ny02LjgzQzM1Ljg1LDI2Ljc2LDMyLjczLDIzLjcsMjguODgsMjMuN3oiLz4mI3hhOwkJPC9nPiYjeGE7CQk8ZyBpZD0ic2hhcGU1OTM5LTQiIHRyYW5zZm9ybT0idHJhbnNsYXRlKDAsLTEzLjQyNSkiPiYjeGE7CQkJPHRpdGxlIGlkPSJ0aXRsZTEwMTYxMSI+U2hlZXQuNTkzOTwvdGl0bGU+JiN4YTsJCQk8cGF0aCBpZD0icGF0aDEwMTYxMyIgaW5rc2NhcGU6Y29ubmVjdG9yLWN1cnZhdHVyZT0iMCIgc3R5bGU9ImZpbGw6I0ZGRkZGRjtmaWxsLW9wYWNpdHk6MC4yOyIgZD0iTTI4Ljg4LDIzLjcgICAgIGMtMC4wMSwwLTAuMDIsMC0wLjAzLDBjLTAuMjYtNC44OS00LjM3LTguNzgtOS40My04Ljc4Yy0zLjcsMC02Ljg5LDIuMDgtOC40NSw1LjExYy0wLjY0LTAuMTUtMS4zMi0wLjIzLTIuMDEtMC4yMyAgICAgQzQuMDEsMTkuOCwwLDIzLjczLDAsMjguNTdjMCw0Ljg1LDQuMDEsOC43OCw4Ljk2LDguNzhoMTkuOTJjMy44NSwwLDYuOTctMy4wNiw2Ljk3LTYuODNDMzUuODUsMjYuNzYsMzIuNzMsMjMuNywyOC44OCwyMy43eiIvPiYjeGE7CQk8L2c+JiN4YTsJCTxnIGlkPSJncm91cDU5NDAtNiIgdHJhbnNmb3JtPSJ0cmFuc2xhdGUoNikiPiYjeGE7CQkJPHRpdGxlIGlkPSJ0aXRsZTEwMTYxNiI+U2hlZXQuNTk0MDwvdGl0bGU+JiN4YTsJCQk8ZyBpZD0iZ3JvdXA1OTQxLTciPiYjeGE7CQkJCTx0aXRsZSBpZD0idGl0bGUxMDE2MTgiPlNoZWV0LjU5NDE8L3RpdGxlPiYjeGE7CQkJCTxnIGlkPSJzaGFwZTU5NDItOCIgdHJhbnNmb3JtPSJ0cmFuc2xhdGUoMC41NjI1LC0wLjU2MjUpIj4mI3hhOwkJCQkJPHRpdGxlIGlkPSJ0aXRsZTEwMTYyMCI+U2hlZXQuNTk0MjwvdGl0bGU+JiN4YTsJCQkJCTxwYXRoIGlkPSJwYXRoMTAxNjIyIiBpbmtzY2FwZTpjb25uZWN0b3ItY3VydmF0dXJlPSIwIiBzdHlsZT0iZmlsbDojRkZGRkZGOyIgZD0iTTEyLjExLDM3LjM1QzUuNDMsMzcuMzUsMCwzMS45MiwwLDI1LjI0ICAgICAgIHM1LjQzLTEyLjEyLDEyLjExLTEyLjEyczEyLjEyLDUuNDQsMTIuMTIsMTIuMTJTMTguNzksMzcuMzUsMTIuMTEsMzcuMzV6Ii8+JiN4YTsJCQkJPC9nPiYjeGE7CQkJCTxnIGlkPSJzaGFwZTU5NDMtMTAiPiYjeGE7CQkJCQk8dGl0bGUgaWQ9InRpdGxlMTAxNjI1Ij5TaGVldC41OTQzPC90aXRsZT4mI3hhOwkJCQkJPHBhdGggaWQ9InBhdGgxMDE2MjciIGlua3NjYXBlOmNvbm5lY3Rvci1jdXJ2YXR1cmU9IjAiIHN0eWxlPSJmaWxsOiM4MDQ5OTg7IiBkPSJNMTIuNjgsMTMuMTJjNi4zNiwwLDExLjU1LDUuMTksMTEuNTUsMTEuNTUgICAgICAgYzAsNi4zNy01LjE5LDExLjU1LTExLjU1LDExLjU1Yy02LjM3LDAtMTEuNTUtNS4xOC0xMS41NS0xMS41NUMxLjEzLDE4LjMxLDYuMzEsMTMuMTIsMTIuNjgsMTMuMTJ6IE0xMi42OCwxMiAgICAgICBDNS42NywxMiwwLDE3LjY3LDAsMjQuNjdjMCw3LjAxLDUuNjcsMTIuNjgsMTIuNjgsMTIuNjhjNywwLDEyLjY3LTUuNjcsMTIuNjctMTIuNjhDMjUuMzUsMTcuNjcsMTkuNjgsMTIsMTIuNjgsMTJ6Ii8+JiN4YTsJCQkJPC9nPiYjeGE7CQkJPC9nPiYjeGE7CQkJPGcgaWQ9InNoYXBlNTk0NC0xMiIgdHJhbnNmb3JtPSJyb3RhdGUoLTcwLjAwMTIsLTUuNTYyMTk2NSwyMS40NjM2MzkpIj4mI3hhOwkJCQk8dGl0bGUgaWQ9InRpdGxlMTAxNjMxIj5TaGVldC41OTQ0PC90aXRsZT4mI3hhOwkJCQk8Y2lyY2xlIGlkPSJlbGxpcHNlMTAxNjMzIiBzdHlsZT0iZmlsbDojODA0OTk4OyIgY3g9IjIuMzkiIGN5PSIzNC45NiIgcj0iMi4zOSIvPiYjeGE7CQkJPC9nPiYjeGE7CQkJPGcgaWQ9InNoYXBlNTk0NS0xNCIgdHJhbnNmb3JtPSJyb3RhdGUoLTcwLjAwMTIsNC4zNTk2MzYsMTcuOTAyNjc0KSI+JiN4YTsJCQkJPHRpdGxlIGlkPSJ0aXRsZTEwMTYzNiI+U2hlZXQuNTk0NTwvdGl0bGU+JiN4YTsJCQkJPGNpcmNsZSBpZD0iZWxsaXBzZTEwMTYzOCIgc3R5bGU9ImZpbGw6IzgwNDk5ODsiIGN4PSIyLjM5IiBjeT0iMzQuOTYiIHI9IjIuMzkiLz4mI3hhOwkJCTwvZz4mI3hhOwkJCTxnIGlkPSJzaGFwZTU5NDYtMTYiIHRyYW5zZm9ybT0icm90YXRlKC03MC4wMDEyLDEuNTIwNzM0OCwyOC4zNTU1OTEpIj4mI3hhOwkJCQk8dGl0bGUgaWQ9InRpdGxlMTAxNjQxIj5TaGVldC41OTQ2PC90aXRsZT4mI3hhOwkJCQk8Y2lyY2xlIGlkPSJlbGxpcHNlMTAxNjQzIiBzdHlsZT0iZmlsbDojODA0OTk4OyIgY3g9IjIuMzkiIGN5PSIzNC45NiIgcj0iMi4zOSIvPiYjeGE7CQkJPC9nPiYjeGE7CQkJPGcgaWQ9InNoYXBlNTk0Ny0xOCIgdHJhbnNmb3JtPSJ0cmFuc2xhdGUoMC44MTk3NSwtMS43NjU1KSI+JiN4YTsJCQkJPHRpdGxlIGlkPSJ0aXRsZTEwMTY0NiI+U2hlZXQuNTk0NzwvdGl0bGU+JiN4YTsJCQkJPHBhdGggaWQ9InBhdGgxMDE2NDgiIGlua3NjYXBlOmNvbm5lY3Rvci1jdXJ2YXR1cmU9IjAiIHN0eWxlPSJmaWxsOiM4MDQ5OTg7IiBkPSJNNi40NSwxOS4wN2MtMS45NiwwLTMuODUsMC40LTUuNjQsMS4yMSAgICAgIEMwLjUsMjAuODQsMC4yMywyMS40MSwwLDIyLjAyYzEuOTUtMS4xNyw0LjE3LTEuNzksNi40NS0xLjc5YzYuOTYsMCwxMi42Miw1LjY3LDEyLjYyLDEyLjYzYzAsMS41Mi0wLjI3LDMuMDEtMC44MSw0LjQzICAgICAgbC0wLjAyLDAuMDZjMC41My0wLjMyLDEuMDQtMC42NywxLjUyLTEuMDZjMC4yOC0xLjEsMC40Ny0yLjI5LDAuNDctMy40M0MyMC4yMywyNS4yNSwxNC4wNSwxOS4wNyw2LjQ1LDE5LjA3eiIvPiYjeGE7CQkJPC9nPiYjeGE7CQkJPGcgaWQ9InNoYXBlNTk0OC0yMCIgdHJhbnNmb3JtPSJ0cmFuc2xhdGUoNi44NDE1LC0wLjAxNDI1KSI+JiN4YTsJCQkJPHRpdGxlIGlkPSJ0aXRsZTEwMTY1MSI+U2hlZXQuNTk0ODwvdGl0bGU+JiN4YTsJCQkJPHBhdGggaWQ9InBhdGgxMDE2NTMiIGlua3NjYXBlOmNvbm5lY3Rvci1jdXJ2YXR1cmU9IjAiIHN0eWxlPSJmaWxsOiM4MDQ5OTg7IiBkPSJNMTEuMjksMTMuMzhjLTAuNTktMC4yOC0xLjItMC41Mi0xLjg0LTAuNzIgICAgICBDMy43OSwxNC41NCwwLDE5Ljc2LDAsMjUuNzVjMCw0LjcyLDIuMzcsOS4wNSw2LjM0LDExLjZjMC42Ny0wLjAzLDEuMzItMC4xMSwxLjk2LTAuMjRsLTAuMDYtMC4wMyAgICAgIGMtNC4zNi0yLjE1LTcuMDctNi40OS03LjA3LTExLjMzQzEuMTcsMTkuNzUsNS40MiwxNC41NywxMS4yOSwxMy4zOHoiLz4mI3hhOwkJCTwvZz4mI3hhOwkJCTxnIGlkPSJzaGFwZTU5NDktMjIiIHRyYW5zZm9ybT0idHJhbnNsYXRlKDQuNTQ1LC0yLjE4NTUpIj4mI3hhOwkJCQk8dGl0bGUgaWQ9InRpdGxlMTAxNjU2Ij5TaGVldC41OTQ5PC90aXRsZT4mI3hhOwkJCQk8cGF0aCBpZD0icGF0aDEwMTY1OCIgaW5rc2NhcGU6Y29ubmVjdG9yLWN1cnZhdHVyZT0iMCIgc3R5bGU9ImZpbGw6IzgwNDk5ODsiIGQ9Ik0yMC4yNywzMC4xOGMwLjExLTAuNDEsMC4yLTAuODQsMC4yNy0xLjI4ICAgICAgYy0yLjE2LTEuMy00LjYyLTEuOTktNy4xNC0xLjk5Yy02LDAtMTEuMzgsMy44LTEzLjM5LDkuNjJMMCwzNi41NmwwLjAzLDAuMDNjMC4yNywwLjIzLDAuNTYsMC40NSwwLjg1LDAuNjcgICAgICBjMC4wNSwwLjAzLDAuMDksMC4wNiwwLjEzLDAuMDlsMC4wMi0wLjA3YzEuNzUtNS41Myw2LjcyLTkuMTQsMTIuMzctOS4xNEMxNS44NSwyOC4xNCwxOC4yLDI4Ljg1LDIwLjI3LDMwLjE4eiIvPiYjeGE7CQkJPC9nPiYjeGE7CQk8L2c+JiN4YTsJPC9nPiYjeGE7PC9nPiYjeGE7PC9zdmc+;" parent="1" vertex="1">
          <mxGeometry x="157" y="201" width="36" height="36" as="geometry" />
        </mxCell>
        <mxCell id="jaeh_tD_YkiiCiGiNcg3-8" value="" style="aspect=fixed;html=1;points=[];align=center;image;fontSize=12;image=img/lib/azure2/networking/Virtual_Network_Gateways.svg;" parent="1" vertex="1">
          <mxGeometry x="173" y="256" width="25.62" height="34" as="geometry" />
        </mxCell>
        <mxCell id="jaeh_tD_YkiiCiGiNcg3-9" value="" style="aspect=fixed;html=1;points=[];align=center;image;fontSize=12;image=img/lib/azure2/networking/Virtual_Networks.svg;" parent="1" vertex="1">
          <mxGeometry x="248.85000000000002" y="70" width="38.53" height="23" as="geometry" />
        </mxCell>
        <mxCell id="jaeh_tD_YkiiCiGiNcg3-11" value="" style="aspect=fixed;html=1;points=[];align=center;image;fontSize=12;image=img/lib/azure2/networking/Firewalls.svg;" parent="1" vertex="1">
          <mxGeometry x="449" y="249" width="34.32" height="29" as="geometry" />
        </mxCell>
        <mxCell id="jaeh_tD_YkiiCiGiNcg3-12" value="" style="sketch=0;points=[[0.5,0,0],[1,0.5,0],[0.5,1,0],[0,0.5,0],[0.145,0.145,0],[0.8555,0.145,0],[0.855,0.8555,0],[0.145,0.855,0]];verticalLabelPosition=bottom;html=1;verticalAlign=top;aspect=fixed;align=center;pointerEvents=1;shape=mxgraph.cisco19.rect;prIcon=router;fillColor=#FAFAFA;strokeColor=#005073;" parent="1" vertex="1">
          <mxGeometry x="628" y="991" width="35" height="35" as="geometry" />
        </mxCell>
        <mxCell id="jaeh_tD_YkiiCiGiNcg3-19" value="" style="shape=image;verticalLabelPosition=bottom;labelBackgroundColor=#ffffff;verticalAlign=top;aspect=fixed;imageAspect=0;image=data:image/svg+xml,PHN2ZyB4bWxuczpjYz0iaHR0cDovL2NyZWF0aXZlY29tbW9ucy5vcmcvbnMjIiB4bWxuczpkYz0iaHR0cDovL3B1cmwub3JnL2RjL2VsZW1lbnRzLzEuMS8iIHhtbG5zOmlua3NjYXBlPSJodHRwOi8vd3d3Lmlua3NjYXBlLm9yZy9uYW1lc3BhY2VzL2lua3NjYXBlIiB4bWxuczpyZGY9Imh0dHA6Ly93d3cudzMub3JnLzE5OTkvMDIvMjItcmRmLXN5bnRheC1ucyMiIHhtbG5zOnNvZGlwb2RpPSJodHRwOi8vc29kaXBvZGkuc291cmNlZm9yZ2UubmV0L0RURC9zb2RpcG9kaS0wLmR0ZCIgeG1sbnM6c3ZnPSJodHRwOi8vd3d3LnczLm9yZy8yMDAwL3N2ZyIgeG1sbnM9Imh0dHA6Ly93d3cudzMub3JnLzIwMDAvc3ZnIiB4bWxuczp4bGluaz0iaHR0cDovL3d3dy53My5vcmcvMTk5OS94bGluayIgdmVyc2lvbj0iMS4xIiBpZD0ic3ZnMTQ5NyIgaW5rc2NhcGU6dmVyc2lvbj0iMC45Mi4zICgyNDA1NTQ2LCAyMDE4LTAzLTExKSIgc29kaXBvZGk6ZG9jbmFtZT0iYXBwbGUuc3ZnIiB4PSIwcHgiIHk9IjBweCIgdmlld0JveD0iMCAwIDc0LjY3IDcwLjQiIHN0eWxlPSJlbmFibGUtYmFja2dyb3VuZDpuZXcgMCAwIDc0LjY3IDcwLjQ7IiB4bWw6c3BhY2U9InByZXNlcnZlIj4mI3hhOzxzb2RpcG9kaTpuYW1lZHZpZXcgYm9yZGVyY29sb3I9IiM2NjY2NjYiIGJvcmRlcm9wYWNpdHk9IjEiIGZpdC1tYXJnaW4tYm90dG9tPSIwIiBmaXQtbWFyZ2luLWxlZnQ9IjAiIGZpdC1tYXJnaW4tcmlnaHQ9IjAiIGZpdC1tYXJnaW4tdG9wPSIwIiBncmlkdG9sZXJhbmNlPSIxMCIgZ3VpZGV0b2xlcmFuY2U9IjEwIiBpZD0ibmFtZWR2aWV3MTQ5OSIgaW5rc2NhcGU6Y3VycmVudC1sYXllcj0ic3ZnMTQ5NyIgaW5rc2NhcGU6Y3g9IjQ5Ljc3NTk3NyIgaW5rc2NhcGU6Y3k9IjQ2LjkzNDUyOSIgaW5rc2NhcGU6cGFnZW9wYWNpdHk9IjAiIGlua3NjYXBlOnBhZ2VzaGFkb3c9IjIiIGlua3NjYXBlOndpbmRvdy1oZWlnaHQ9IjEwMTciIGlua3NjYXBlOndpbmRvdy1tYXhpbWl6ZWQ9IjEiIGlua3NjYXBlOndpbmRvdy13aWR0aD0iMTkyMCIgaW5rc2NhcGU6d2luZG93LXg9Ii04IiBpbmtzY2FwZTp3aW5kb3cteT0iLTgiIGlua3NjYXBlOnpvb209IjguMjkwNDk0NCIgb2JqZWN0dG9sZXJhbmNlPSIxMCIgcGFnZWNvbG9yPSIjZmZmZmZmIiBzaG93Z3JpZD0iZmFsc2UiPiYjeGE7CTwvc29kaXBvZGk6bmFtZWR2aWV3PiYjeGE7PGcgaWQ9ImcxNDk1IiB0cmFuc2Zvcm09InRyYW5zbGF0ZSgtNC4wMTU4MTgzLC00LjAxMjcxMTQpIj4mI3hhOwk8dGl0bGUgaWQ9InRpdGxlMTQ3MCI+UGFnZS0xPC90aXRsZT4mI3hhOwk8ZyBpZD0iZ3JvdXAzODEwLTEiIHRyYW5zZm9ybT0idHJhbnNsYXRlKDQuMDE1NzcsLTQuMDE1NzUpIj4mI3hhOwkJPHRpdGxlIGlkPSJ0aXRsZTE0NzIiPkFwcGxlPC90aXRsZT4mI3hhOwkJPGcgaWQ9InNoYXBlMzgxMS0yIiB0cmFuc2Zvcm09InRyYW5zbGF0ZSgyNC4zOTgxLC00LjA2NjM1KSI+JiN4YTsJCQk8dGl0bGUgaWQ9InRpdGxlMTQ3NCI+U2hlZXQuMzgxMTwvdGl0bGU+JiN4YTsJCQk8cmVjdCBpZD0icmVjdDE0NzYiIHg9IjAiIHk9IjY4LjEiIHN0eWxlPSJmaWxsOiMyQzQyNEY7IiB3aWR0aD0iMjUuODciIGhlaWdodD0iMTAuMzQiLz4mI3hhOwkJPC9nPiYjeGE7CQk8ZyBpZD0ic2hhcGUzODEyLTQiIHRyYW5zZm9ybT0idHJhbnNsYXRlKDE1LjI4NTUpIj4mI3hhOwkJCTx0aXRsZSBpZD0idGl0bGUxNDc5Ij5TaGVldC4zODEyPC90aXRsZT4mI3hhOwkJCTxyZWN0IGlkPSJyZWN0MTQ4MSIgeD0iMCIgeT0iNzQuMzciIHN0eWxlPSJmaWxsOiNCQkMyQzY7IiB3aWR0aD0iNDQuMDkiIGhlaWdodD0iNC4wNyIvPiYjeGE7CQk8L2c+JiN4YTsJCTxnIGlkPSJzaGFwZTM4MTMtNiIgdHJhbnNmb3JtPSJ0cmFuc2xhdGUoMCwtMTQuNDAzNykiPiYjeGE7CQkJPHRpdGxlIGlkPSJ0aXRsZTE0ODQiPlNoZWV0LjM4MTM8L3RpdGxlPiYjeGE7CQkJPHBhdGggaWQ9InBhdGgxNDg2IiBpbmtzY2FwZTpjb25uZWN0b3ItY3VydmF0dXJlPSIwIiBzdHlsZT0iZmlsbDojQkJDMkM2OyIgZD0iTTAsNjQuNzJ2MTEuMDdjMCwxLjQ2LDEuMTgsMi42NCwyLjYzLDIuNjQgICAgIGMwLjAxLDAsMC4wMSwwLDAuMDIsMGg2OS4zMmMxLjQ2LDAuMDEsMi42NC0xLjE3LDIuNjUtMi42MmMwLTAuMDEsMC0wLjAxLDAtMC4wMlY2NC43MkgweiIvPiYjeGE7CQk8L2c+JiN4YTsJCTxnIGlkPSJzaGFwZTM4MTQtOCIgdHJhbnNmb3JtPSJ0cmFuc2xhdGUoMC4wNDg5OTIxLC0yOC4xMjE1KSI+JiN4YTsJCQk8dGl0bGUgaWQ9InRpdGxlMTQ4OSI+U2hlZXQuMzgxNDwvdGl0bGU+JiN4YTsJCQk8cGF0aCBpZD0icGF0aDE0OTEiIGlua3NjYXBlOmNvbm5lY3Rvci1jdXJ2YXR1cmU9IjAiIHN0eWxlPSJmaWxsOiM1MjdGOTk7IiBkPSJNNzQuNjIsMzguOGMwLjAxLTEuNDYtMS4xNy0yLjY0LTIuNjItMi42NSAgICAgYy0wLjAxLDAtMC4wMiwwLTAuMDMsMEgyLjY1QzEuMTksMzYuMTQsMC4wMSwzNy4zMiwwLDM4Ljc3YzAsMC4wMSwwLDAuMDIsMCwwLjAzdjM5LjYzaDc0LjYyVjM4Ljh6Ii8+JiN4YTsJCTwvZz4mI3hhOwk8L2c+JiN4YTs8L2c+JiN4YTs8L3N2Zz4=;" parent="1" vertex="1">
          <mxGeometry x="167.38" y="470" width="32.14" height="30" as="geometry" />
        </mxCell>
        <mxCell id="jaeh_tD_YkiiCiGiNcg3-22" value="" style="aspect=fixed;html=1;points=[];align=center;image;fontSize=12;image=img/lib/azure2/networking/Virtual_Network_Gateways.svg;" parent="1" vertex="1">
          <mxGeometry x="153.9999999999999" y="939" width="25.62" height="34" as="geometry" />
        </mxCell>
        <mxCell id="jaeh_tD_YkiiCiGiNcg3-26" value="" style="aspect=fixed;html=1;points=[];align=center;image;fontSize=12;image=img/lib/azure2/networking/Virtual_Network_Gateways.svg;" parent="1" vertex="1">
          <mxGeometry x="170.88" y="427" width="25.62" height="34" as="geometry" />
        </mxCell>
        <mxCell id="jaeh_tD_YkiiCiGiNcg3-28" value="" style="aspect=fixed;html=1;points=[];align=center;image;fontSize=12;image=img/lib/azure2/networking/Virtual_Network_Gateways.svg;" parent="1" vertex="1">
          <mxGeometry x="208.14" y="953" width="25.62" height="34" as="geometry" />
        </mxCell>
        <mxCell id="jaeh_tD_YkiiCiGiNcg3-31" value="" style="shape=image;verticalLabelPosition=bottom;labelBackgroundColor=#ffffff;verticalAlign=top;aspect=fixed;imageAspect=0;image=data:image/svg+xml,PHN2ZyB4bWxuczpjYz0iaHR0cDovL2NyZWF0aXZlY29tbW9ucy5vcmcvbnMjIiB4bWxuczpkYz0iaHR0cDovL3B1cmwub3JnL2RjL2VsZW1lbnRzLzEuMS8iIHhtbG5zOmlua3NjYXBlPSJodHRwOi8vd3d3Lmlua3NjYXBlLm9yZy9uYW1lc3BhY2VzL2lua3NjYXBlIiB4bWxuczpyZGY9Imh0dHA6Ly93d3cudzMub3JnLzE5OTkvMDIvMjItcmRmLXN5bnRheC1ucyMiIHhtbG5zOnNvZGlwb2RpPSJodHRwOi8vc29kaXBvZGkuc291cmNlZm9yZ2UubmV0L0RURC9zb2RpcG9kaS0wLmR0ZCIgeG1sbnM6c3ZnPSJodHRwOi8vd3d3LnczLm9yZy8yMDAwL3N2ZyIgeG1sbnM9Imh0dHA6Ly93d3cudzMub3JnLzIwMDAvc3ZnIiB4bWxuczp4bGluaz0iaHR0cDovL3d3dy53My5vcmcvMTk5OS94bGluayIgdmVyc2lvbj0iMS4xIiBpZD0ic3ZnMTQ5NyIgaW5rc2NhcGU6dmVyc2lvbj0iMC45Mi4zICgyNDA1NTQ2LCAyMDE4LTAzLTExKSIgc29kaXBvZGk6ZG9jbmFtZT0iYXBwbGUuc3ZnIiB4PSIwcHgiIHk9IjBweCIgdmlld0JveD0iMCAwIDc0LjY3IDcwLjQiIHN0eWxlPSJlbmFibGUtYmFja2dyb3VuZDpuZXcgMCAwIDc0LjY3IDcwLjQ7IiB4bWw6c3BhY2U9InByZXNlcnZlIj4mI3hhOzxzb2RpcG9kaTpuYW1lZHZpZXcgYm9yZGVyY29sb3I9IiM2NjY2NjYiIGJvcmRlcm9wYWNpdHk9IjEiIGZpdC1tYXJnaW4tYm90dG9tPSIwIiBmaXQtbWFyZ2luLWxlZnQ9IjAiIGZpdC1tYXJnaW4tcmlnaHQ9IjAiIGZpdC1tYXJnaW4tdG9wPSIwIiBncmlkdG9sZXJhbmNlPSIxMCIgZ3VpZGV0b2xlcmFuY2U9IjEwIiBpZD0ibmFtZWR2aWV3MTQ5OSIgaW5rc2NhcGU6Y3VycmVudC1sYXllcj0ic3ZnMTQ5NyIgaW5rc2NhcGU6Y3g9IjQ5Ljc3NTk3NyIgaW5rc2NhcGU6Y3k9IjQ2LjkzNDUyOSIgaW5rc2NhcGU6cGFnZW9wYWNpdHk9IjAiIGlua3NjYXBlOnBhZ2VzaGFkb3c9IjIiIGlua3NjYXBlOndpbmRvdy1oZWlnaHQ9IjEwMTciIGlua3NjYXBlOndpbmRvdy1tYXhpbWl6ZWQ9IjEiIGlua3NjYXBlOndpbmRvdy13aWR0aD0iMTkyMCIgaW5rc2NhcGU6d2luZG93LXg9Ii04IiBpbmtzY2FwZTp3aW5kb3cteT0iLTgiIGlua3NjYXBlOnpvb209IjguMjkwNDk0NCIgb2JqZWN0dG9sZXJhbmNlPSIxMCIgcGFnZWNvbG9yPSIjZmZmZmZmIiBzaG93Z3JpZD0iZmFsc2UiPiYjeGE7CTwvc29kaXBvZGk6bmFtZWR2aWV3PiYjeGE7PGcgaWQ9ImcxNDk1IiB0cmFuc2Zvcm09InRyYW5zbGF0ZSgtNC4wMTU4MTgzLC00LjAxMjcxMTQpIj4mI3hhOwk8dGl0bGUgaWQ9InRpdGxlMTQ3MCI+UGFnZS0xPC90aXRsZT4mI3hhOwk8ZyBpZD0iZ3JvdXAzODEwLTEiIHRyYW5zZm9ybT0idHJhbnNsYXRlKDQuMDE1NzcsLTQuMDE1NzUpIj4mI3hhOwkJPHRpdGxlIGlkPSJ0aXRsZTE0NzIiPkFwcGxlPC90aXRsZT4mI3hhOwkJPGcgaWQ9InNoYXBlMzgxMS0yIiB0cmFuc2Zvcm09InRyYW5zbGF0ZSgyNC4zOTgxLC00LjA2NjM1KSI+JiN4YTsJCQk8dGl0bGUgaWQ9InRpdGxlMTQ3NCI+U2hlZXQuMzgxMTwvdGl0bGU+JiN4YTsJCQk8cmVjdCBpZD0icmVjdDE0NzYiIHg9IjAiIHk9IjY4LjEiIHN0eWxlPSJmaWxsOiMyQzQyNEY7IiB3aWR0aD0iMjUuODciIGhlaWdodD0iMTAuMzQiLz4mI3hhOwkJPC9nPiYjeGE7CQk8ZyBpZD0ic2hhcGUzODEyLTQiIHRyYW5zZm9ybT0idHJhbnNsYXRlKDE1LjI4NTUpIj4mI3hhOwkJCTx0aXRsZSBpZD0idGl0bGUxNDc5Ij5TaGVldC4zODEyPC90aXRsZT4mI3hhOwkJCTxyZWN0IGlkPSJyZWN0MTQ4MSIgeD0iMCIgeT0iNzQuMzciIHN0eWxlPSJmaWxsOiNCQkMyQzY7IiB3aWR0aD0iNDQuMDkiIGhlaWdodD0iNC4wNyIvPiYjeGE7CQk8L2c+JiN4YTsJCTxnIGlkPSJzaGFwZTM4MTMtNiIgdHJhbnNmb3JtPSJ0cmFuc2xhdGUoMCwtMTQuNDAzNykiPiYjeGE7CQkJPHRpdGxlIGlkPSJ0aXRsZTE0ODQiPlNoZWV0LjM4MTM8L3RpdGxlPiYjeGE7CQkJPHBhdGggaWQ9InBhdGgxNDg2IiBpbmtzY2FwZTpjb25uZWN0b3ItY3VydmF0dXJlPSIwIiBzdHlsZT0iZmlsbDojQkJDMkM2OyIgZD0iTTAsNjQuNzJ2MTEuMDdjMCwxLjQ2LDEuMTgsMi42NCwyLjYzLDIuNjQgICAgIGMwLjAxLDAsMC4wMSwwLDAuMDIsMGg2OS4zMmMxLjQ2LDAuMDEsMi42NC0xLjE3LDIuNjUtMi42MmMwLTAuMDEsMC0wLjAxLDAtMC4wMlY2NC43MkgweiIvPiYjeGE7CQk8L2c+JiN4YTsJCTxnIGlkPSJzaGFwZTM4MTQtOCIgdHJhbnNmb3JtPSJ0cmFuc2xhdGUoMC4wNDg5OTIxLC0yOC4xMjE1KSI+JiN4YTsJCQk8dGl0bGUgaWQ9InRpdGxlMTQ4OSI+U2hlZXQuMzgxNDwvdGl0bGU+JiN4YTsJCQk8cGF0aCBpZD0icGF0aDE0OTEiIGlua3NjYXBlOmNvbm5lY3Rvci1jdXJ2YXR1cmU9IjAiIHN0eWxlPSJmaWxsOiM1MjdGOTk7IiBkPSJNNzQuNjIsMzguOGMwLjAxLTEuNDYtMS4xNy0yLjY0LTIuNjItMi42NSAgICAgYy0wLjAxLDAtMC4wMiwwLTAuMDMsMEgyLjY1QzEuMTksMzYuMTQsMC4wMSwzNy4zMiwwLDM4Ljc3YzAsMC4wMSwwLDAuMDIsMCwwLjAzdjM5LjYzaDc0LjYyVjM4Ljh6Ii8+JiN4YTsJCTwvZz4mI3hhOwk8L2c+JiN4YTs8L2c+JiN4YTs8L3N2Zz4=;" parent="1" vertex="1">
          <mxGeometry x="392.9999999999999" y="948" width="32.14" height="30" as="geometry" />
        </mxCell>
        <mxCell id="jaeh_tD_YkiiCiGiNcg3-32" value="" style="sketch=0;points=[[0.5,0,0],[1,0.5,0],[0.5,1,0],[0,0.5,0],[0.145,0.145,0],[0.8555,0.145,0],[0.855,0.8555,0],[0.145,0.855,0]];verticalLabelPosition=bottom;html=1;verticalAlign=top;aspect=fixed;align=center;pointerEvents=1;shape=mxgraph.cisco19.rect;prIcon=router;fillColor=#FAFAFA;strokeColor=#005073;" parent="1" vertex="1">
          <mxGeometry x="342" y="201" width="35" height="35" as="geometry" />
        </mxCell>
        <mxCell id="jaeh_tD_YkiiCiGiNcg3-45" style="edgeStyle=orthogonalEdgeStyle;rounded=0;orthogonalLoop=1;jettySize=auto;html=1;shape=link;" parent="1" source="jaeh_tD_YkiiCiGiNcg3-33" target="jaeh_tD_YkiiCiGiNcg3-41" edge="1">
          <mxGeometry relative="1" as="geometry">
            <Array as="points">
              <mxPoint x="169" y="339" />
              <mxPoint x="169" y="339" />
            </Array>
          </mxGeometry>
        </mxCell>
        <mxCell id="jaeh_tD_YkiiCiGiNcg3-33" value="" style="shape=image;verticalLabelPosition=bottom;labelBackgroundColor=#ffffff;verticalAlign=top;aspect=fixed;imageAspect=0;image=data:image/svg+xml,PHN2ZyB4bWxuczpjYz0iaHR0cDovL2NyZWF0aXZlY29tbW9ucy5vcmcvbnMjIiB4bWxuczpkYz0iaHR0cDovL3B1cmwub3JnL2RjL2VsZW1lbnRzLzEuMS8iIHhtbG5zOmlua3NjYXBlPSJodHRwOi8vd3d3Lmlua3NjYXBlLm9yZy9uYW1lc3BhY2VzL2lua3NjYXBlIiB4bWxuczpyZGY9Imh0dHA6Ly93d3cudzMub3JnLzE5OTkvMDIvMjItcmRmLXN5bnRheC1ucyMiIHhtbG5zOnNvZGlwb2RpPSJodHRwOi8vc29kaXBvZGkuc291cmNlZm9yZ2UubmV0L0RURC9zb2RpcG9kaS0wLmR0ZCIgeG1sbnM6c3ZnPSJodHRwOi8vd3d3LnczLm9yZy8yMDAwL3N2ZyIgeG1sbnM9Imh0dHA6Ly93d3cudzMub3JnLzIwMDAvc3ZnIiB4bWxuczp4bGluaz0iaHR0cDovL3d3dy53My5vcmcvMTk5OS94bGluayIgdmVyc2lvbj0iMS4xIiBpZD0ic3ZnMzExNTkiIGlua3NjYXBlOnZlcnNpb249IjAuOTIuMyAoMjQwNTU0NiwgMjAxOC0wMy0xMSkiIHNvZGlwb2RpOmRvY25hbWU9Im1vbml0b3JfY2xlYW4uc3ZnIiB4PSIwcHgiIHk9IjBweCIgdmlld0JveD0iMCAwIDY0IDQ4LjMyIiBzdHlsZT0iZW5hYmxlLWJhY2tncm91bmQ6bmV3IDAgMCA2NCA0OC4zMjsiIHhtbDpzcGFjZT0icHJlc2VydmUiPiYjeGE7PHNvZGlwb2RpOm5hbWVkdmlldyBib3JkZXJjb2xvcj0iIzY2NjY2NiIgYm9yZGVyb3BhY2l0eT0iMSIgZml0LW1hcmdpbi1ib3R0b209IjAiIGZpdC1tYXJnaW4tbGVmdD0iMCIgZml0LW1hcmdpbi1yaWdodD0iMCIgZml0LW1hcmdpbi10b3A9IjAiIGdyaWR0b2xlcmFuY2U9IjEwIiBndWlkZXRvbGVyYW5jZT0iMTAiIGlkPSJuYW1lZHZpZXczMTE2MSIgaW5rc2NhcGU6Y3VycmVudC1sYXllcj0ic3ZnMzExNTkiIGlua3NjYXBlOmN4PSI0Mi42NjgxMTIiIGlua3NjYXBlOmN5PSIzMi4yMTA1ODQiIGlua3NjYXBlOnBhZ2VvcGFjaXR5PSIwIiBpbmtzY2FwZTpwYWdlc2hhZG93PSIyIiBpbmtzY2FwZTp3aW5kb3ctaGVpZ2h0PSIxMDE3IiBpbmtzY2FwZTp3aW5kb3ctbWF4aW1pemVkPSIxIiBpbmtzY2FwZTp3aW5kb3ctd2lkdGg9IjE5MjAiIGlua3NjYXBlOndpbmRvdy14PSItOCIgaW5rc2NhcGU6d2luZG93LXk9Ii04IiBpbmtzY2FwZTp6b29tPSIxMy40NTYwMTkiIG9iamVjdHRvbGVyYW5jZT0iMTAiIHBhZ2Vjb2xvcj0iI2ZmZmZmZiIgc2hvd2dyaWQ9ImZhbHNlIj4mI3hhOwk8L3NvZGlwb2RpOm5hbWVkdmlldz4mI3hhOzxnIGlkPSJnMzExNTciPiYjeGE7CTx0aXRsZSBpZD0idGl0bGUzMTE0MiI+UGFnZS0xPC90aXRsZT4mI3hhOwk8ZyBpZD0iZ3JvdXAzODk0LTEiPiYjeGE7CQk8dGl0bGUgaWQ9InRpdGxlMzExNDQiPk1vbml0b3IgKENsZWFuKTwvdGl0bGU+JiN4YTsJCTxnIGlkPSJzaGFwZTM4OTUtMiI+JiN4YTsJCQk8dGl0bGUgaWQ9InRpdGxlMzExNDYiPlNoZWV0LjM4OTU8L3RpdGxlPiYjeGE7CQkJPHBhdGggaWQ9InBhdGgzMTE0OCIgaW5rc2NhcGU6Y29ubmVjdG9yLWN1cnZhdHVyZT0iMCIgc3R5bGU9ImZpbGw6IzNGNTc2NTsiIGQ9Ik0wLDQ4LjMyaDY0VjBIMFY0OC4zMnogTTMuODYsNC4yMWg1Ni4zNXYzOS45NyAgICAgSDMuODZWNC4yMXoiLz4mI3hhOwkJPC9nPiYjeGE7CQk8ZyBpZD0ic2hhcGUzODk2LTQiIHRyYW5zZm9ybT0idHJhbnNsYXRlKDI5LjE5NCwtNy44NjY3MikiPiYjeGE7CQkJPHRpdGxlIGlkPSJ0aXRsZTMxMTUxIj5TaGVldC4zODk2PC90aXRsZT4mI3hhOwkJCTxwYXRoIGlkPSJwYXRoMzExNTMiIGlua3NjYXBlOmNvbm5lY3Rvci1jdXJ2YXR1cmU9IjAiIHN0eWxlPSJmaWxsOiMzRjU3NjU7IiBkPSJNMCw0My44M3Y0LjQ5aDQuNDl2LTQuNDlIMHoiLz4mI3hhOwkJPC9nPiYjeGE7CTwvZz4mI3hhOzwvZz4mI3hhOzwvc3ZnPg==;" parent="1" vertex="1">
          <mxGeometry x="163.67000000000002" y="292" width="29.33" height="22" as="geometry" />
        </mxCell>
        <mxCell id="jaeh_tD_YkiiCiGiNcg3-46" style="rounded=0;orthogonalLoop=1;jettySize=auto;html=1;entryX=0.75;entryY=0;entryDx=0;entryDy=0;shape=link;" parent="1" source="jaeh_tD_YkiiCiGiNcg3-34" target="jaeh_tD_YkiiCiGiNcg3-42" edge="1">
          <mxGeometry relative="1" as="geometry" />
        </mxCell>
        <mxCell id="jaeh_tD_YkiiCiGiNcg3-34" value="" style="shape=image;verticalLabelPosition=bottom;labelBackgroundColor=#ffffff;verticalAlign=top;aspect=fixed;imageAspect=0;image=data:image/svg+xml,PHN2ZyB4bWxuczpjYz0iaHR0cDovL2NyZWF0aXZlY29tbW9ucy5vcmcvbnMjIiB4bWxuczpkYz0iaHR0cDovL3B1cmwub3JnL2RjL2VsZW1lbnRzLzEuMS8iIHhtbG5zOmlua3NjYXBlPSJodHRwOi8vd3d3Lmlua3NjYXBlLm9yZy9uYW1lc3BhY2VzL2lua3NjYXBlIiB4bWxuczpyZGY9Imh0dHA6Ly93d3cudzMub3JnLzE5OTkvMDIvMjItcmRmLXN5bnRheC1ucyMiIHhtbG5zOnNvZGlwb2RpPSJodHRwOi8vc29kaXBvZGkuc291cmNlZm9yZ2UubmV0L0RURC9zb2RpcG9kaS0wLmR0ZCIgeG1sbnM6c3ZnPSJodHRwOi8vd3d3LnczLm9yZy8yMDAwL3N2ZyIgeG1sbnM9Imh0dHA6Ly93d3cudzMub3JnLzIwMDAvc3ZnIiB4bWxuczp4bGluaz0iaHR0cDovL3d3dy53My5vcmcvMTk5OS94bGluayIgdmVyc2lvbj0iMS4xIiBpZD0ic3ZnMzExNTkiIGlua3NjYXBlOnZlcnNpb249IjAuOTIuMyAoMjQwNTU0NiwgMjAxOC0wMy0xMSkiIHNvZGlwb2RpOmRvY25hbWU9Im1vbml0b3JfY2xlYW4uc3ZnIiB4PSIwcHgiIHk9IjBweCIgdmlld0JveD0iMCAwIDY0IDQ4LjMyIiBzdHlsZT0iZW5hYmxlLWJhY2tncm91bmQ6bmV3IDAgMCA2NCA0OC4zMjsiIHhtbDpzcGFjZT0icHJlc2VydmUiPiYjeGE7PHNvZGlwb2RpOm5hbWVkdmlldyBib3JkZXJjb2xvcj0iIzY2NjY2NiIgYm9yZGVyb3BhY2l0eT0iMSIgZml0LW1hcmdpbi1ib3R0b209IjAiIGZpdC1tYXJnaW4tbGVmdD0iMCIgZml0LW1hcmdpbi1yaWdodD0iMCIgZml0LW1hcmdpbi10b3A9IjAiIGdyaWR0b2xlcmFuY2U9IjEwIiBndWlkZXRvbGVyYW5jZT0iMTAiIGlkPSJuYW1lZHZpZXczMTE2MSIgaW5rc2NhcGU6Y3VycmVudC1sYXllcj0ic3ZnMzExNTkiIGlua3NjYXBlOmN4PSI0Mi42NjgxMTIiIGlua3NjYXBlOmN5PSIzMi4yMTA1ODQiIGlua3NjYXBlOnBhZ2VvcGFjaXR5PSIwIiBpbmtzY2FwZTpwYWdlc2hhZG93PSIyIiBpbmtzY2FwZTp3aW5kb3ctaGVpZ2h0PSIxMDE3IiBpbmtzY2FwZTp3aW5kb3ctbWF4aW1pemVkPSIxIiBpbmtzY2FwZTp3aW5kb3ctd2lkdGg9IjE5MjAiIGlua3NjYXBlOndpbmRvdy14PSItOCIgaW5rc2NhcGU6d2luZG93LXk9Ii04IiBpbmtzY2FwZTp6b29tPSIxMy40NTYwMTkiIG9iamVjdHRvbGVyYW5jZT0iMTAiIHBhZ2Vjb2xvcj0iI2ZmZmZmZiIgc2hvd2dyaWQ9ImZhbHNlIj4mI3hhOwk8L3NvZGlwb2RpOm5hbWVkdmlldz4mI3hhOzxnIGlkPSJnMzExNTciPiYjeGE7CTx0aXRsZSBpZD0idGl0bGUzMTE0MiI+UGFnZS0xPC90aXRsZT4mI3hhOwk8ZyBpZD0iZ3JvdXAzODk0LTEiPiYjeGE7CQk8dGl0bGUgaWQ9InRpdGxlMzExNDQiPk1vbml0b3IgKENsZWFuKTwvdGl0bGU+JiN4YTsJCTxnIGlkPSJzaGFwZTM4OTUtMiI+JiN4YTsJCQk8dGl0bGUgaWQ9InRpdGxlMzExNDYiPlNoZWV0LjM4OTU8L3RpdGxlPiYjeGE7CQkJPHBhdGggaWQ9InBhdGgzMTE0OCIgaW5rc2NhcGU6Y29ubmVjdG9yLWN1cnZhdHVyZT0iMCIgc3R5bGU9ImZpbGw6IzNGNTc2NTsiIGQ9Ik0wLDQ4LjMyaDY0VjBIMFY0OC4zMnogTTMuODYsNC4yMWg1Ni4zNXYzOS45NyAgICAgSDMuODZWNC4yMXoiLz4mI3hhOwkJPC9nPiYjeGE7CQk8ZyBpZD0ic2hhcGUzODk2LTQiIHRyYW5zZm9ybT0idHJhbnNsYXRlKDI5LjE5NCwtNy44NjY3MikiPiYjeGE7CQkJPHRpdGxlIGlkPSJ0aXRsZTMxMTUxIj5TaGVldC4zODk2PC90aXRsZT4mI3hhOwkJCTxwYXRoIGlkPSJwYXRoMzExNTMiIGlua3NjYXBlOmNvbm5lY3Rvci1jdXJ2YXR1cmU9IjAiIHN0eWxlPSJmaWxsOiMzRjU3NjU7IiBkPSJNMCw0My44M3Y0LjQ5aDQuNDl2LTQuNDlIMHoiLz4mI3hhOwkJPC9nPiYjeGE7CTwvZz4mI3hhOzwvZz4mI3hhOzwvc3ZnPg==;" parent="1" vertex="1">
          <mxGeometry x="196.5" y="292" width="29.33" height="22" as="geometry" />
        </mxCell>
        <mxCell id="jaeh_tD_YkiiCiGiNcg3-51" style="edgeStyle=none;shape=link;rounded=0;orthogonalLoop=1;jettySize=auto;html=1;entryX=0.182;entryY=-0.001;entryDx=0;entryDy=0;entryPerimeter=0;" parent="1" source="jaeh_tD_YkiiCiGiNcg3-37" target="jaeh_tD_YkiiCiGiNcg3-40" edge="1">
          <mxGeometry relative="1" as="geometry" />
        </mxCell>
        <mxCell id="jaeh_tD_YkiiCiGiNcg3-37" value="" style="rounded=0;whiteSpace=wrap;html=1;fillColor=none;" parent="1" vertex="1">
          <mxGeometry x="167.38" y="90" width="120" height="60" as="geometry" />
        </mxCell>
        <mxCell id="jaeh_tD_YkiiCiGiNcg3-35" value="" style="shape=image;verticalLabelPosition=bottom;labelBackgroundColor=#ffffff;verticalAlign=top;aspect=fixed;imageAspect=0;image=data:image/svg+xml,PHN2ZyB4bWxuczpjYz0iaHR0cDovL2NyZWF0aXZlY29tbW9ucy5vcmcvbnMjIiB4bWxuczpkYz0iaHR0cDovL3B1cmwub3JnL2RjL2VsZW1lbnRzLzEuMS8iIHhtbG5zOmlua3NjYXBlPSJodHRwOi8vd3d3Lmlua3NjYXBlLm9yZy9uYW1lc3BhY2VzL2lua3NjYXBlIiB4bWxuczpyZGY9Imh0dHA6Ly93d3cudzMub3JnLzE5OTkvMDIvMjItcmRmLXN5bnRheC1ucyMiIHhtbG5zOnNvZGlwb2RpPSJodHRwOi8vc29kaXBvZGkuc291cmNlZm9yZ2UubmV0L0RURC9zb2RpcG9kaS0wLmR0ZCIgeG1sbnM6c3ZnPSJodHRwOi8vd3d3LnczLm9yZy8yMDAwL3N2ZyIgeG1sbnM9Imh0dHA6Ly93d3cudzMub3JnLzIwMDAvc3ZnIiB4bWxuczp4bGluaz0iaHR0cDovL3d3dy53My5vcmcvMTk5OS94bGluayIgdmVyc2lvbj0iMS4xIiBpZD0ic3ZnMzExNTkiIGlua3NjYXBlOnZlcnNpb249IjAuOTIuMyAoMjQwNTU0NiwgMjAxOC0wMy0xMSkiIHNvZGlwb2RpOmRvY25hbWU9Im1vbml0b3JfY2xlYW4uc3ZnIiB4PSIwcHgiIHk9IjBweCIgdmlld0JveD0iMCAwIDY0IDQ4LjMyIiBzdHlsZT0iZW5hYmxlLWJhY2tncm91bmQ6bmV3IDAgMCA2NCA0OC4zMjsiIHhtbDpzcGFjZT0icHJlc2VydmUiPiYjeGE7PHNvZGlwb2RpOm5hbWVkdmlldyBib3JkZXJjb2xvcj0iIzY2NjY2NiIgYm9yZGVyb3BhY2l0eT0iMSIgZml0LW1hcmdpbi1ib3R0b209IjAiIGZpdC1tYXJnaW4tbGVmdD0iMCIgZml0LW1hcmdpbi1yaWdodD0iMCIgZml0LW1hcmdpbi10b3A9IjAiIGdyaWR0b2xlcmFuY2U9IjEwIiBndWlkZXRvbGVyYW5jZT0iMTAiIGlkPSJuYW1lZHZpZXczMTE2MSIgaW5rc2NhcGU6Y3VycmVudC1sYXllcj0ic3ZnMzExNTkiIGlua3NjYXBlOmN4PSI0Mi42NjgxMTIiIGlua3NjYXBlOmN5PSIzMi4yMTA1ODQiIGlua3NjYXBlOnBhZ2VvcGFjaXR5PSIwIiBpbmtzY2FwZTpwYWdlc2hhZG93PSIyIiBpbmtzY2FwZTp3aW5kb3ctaGVpZ2h0PSIxMDE3IiBpbmtzY2FwZTp3aW5kb3ctbWF4aW1pemVkPSIxIiBpbmtzY2FwZTp3aW5kb3ctd2lkdGg9IjE5MjAiIGlua3NjYXBlOndpbmRvdy14PSItOCIgaW5rc2NhcGU6d2luZG93LXk9Ii04IiBpbmtzY2FwZTp6b29tPSIxMy40NTYwMTkiIG9iamVjdHRvbGVyYW5jZT0iMTAiIHBhZ2Vjb2xvcj0iI2ZmZmZmZiIgc2hvd2dyaWQ9ImZhbHNlIj4mI3hhOwk8L3NvZGlwb2RpOm5hbWVkdmlldz4mI3hhOzxnIGlkPSJnMzExNTciPiYjeGE7CTx0aXRsZSBpZD0idGl0bGUzMTE0MiI+UGFnZS0xPC90aXRsZT4mI3hhOwk8ZyBpZD0iZ3JvdXAzODk0LTEiPiYjeGE7CQk8dGl0bGUgaWQ9InRpdGxlMzExNDQiPk1vbml0b3IgKENsZWFuKTwvdGl0bGU+JiN4YTsJCTxnIGlkPSJzaGFwZTM4OTUtMiI+JiN4YTsJCQk8dGl0bGUgaWQ9InRpdGxlMzExNDYiPlNoZWV0LjM4OTU8L3RpdGxlPiYjeGE7CQkJPHBhdGggaWQ9InBhdGgzMTE0OCIgaW5rc2NhcGU6Y29ubmVjdG9yLWN1cnZhdHVyZT0iMCIgc3R5bGU9ImZpbGw6IzNGNTc2NTsiIGQ9Ik0wLDQ4LjMyaDY0VjBIMFY0OC4zMnogTTMuODYsNC4yMWg1Ni4zNXYzOS45NyAgICAgSDMuODZWNC4yMXoiLz4mI3hhOwkJPC9nPiYjeGE7CQk8ZyBpZD0ic2hhcGUzODk2LTQiIHRyYW5zZm9ybT0idHJhbnNsYXRlKDI5LjE5NCwtNy44NjY3MikiPiYjeGE7CQkJPHRpdGxlIGlkPSJ0aXRsZTMxMTUxIj5TaGVldC4zODk2PC90aXRsZT4mI3hhOwkJCTxwYXRoIGlkPSJwYXRoMzExNTMiIGlua3NjYXBlOmNvbm5lY3Rvci1jdXJ2YXR1cmU9IjAiIHN0eWxlPSJmaWxsOiMzRjU3NjU7IiBkPSJNMCw0My44M3Y0LjQ5aDQuNDl2LTQuNDlIMHoiLz4mI3hhOwkJPC9nPiYjeGE7CTwvZz4mI3hhOzwvZz4mI3hhOzwvc3ZnPg==;" parent="1" vertex="1">
          <mxGeometry x="269.14" y="1016" width="29.33" height="22" as="geometry" />
        </mxCell>
        <mxCell id="jaeh_tD_YkiiCiGiNcg3-36" value="" style="shape=image;verticalLabelPosition=bottom;labelBackgroundColor=#ffffff;verticalAlign=top;aspect=fixed;imageAspect=0;image=data:image/svg+xml,PHN2ZyB4bWxuczpjYz0iaHR0cDovL2NyZWF0aXZlY29tbW9ucy5vcmcvbnMjIiB4bWxuczpkYz0iaHR0cDovL3B1cmwub3JnL2RjL2VsZW1lbnRzLzEuMS8iIHhtbG5zOmlua3NjYXBlPSJodHRwOi8vd3d3Lmlua3NjYXBlLm9yZy9uYW1lc3BhY2VzL2lua3NjYXBlIiB4bWxuczpyZGY9Imh0dHA6Ly93d3cudzMub3JnLzE5OTkvMDIvMjItcmRmLXN5bnRheC1ucyMiIHhtbG5zOnNvZGlwb2RpPSJodHRwOi8vc29kaXBvZGkuc291cmNlZm9yZ2UubmV0L0RURC9zb2RpcG9kaS0wLmR0ZCIgeG1sbnM6c3ZnPSJodHRwOi8vd3d3LnczLm9yZy8yMDAwL3N2ZyIgeG1sbnM9Imh0dHA6Ly93d3cudzMub3JnLzIwMDAvc3ZnIiB4bWxuczp4bGluaz0iaHR0cDovL3d3dy53My5vcmcvMTk5OS94bGluayIgdmVyc2lvbj0iMS4xIiBpZD0ic3ZnMzExNTkiIGlua3NjYXBlOnZlcnNpb249IjAuOTIuMyAoMjQwNTU0NiwgMjAxOC0wMy0xMSkiIHNvZGlwb2RpOmRvY25hbWU9Im1vbml0b3JfY2xlYW4uc3ZnIiB4PSIwcHgiIHk9IjBweCIgdmlld0JveD0iMCAwIDY0IDQ4LjMyIiBzdHlsZT0iZW5hYmxlLWJhY2tncm91bmQ6bmV3IDAgMCA2NCA0OC4zMjsiIHhtbDpzcGFjZT0icHJlc2VydmUiPiYjeGE7PHNvZGlwb2RpOm5hbWVkdmlldyBib3JkZXJjb2xvcj0iIzY2NjY2NiIgYm9yZGVyb3BhY2l0eT0iMSIgZml0LW1hcmdpbi1ib3R0b209IjAiIGZpdC1tYXJnaW4tbGVmdD0iMCIgZml0LW1hcmdpbi1yaWdodD0iMCIgZml0LW1hcmdpbi10b3A9IjAiIGdyaWR0b2xlcmFuY2U9IjEwIiBndWlkZXRvbGVyYW5jZT0iMTAiIGlkPSJuYW1lZHZpZXczMTE2MSIgaW5rc2NhcGU6Y3VycmVudC1sYXllcj0ic3ZnMzExNTkiIGlua3NjYXBlOmN4PSI0Mi42NjgxMTIiIGlua3NjYXBlOmN5PSIzMi4yMTA1ODQiIGlua3NjYXBlOnBhZ2VvcGFjaXR5PSIwIiBpbmtzY2FwZTpwYWdlc2hhZG93PSIyIiBpbmtzY2FwZTp3aW5kb3ctaGVpZ2h0PSIxMDE3IiBpbmtzY2FwZTp3aW5kb3ctbWF4aW1pemVkPSIxIiBpbmtzY2FwZTp3aW5kb3ctd2lkdGg9IjE5MjAiIGlua3NjYXBlOndpbmRvdy14PSItOCIgaW5rc2NhcGU6d2luZG93LXk9Ii04IiBpbmtzY2FwZTp6b29tPSIxMy40NTYwMTkiIG9iamVjdHRvbGVyYW5jZT0iMTAiIHBhZ2Vjb2xvcj0iI2ZmZmZmZiIgc2hvd2dyaWQ9ImZhbHNlIj4mI3hhOwk8L3NvZGlwb2RpOm5hbWVkdmlldz4mI3hhOzxnIGlkPSJnMzExNTciPiYjeGE7CTx0aXRsZSBpZD0idGl0bGUzMTE0MiI+UGFnZS0xPC90aXRsZT4mI3hhOwk8ZyBpZD0iZ3JvdXAzODk0LTEiPiYjeGE7CQk8dGl0bGUgaWQ9InRpdGxlMzExNDQiPk1vbml0b3IgKENsZWFuKTwvdGl0bGU+JiN4YTsJCTxnIGlkPSJzaGFwZTM4OTUtMiI+JiN4YTsJCQk8dGl0bGUgaWQ9InRpdGxlMzExNDYiPlNoZWV0LjM4OTU8L3RpdGxlPiYjeGE7CQkJPHBhdGggaWQ9InBhdGgzMTE0OCIgaW5rc2NhcGU6Y29ubmVjdG9yLWN1cnZhdHVyZT0iMCIgc3R5bGU9ImZpbGw6IzNGNTc2NTsiIGQ9Ik0wLDQ4LjMyaDY0VjBIMFY0OC4zMnogTTMuODYsNC4yMWg1Ni4zNXYzOS45NyAgICAgSDMuODZWNC4yMXoiLz4mI3hhOwkJPC9nPiYjeGE7CQk8ZyBpZD0ic2hhcGUzODk2LTQiIHRyYW5zZm9ybT0idHJhbnNsYXRlKDI5LjE5NCwtNy44NjY3MikiPiYjeGE7CQkJPHRpdGxlIGlkPSJ0aXRsZTMxMTUxIj5TaGVldC4zODk2PC90aXRsZT4mI3hhOwkJCTxwYXRoIGlkPSJwYXRoMzExNTMiIGlua3NjYXBlOmNvbm5lY3Rvci1jdXJ2YXR1cmU9IjAiIHN0eWxlPSJmaWxsOiMzRjU3NjU7IiBkPSJNMCw0My44M3Y0LjQ5aDQuNDl2LTQuNDlIMHoiLz4mI3hhOwkJPC9nPiYjeGE7CTwvZz4mI3hhOzwvZz4mI3hhOzwvc3ZnPg==;" parent="1" vertex="1">
          <mxGeometry x="118" y="879" width="29.33" height="22" as="geometry" />
        </mxCell>
        <mxCell id="jaeh_tD_YkiiCiGiNcg3-40" value="" style="rounded=0;whiteSpace=wrap;html=1;fillColor=none;" parent="1" vertex="1">
          <mxGeometry x="153.47" y="191" width="397" height="158" as="geometry" />
        </mxCell>
        <mxCell id="jaeh_tD_YkiiCiGiNcg3-50" style="edgeStyle=none;shape=link;rounded=0;orthogonalLoop=1;jettySize=auto;html=1;entryX=0.944;entryY=0.009;entryDx=0;entryDy=0;entryPerimeter=0;" parent="1" source="jaeh_tD_YkiiCiGiNcg3-39" target="jaeh_tD_YkiiCiGiNcg3-40" edge="1">
          <mxGeometry relative="1" as="geometry" />
        </mxCell>
        <mxCell id="jaeh_tD_YkiiCiGiNcg3-39" value="" style="rounded=0;whiteSpace=wrap;html=1;fillColor=none;" parent="1" vertex="1">
          <mxGeometry x="469" y="88" width="120" height="60" as="geometry" />
        </mxCell>
        <mxCell id="jaeh_tD_YkiiCiGiNcg3-41" value="" style="shape=image;verticalLabelPosition=bottom;labelBackgroundColor=#ffffff;verticalAlign=top;aspect=fixed;imageAspect=0;image=data:image/svg+xml,PHN2ZyB4bWxuczpjYz0iaHR0cDovL2NyZWF0aXZlY29tbW9ucy5vcmcvbnMjIiB4bWxuczpkYz0iaHR0cDovL3B1cmwub3JnL2RjL2VsZW1lbnRzLzEuMS8iIHhtbG5zOmlua3NjYXBlPSJodHRwOi8vd3d3Lmlua3NjYXBlLm9yZy9uYW1lc3BhY2VzL2lua3NjYXBlIiB4bWxuczpyZGY9Imh0dHA6Ly93d3cudzMub3JnLzE5OTkvMDIvMjItcmRmLXN5bnRheC1ucyMiIHhtbG5zOnNvZGlwb2RpPSJodHRwOi8vc29kaXBvZGkuc291cmNlZm9yZ2UubmV0L0RURC9zb2RpcG9kaS0wLmR0ZCIgeG1sbnM6c3ZnPSJodHRwOi8vd3d3LnczLm9yZy8yMDAwL3N2ZyIgeG1sbnM9Imh0dHA6Ly93d3cudzMub3JnLzIwMDAvc3ZnIiB4bWxuczp4bGluaz0iaHR0cDovL3d3dy53My5vcmcvMTk5OS94bGluayIgdmVyc2lvbj0iMS4xIiBpZD0ic3ZnMzExNTkiIGlua3NjYXBlOnZlcnNpb249IjAuOTIuMyAoMjQwNTU0NiwgMjAxOC0wMy0xMSkiIHNvZGlwb2RpOmRvY25hbWU9Im1vbml0b3JfY2xlYW4uc3ZnIiB4PSIwcHgiIHk9IjBweCIgdmlld0JveD0iMCAwIDY0IDQ4LjMyIiBzdHlsZT0iZW5hYmxlLWJhY2tncm91bmQ6bmV3IDAgMCA2NCA0OC4zMjsiIHhtbDpzcGFjZT0icHJlc2VydmUiPiYjeGE7PHNvZGlwb2RpOm5hbWVkdmlldyBib3JkZXJjb2xvcj0iIzY2NjY2NiIgYm9yZGVyb3BhY2l0eT0iMSIgZml0LW1hcmdpbi1ib3R0b209IjAiIGZpdC1tYXJnaW4tbGVmdD0iMCIgZml0LW1hcmdpbi1yaWdodD0iMCIgZml0LW1hcmdpbi10b3A9IjAiIGdyaWR0b2xlcmFuY2U9IjEwIiBndWlkZXRvbGVyYW5jZT0iMTAiIGlkPSJuYW1lZHZpZXczMTE2MSIgaW5rc2NhcGU6Y3VycmVudC1sYXllcj0ic3ZnMzExNTkiIGlua3NjYXBlOmN4PSI0Mi42NjgxMTIiIGlua3NjYXBlOmN5PSIzMi4yMTA1ODQiIGlua3NjYXBlOnBhZ2VvcGFjaXR5PSIwIiBpbmtzY2FwZTpwYWdlc2hhZG93PSIyIiBpbmtzY2FwZTp3aW5kb3ctaGVpZ2h0PSIxMDE3IiBpbmtzY2FwZTp3aW5kb3ctbWF4aW1pemVkPSIxIiBpbmtzY2FwZTp3aW5kb3ctd2lkdGg9IjE5MjAiIGlua3NjYXBlOndpbmRvdy14PSItOCIgaW5rc2NhcGU6d2luZG93LXk9Ii04IiBpbmtzY2FwZTp6b29tPSIxMy40NTYwMTkiIG9iamVjdHRvbGVyYW5jZT0iMTAiIHBhZ2Vjb2xvcj0iI2ZmZmZmZiIgc2hvd2dyaWQ9ImZhbHNlIj4mI3hhOwk8L3NvZGlwb2RpOm5hbWVkdmlldz4mI3hhOzxnIGlkPSJnMzExNTciPiYjeGE7CTx0aXRsZSBpZD0idGl0bGUzMTE0MiI+UGFnZS0xPC90aXRsZT4mI3hhOwk8ZyBpZD0iZ3JvdXAzODk0LTEiPiYjeGE7CQk8dGl0bGUgaWQ9InRpdGxlMzExNDQiPk1vbml0b3IgKENsZWFuKTwvdGl0bGU+JiN4YTsJCTxnIGlkPSJzaGFwZTM4OTUtMiI+JiN4YTsJCQk8dGl0bGUgaWQ9InRpdGxlMzExNDYiPlNoZWV0LjM4OTU8L3RpdGxlPiYjeGE7CQkJPHBhdGggaWQ9InBhdGgzMTE0OCIgaW5rc2NhcGU6Y29ubmVjdG9yLWN1cnZhdHVyZT0iMCIgc3R5bGU9ImZpbGw6IzNGNTc2NTsiIGQ9Ik0wLDQ4LjMyaDY0VjBIMFY0OC4zMnogTTMuODYsNC4yMWg1Ni4zNXYzOS45NyAgICAgSDMuODZWNC4yMXoiLz4mI3hhOwkJPC9nPiYjeGE7CQk8ZyBpZD0ic2hhcGUzODk2LTQiIHRyYW5zZm9ybT0idHJhbnNsYXRlKDI5LjE5NCwtNy44NjY3MikiPiYjeGE7CQkJPHRpdGxlIGlkPSJ0aXRsZTMxMTUxIj5TaGVldC4zODk2PC90aXRsZT4mI3hhOwkJCTxwYXRoIGlkPSJwYXRoMzExNTMiIGlua3NjYXBlOmNvbm5lY3Rvci1jdXJ2YXR1cmU9IjAiIHN0eWxlPSJmaWxsOiMzRjU3NjU7IiBkPSJNMCw0My44M3Y0LjQ5aDQuNDl2LTQuNDlIMHoiLz4mI3hhOwkJPC9nPiYjeGE7CTwvZz4mI3hhOzwvZz4mI3hhOzwvc3ZnPg==;" parent="1" vertex="1">
          <mxGeometry x="153.99999999999997" y="405" width="29.33" height="22" as="geometry" />
        </mxCell>
        <mxCell id="jaeh_tD_YkiiCiGiNcg3-42" value="" style="shape=image;verticalLabelPosition=bottom;labelBackgroundColor=#ffffff;verticalAlign=top;aspect=fixed;imageAspect=0;image=data:image/svg+xml,PHN2ZyB4bWxuczpjYz0iaHR0cDovL2NyZWF0aXZlY29tbW9ucy5vcmcvbnMjIiB4bWxuczpkYz0iaHR0cDovL3B1cmwub3JnL2RjL2VsZW1lbnRzLzEuMS8iIHhtbG5zOmlua3NjYXBlPSJodHRwOi8vd3d3Lmlua3NjYXBlLm9yZy9uYW1lc3BhY2VzL2lua3NjYXBlIiB4bWxuczpyZGY9Imh0dHA6Ly93d3cudzMub3JnLzE5OTkvMDIvMjItcmRmLXN5bnRheC1ucyMiIHhtbG5zOnNvZGlwb2RpPSJodHRwOi8vc29kaXBvZGkuc291cmNlZm9yZ2UubmV0L0RURC9zb2RpcG9kaS0wLmR0ZCIgeG1sbnM6c3ZnPSJodHRwOi8vd3d3LnczLm9yZy8yMDAwL3N2ZyIgeG1sbnM9Imh0dHA6Ly93d3cudzMub3JnLzIwMDAvc3ZnIiB4bWxuczp4bGluaz0iaHR0cDovL3d3dy53My5vcmcvMTk5OS94bGluayIgdmVyc2lvbj0iMS4xIiBpZD0ic3ZnMzExNTkiIGlua3NjYXBlOnZlcnNpb249IjAuOTIuMyAoMjQwNTU0NiwgMjAxOC0wMy0xMSkiIHNvZGlwb2RpOmRvY25hbWU9Im1vbml0b3JfY2xlYW4uc3ZnIiB4PSIwcHgiIHk9IjBweCIgdmlld0JveD0iMCAwIDY0IDQ4LjMyIiBzdHlsZT0iZW5hYmxlLWJhY2tncm91bmQ6bmV3IDAgMCA2NCA0OC4zMjsiIHhtbDpzcGFjZT0icHJlc2VydmUiPiYjeGE7PHNvZGlwb2RpOm5hbWVkdmlldyBib3JkZXJjb2xvcj0iIzY2NjY2NiIgYm9yZGVyb3BhY2l0eT0iMSIgZml0LW1hcmdpbi1ib3R0b209IjAiIGZpdC1tYXJnaW4tbGVmdD0iMCIgZml0LW1hcmdpbi1yaWdodD0iMCIgZml0LW1hcmdpbi10b3A9IjAiIGdyaWR0b2xlcmFuY2U9IjEwIiBndWlkZXRvbGVyYW5jZT0iMTAiIGlkPSJuYW1lZHZpZXczMTE2MSIgaW5rc2NhcGU6Y3VycmVudC1sYXllcj0ic3ZnMzExNTkiIGlua3NjYXBlOmN4PSI0Mi42NjgxMTIiIGlua3NjYXBlOmN5PSIzMi4yMTA1ODQiIGlua3NjYXBlOnBhZ2VvcGFjaXR5PSIwIiBpbmtzY2FwZTpwYWdlc2hhZG93PSIyIiBpbmtzY2FwZTp3aW5kb3ctaGVpZ2h0PSIxMDE3IiBpbmtzY2FwZTp3aW5kb3ctbWF4aW1pemVkPSIxIiBpbmtzY2FwZTp3aW5kb3ctd2lkdGg9IjE5MjAiIGlua3NjYXBlOndpbmRvdy14PSItOCIgaW5rc2NhcGU6d2luZG93LXk9Ii04IiBpbmtzY2FwZTp6b29tPSIxMy40NTYwMTkiIG9iamVjdHRvbGVyYW5jZT0iMTAiIHBhZ2Vjb2xvcj0iI2ZmZmZmZiIgc2hvd2dyaWQ9ImZhbHNlIj4mI3hhOwk8L3NvZGlwb2RpOm5hbWVkdmlldz4mI3hhOzxnIGlkPSJnMzExNTciPiYjeGE7CTx0aXRsZSBpZD0idGl0bGUzMTE0MiI+UGFnZS0xPC90aXRsZT4mI3hhOwk8ZyBpZD0iZ3JvdXAzODk0LTEiPiYjeGE7CQk8dGl0bGUgaWQ9InRpdGxlMzExNDQiPk1vbml0b3IgKENsZWFuKTwvdGl0bGU+JiN4YTsJCTxnIGlkPSJzaGFwZTM4OTUtMiI+JiN4YTsJCQk8dGl0bGUgaWQ9InRpdGxlMzExNDYiPlNoZWV0LjM4OTU8L3RpdGxlPiYjeGE7CQkJPHBhdGggaWQ9InBhdGgzMTE0OCIgaW5rc2NhcGU6Y29ubmVjdG9yLWN1cnZhdHVyZT0iMCIgc3R5bGU9ImZpbGw6IzNGNTc2NTsiIGQ9Ik0wLDQ4LjMyaDY0VjBIMFY0OC4zMnogTTMuODYsNC4yMWg1Ni4zNXYzOS45NyAgICAgSDMuODZWNC4yMXoiLz4mI3hhOwkJPC9nPiYjeGE7CQk8ZyBpZD0ic2hhcGUzODk2LTQiIHRyYW5zZm9ybT0idHJhbnNsYXRlKDI5LjE5NCwtNy44NjY3MikiPiYjeGE7CQkJPHRpdGxlIGlkPSJ0aXRsZTMxMTUxIj5TaGVldC4zODk2PC90aXRsZT4mI3hhOwkJCTxwYXRoIGlkPSJwYXRoMzExNTMiIGlua3NjYXBlOmNvbm5lY3Rvci1jdXJ2YXR1cmU9IjAiIHN0eWxlPSJmaWxsOiMzRjU3NjU7IiBkPSJNMCw0My44M3Y0LjQ5aDQuNDl2LTQuNDlIMHoiLz4mI3hhOwkJPC9nPiYjeGE7CTwvZz4mI3hhOzwvZz4mI3hhOzwvc3ZnPg==;" parent="1" vertex="1">
          <mxGeometry x="189" y="405" width="29.33" height="22" as="geometry" />
        </mxCell>
        <mxCell id="jaeh_tD_YkiiCiGiNcg3-47" value="" style="aspect=fixed;html=1;points=[];align=center;image;fontSize=12;image=img/lib/azure2/networking/Virtual_Networks.svg;" parent="1" vertex="1">
          <mxGeometry x="550.47" y="67" width="38.53" height="23" as="geometry" />
        </mxCell>
        <mxCell id="jaeh_tD_YkiiCiGiNcg3-49" style="edgeStyle=none;shape=link;rounded=0;orthogonalLoop=1;jettySize=auto;html=1;entryX=1;entryY=0.25;entryDx=0;entryDy=0;" parent="1" source="jaeh_tD_YkiiCiGiNcg3-48" target="jaeh_tD_YkiiCiGiNcg3-40" edge="1">
          <mxGeometry relative="1" as="geometry" />
        </mxCell>
        <mxCell id="jaeh_tD_YkiiCiGiNcg3-48" value="" style="rounded=0;whiteSpace=wrap;html=1;fillColor=none;" parent="1" vertex="1">
          <mxGeometry x="611" y="201" width="120" height="60" as="geometry" />
        </mxCell>
        <mxCell id="jaeh_tD_YkiiCiGiNcg3-54" value="" style="shape=image;verticalLabelPosition=bottom;labelBackgroundColor=#ffffff;verticalAlign=top;aspect=fixed;imageAspect=0;image=data:image/svg+xml,PHN2ZyB4bWxuczpjYz0iaHR0cDovL2NyZWF0aXZlY29tbW9ucy5vcmcvbnMjIiB4bWxuczpkYz0iaHR0cDovL3B1cmwub3JnL2RjL2VsZW1lbnRzLzEuMS8iIHhtbG5zOmlua3NjYXBlPSJodHRwOi8vd3d3Lmlua3NjYXBlLm9yZy9uYW1lc3BhY2VzL2lua3NjYXBlIiB4bWxuczpyZGY9Imh0dHA6Ly93d3cudzMub3JnLzE5OTkvMDIvMjItcmRmLXN5bnRheC1ucyMiIHhtbG5zOnNvZGlwb2RpPSJodHRwOi8vc29kaXBvZGkuc291cmNlZm9yZ2UubmV0L0RURC9zb2RpcG9kaS0wLmR0ZCIgeG1sbnM6c3ZnPSJodHRwOi8vd3d3LnczLm9yZy8yMDAwL3N2ZyIgeG1sbnM9Imh0dHA6Ly93d3cudzMub3JnLzIwMDAvc3ZnIiB4bWxuczp4bGluaz0iaHR0cDovL3d3dy53My5vcmcvMTk5OS94bGluayIgdmVyc2lvbj0iMS4xIiBpZD0ic3ZnMTM5Mzg4IiBpbmtzY2FwZTp2ZXJzaW9uPSIwLjkyLjMgKDI0MDU1NDYsIDIwMTgtMDMtMTEpIiBzb2RpcG9kaTpkb2NuYW1lPSJhenVyZV92bS5zdmciIHg9IjBweCIgeT0iMHB4IiB2aWV3Qm94PSIwIDAgNDIuMjIgMzkuMyIgc3R5bGU9ImVuYWJsZS1iYWNrZ3JvdW5kOm5ldyAwIDAgNDIuMjIgMzkuMzsiIHhtbDpzcGFjZT0icHJlc2VydmUiPiYjeGE7PHNvZGlwb2RpOm5hbWVkdmlldyBib3JkZXJjb2xvcj0iIzY2NjY2NiIgYm9yZGVyb3BhY2l0eT0iMSIgZml0LW1hcmdpbi1ib3R0b209IjAiIGZpdC1tYXJnaW4tbGVmdD0iMCIgZml0LW1hcmdpbi1yaWdodD0iMCIgZml0LW1hcmdpbi10b3A9IjAiIGdyaWR0b2xlcmFuY2U9IjEwIiBndWlkZXRvbGVyYW5jZT0iMTAiIGlkPSJuYW1lZHZpZXcxMzkzOTAiIGlua3NjYXBlOmN1cnJlbnQtbGF5ZXI9InN2ZzEzOTM4OCIgaW5rc2NhcGU6Y3g9IjI4LjE0NDg0NyIgaW5rc2NhcGU6Y3k9IjI2LjIwMjY0OCIgaW5rc2NhcGU6cGFnZW9wYWNpdHk9IjAiIGlua3NjYXBlOnBhZ2VzaGFkb3c9IjIiIGlua3NjYXBlOndpbmRvdy1oZWlnaHQ9IjEwMTciIGlua3NjYXBlOndpbmRvdy1tYXhpbWl6ZWQ9IjEiIGlua3NjYXBlOndpbmRvdy13aWR0aD0iMTkyMCIgaW5rc2NhcGU6d2luZG93LXg9Ii04IiBpbmtzY2FwZTp3aW5kb3cteT0iLTgiIGlua3NjYXBlOnpvb209IjE2LjU0NzQ4IiBvYmplY3R0b2xlcmFuY2U9IjEwIiBwYWdlY29sb3I9IiNmZmZmZmYiIHNob3dncmlkPSJmYWxzZSI+JiN4YTsJPC9zb2RpcG9kaTpuYW1lZHZpZXc+JiN4YTs8ZyBpZD0iZzEzOTM4NiIgdHJhbnNmb3JtPSJ0cmFuc2xhdGUoMCwtMC4wMDE3OCkiPiYjeGE7CTx0aXRsZSBpZD0idGl0bGUxMzkzNTEiPlBhZ2UtMTwvdGl0bGU+JiN4YTsJPGcgaWQ9Imdyb3VwOTY2NC0xIj4mI3hhOwkJPHRpdGxlIGlkPSJ0aXRsZTEzOTM1MyI+QXp1cmUgVk08L3RpdGxlPiYjeGE7CQk8ZyBpZD0ic2hhcGU5NjY1LTIiIHRyYW5zZm9ybT0idHJhbnNsYXRlKDIuOTU1MjEsLTEwLjMwOTQpIj4mI3hhOwkJCTx0aXRsZSBpZD0idGl0bGUxMzkzNTUiPlNoZWV0Ljk2NjU8L3RpdGxlPiYjeGE7CQkJPHBhdGggaWQ9InBhdGgxMzkzNTciIGlua3NjYXBlOmNvbm5lY3Rvci1jdXJ2YXR1cmU9IjAiIHN0eWxlPSJmaWxsOiMwMEJCRjE7IiBkPSJNMzcuMzMsMTIuOTdWMzkuM0gwVjEyLjk3bDM3LjM5LTAuMDggICAgIEwzNy4zMywxMi45N3oiLz4mI3hhOwkJPC9nPiYjeGE7CQk8ZyBpZD0ic2hhcGU5NjY2LTQiIHRyYW5zZm9ybT0idHJhbnNsYXRlKDcuMTc2OTMpIj4mI3hhOwkJCTx0aXRsZSBpZD0idGl0bGUxMzkzNjAiPlNoZWV0Ljk2NjY8L3RpdGxlPiYjeGE7CQkJPHBhdGggaWQ9InBhdGgxMzkzNjIiIGlua3NjYXBlOmNvbm5lY3Rvci1jdXJ2YXR1cmU9IjAiIHN0eWxlPSJmaWxsOiM5MTkxOTE7IiBkPSJNMjAuMjYsMzEuMjdjLTEuMDUsMC0xLjA1LDAtMS4wNSwwICAgICBjLTkuOTcsMC05Ljk3LDAtOS45NywwYy0wLjU2LDAtMC41NiwwLTAuNTYsMGMxLjM3LDQuODMtMC41LDUuNTQtOC42OCw1LjU0YzAsMi40OSwwLDIuNDksMCwyLjQ5YzEwLjQ4LDAsMTAuNDgsMCwxMC40OCwwICAgICBjNy41OSwwLDcuNTksMCw3LjU5LDBjOS43OSwwLDkuNzksMCw5Ljc5LDBjMC0yLjQ5LDAtMi40OSwwLTIuNDlDMTkuNzEsMzYuODEsMTguODksMzYuMSwyMC4yNiwzMS4yN3oiLz4mI3hhOwkJPC9nPiYjeGE7CQk8ZyBpZD0ic2hhcGU5NjY3LTYiIHRyYW5zZm9ybT0idHJhbnNsYXRlKDAsLTguMDI4MjIpIj4mI3hhOwkJCTx0aXRsZSBpZD0idGl0bGUxMzkzNjUiPlNoZWV0Ljk2Njc8L3RpdGxlPiYjeGE7CQkJPHBhdGggaWQ9InBhdGgxMzkzNjciIGlua3NjYXBlOmNvbm5lY3Rvci1jdXJ2YXR1cmU9IjAiIHN0eWxlPSJmaWxsOiNDNUM1QzU7IiBkPSJNMzkuNjMsOC4wM2MtMzcuMjYsMC0zNy4yNiwwLTM3LjI2LDAgICAgIEMxLjA2LDguMDMsMCw5LjE5LDAsMTAuNTFjMCwyNi40MSwwLDI2LjQxLDAsMjYuNDFjMCwxLjMyLDEuMDYsMi4zOCwyLjM3LDIuMzhjMzcuMjYsMCwzNy4yNiwwLDM3LjI2LDAgICAgIGMxLjI5LDAsMi41OS0xLjA2LDIuNTktMi4zOGMwLTI2LjQxLDAtMjYuNDEsMC0yNi40MUM0Mi4yMiw5LjE5LDQwLjkyLDguMDMsMzkuNjMsOC4wM3ogTTM5LDExLjMzYzAsMjQuNjksMCwyNC42OSwwLDI0LjY5ICAgICBjLTM1Ljc1LDAtMzUuNzUsMC0zNS43NSwwYzAtMjQuNjksMC0yNC42OSwwLTI0LjY5YzM1LjgzLTAuMDgsMzUuODMtMC4wOCwzNS44My0wLjA4TDM5LDExLjMzeiIvPiYjeGE7CQk8L2c+JiN4YTsJCTxnIGlkPSJzaGFwZTk2NjgtOCIgdHJhbnNmb3JtPSJ0cmFuc2xhdGUoMTMuNTA5NSwtMjQuMDg0NykiPiYjeGE7CQkJPHRpdGxlIGlkPSJ0aXRsZTEzOTM3MCI+U2hlZXQuOTY2ODwvdGl0bGU+JiN4YTsJCQk8cGF0aCBpZD0icGF0aDEzOTM3MiIgaW5rc2NhcGU6Y29ubmVjdG9yLWN1cnZhdHVyZT0iMCIgc3R5bGU9ImZpbGw6I0U2RjhGRTsiIGQ9Ik03LjYsMzAuNDJjLTAuMDgsMC0wLjA4LDAtMC4xNiwwICAgICBjLTcuMzMsNC4yNS03LjMzLDQuMjUtNy4zMyw0LjI1QzAsMzQuNjcsMCwzNC43NSwwLDM0LjgzczAsMC4xNiwwLjExLDAuMjRjNy40MSw0LjIzLDcuNDEsNC4yMyw3LjQxLDQuMjNINy42ICAgICBjMC4xLDAsMC4xLDAsMC4xOCwwYzcuMzQtNC4yMyw3LjM0LTQuMjMsNy4zNC00LjIzYzAuMDgsMCwwLjA4LTAuMDgsMC4wOC0wLjE2YzAtMC4wOCwwLTAuMTYtMC4wOC0wLjI0ICAgICBDNy43LDMwLjQyLDcuNywzMC40Miw3LjcsMzAuNDJINy42eiIvPiYjeGE7CQk8L2c+JiN4YTsJCTxnIGlkPSJzaGFwZTk2NjktMTAiIHRyYW5zZm9ybT0idHJhbnNsYXRlKDEyLjI0MywtMTMuNTIxMikiPiYjeGE7CQkJPHRpdGxlIGlkPSJ0aXRsZTEzOTM3NSI+U2hlZXQuOTY2OTwvdGl0bGU+JiN4YTsJCQk8cGF0aCBpZD0icGF0aDEzOTM3NyIgaW5rc2NhcGU6Y29ubmVjdG9yLWN1cnZhdHVyZT0iMCIgc3R5bGU9ImZpbGw6I0NDRjFGQzsiIGQ9Ik0wLjI2LDI1Ljc3Yy0wLjA4LDAtMC4wOCwwLTAuMTUsMCAgICAgQzAsMjUuNzcsMCwyNS44OCwwLDI1Ljk2YzAsOC43NCwwLDguNzQsMCw4Ljc0YzAsMC4wOCwwLDAuMTYsMC4xMSwwLjI0YzcuNTksNC4yOCw3LjU5LDQuMjgsNy41OSw0LjI4ICAgICBjMCwwLjA4LDAuMDgsMC4wOCwwLjA4LDAuMDhjMC4wOCwwLDAuMDgsMCwwLjE2LTAuMDhjMCwwLDAuMDgtMC4wOCwwLjA4LTAuMTZjMC04Ljc0LDAtOC43NCwwLTguNzRjMC0wLjA4LTAuMDgtMC4xNi0wLjA4LTAuMTYgICAgIGMtNy42LTQuMzktNy42LTQuMzktNy42LTQuMzlTMC4yNiwyNS43NywwLjI2LDI1Ljc3eiIvPiYjeGE7CQk8L2c+JiN4YTsJCTxnIGlkPSJzaGFwZTk2NzAtMTIiIHRyYW5zZm9ybT0idHJhbnNsYXRlKDIxLjk1MywtMTMuNTIxMikiPiYjeGE7CQkJPHRpdGxlIGlkPSJ0aXRsZTEzOTM4MCI+U2hlZXQuOTY3MDwvdGl0bGU+JiN4YTsJCQk8cGF0aCBpZD0icGF0aDEzOTM4MiIgaW5rc2NhcGU6Y29ubmVjdG9yLWN1cnZhdHVyZT0iMCIgc3R5bGU9ImZpbGw6IzgwRERGODsiIGQ9Ik03LjM5LDI1Ljc3YzAsMC0wLjA4LDAtMC4wOCwwLjExICAgICBjLTcuMTUsNC4yOC03LjE1LDQuMjgtNy4xNSw0LjI4QzAuMDgsMzAuMjQsMCwzMC4zMiwwLDMwLjRjMCw4LjY2LDAsOC42NiwwLDguNjZjMCwwLjA4LDAuMDgsMC4xNiwwLjE2LDAuMTYgICAgIGMwLDAuMDgsMCwwLjA4LDAuMDgsMC4wOGMwLDAsMC4wOCwwLDAuMDgtMC4wOGM3LjItNC4yOCw3LjItNC4yOCw3LjItNC4yOEM3LjYsMzQuODYsNy42LDM0Ljc4LDcuNiwzNC43YzAtOC42NiwwLTguNjYsMC04LjY2ICAgICBjMC0wLjA4LDAtMC4xNi0wLjA4LTAuMTZDNy40NywyNS43Nyw3LjQ3LDI1Ljc3LDcuMzksMjUuNzd6Ii8+JiN4YTsJCTwvZz4mI3hhOwk8L2c+JiN4YTs8L2c+JiN4YTs8L3N2Zz4=;fillColor=none;" parent="1" vertex="1">
          <mxGeometry x="660" y="208" width="30.15" height="28" as="geometry" />
        </mxCell>
        <mxCell id="TFXRxLMYQwhR_krqN7YL-1" value="Vnet-A" style="text;html=1;align=center;verticalAlign=middle;resizable=0;points=[];autosize=1;strokeColor=none;fillColor=none;" parent="1" vertex="1">
          <mxGeometry x="167.38" y="72.5" width="47" height="18" as="geometry" />
        </mxCell>
        <mxCell id="TFXRxLMYQwhR_krqN7YL-2" value="Vnet-B" style="text;html=1;align=center;verticalAlign=middle;resizable=0;points=[];autosize=1;strokeColor=none;fillColor=none;" parent="1" vertex="1">
          <mxGeometry x="476" y="69.5" width="47" height="18" as="geometry" />
        </mxCell>
        <mxCell id="TFXRxLMYQwhR_krqN7YL-3" value="Vnet-C" style="text;html=1;align=center;verticalAlign=middle;resizable=0;points=[];autosize=1;strokeColor=none;fillColor=none;" parent="1" vertex="1">
          <mxGeometry x="651.5799999999999" y="265" width="47" height="18" as="geometry" />
        </mxCell>
        <mxCell id="TFXRxLMYQwhR_krqN7YL-4" value="On-prem Location" style="text;html=1;align=center;verticalAlign=middle;resizable=0;points=[];autosize=1;strokeColor=none;fillColor=none;" parent="1" vertex="1">
          <mxGeometry x="130.45000000000005" y="543" width="106" height="18" as="geometry" />
        </mxCell>
        <mxCell id="TFXRxLMYQwhR_krqN7YL-5" value="Location - A" style="text;html=1;align=center;verticalAlign=middle;resizable=0;points=[];autosize=1;strokeColor=none;fillColor=none;" parent="1" vertex="1">
          <mxGeometry x="80.47000000000008" y="111" width="73" height="18" as="geometry" />
        </mxCell>
        <mxCell id="TFXRxLMYQwhR_krqN7YL-6" value="Location - B" style="text;html=1;align=center;verticalAlign=middle;resizable=0;points=[];autosize=1;strokeColor=none;fillColor=none;" parent="1" vertex="1">
          <mxGeometry x="389.00000000000006" y="101" width="74" height="18" as="geometry" />
        </mxCell>
        <mxCell id="TFXRxLMYQwhR_krqN7YL-7" value="Location - C" style="text;html=1;align=center;verticalAlign=middle;resizable=0;points=[];autosize=1;strokeColor=none;fillColor=none;" parent="1" vertex="1">
          <mxGeometry x="733" y="213" width="75" height="18" as="geometry" />
        </mxCell>
        <mxCell id="TFXRxLMYQwhR_krqN7YL-8" value="On-prem-vm" style="text;html=1;align=center;verticalAlign=middle;resizable=0;points=[];autosize=1;strokeColor=none;fillColor=none;" parent="1" vertex="1">
          <mxGeometry x="145.19000000000005" y="505" width="77" height="18" as="geometry" />
        </mxCell>
        <mxCell id="TFXRxLMYQwhR_krqN7YL-9" value="VM-A" style="text;html=1;align=center;verticalAlign=middle;resizable=0;points=[];autosize=1;strokeColor=none;fillColor=none;" parent="1" vertex="1">
          <mxGeometry x="173.99999999999991" y="129" width="40" height="18" as="geometry" />
        </mxCell>
        <mxCell id="TFXRxLMYQwhR_krqN7YL-10" value="VM-B" style="text;html=1;align=center;verticalAlign=middle;resizable=0;points=[];autosize=1;strokeColor=none;fillColor=none;" parent="1" vertex="1">
          <mxGeometry x="498.9999999999999" y="130" width="40" height="18" as="geometry" />
        </mxCell>
        <mxCell id="TFXRxLMYQwhR_krqN7YL-11" value="VM-C" style="text;html=1;align=center;verticalAlign=middle;resizable=0;points=[];autosize=1;strokeColor=none;fillColor=none;" parent="1" vertex="1">
          <mxGeometry x="655.0799999999999" y="237" width="41" height="18" as="geometry" />
        </mxCell>
        <mxCell id="TFXRxLMYQwhR_krqN7YL-13" value="vHUB Address Space" style="text;html=1;align=center;verticalAlign=middle;resizable=0;points=[];autosize=1;strokeColor=none;fillColor=none;" parent="1" vertex="1">
          <mxGeometry x="350.9999999999999" y="331" width="125" height="18" as="geometry" />
        </mxCell>
        <mxCell id="TFXRxLMYQwhR_krqN7YL-14" value="vWAN" style="text;html=1;align=center;verticalAlign=middle;resizable=0;points=[];autosize=1;strokeColor=none;fillColor=none;" parent="1" vertex="1">
          <mxGeometry x="473.9999999999999" y="354" width="44" height="18" as="geometry" />
        </mxCell>
        <mxCell id="TFXRxLMYQwhR_krqN7YL-15" value="vHUB-1" style="text;html=1;align=center;verticalAlign=middle;resizable=0;points=[];autosize=1;strokeColor=none;fillColor=none;" parent="1" vertex="1">
          <mxGeometry x="495.9999999999999" y="328" width="52" height="18" as="geometry" />
        </mxCell>
        <mxCell id="TFXRxLMYQwhR_krqN7YL-16" value="Secured HUB" style="text;html=1;align=center;verticalAlign=middle;resizable=0;points=[];autosize=1;strokeColor=none;fillColor=none;" parent="1" vertex="1">
          <mxGeometry x="424.9999999999999" y="286" width="83" height="18" as="geometry" />
        </mxCell>
        <mxCell id="TFXRxLMYQwhR_krqN7YL-17" value="" style="ellipse;whiteSpace=wrap;html=1;" parent="1" vertex="1">
          <mxGeometry x="105.83" y="686" width="120" height="80" as="geometry" />
        </mxCell>
        <mxCell id="TFXRxLMYQwhR_krqN7YL-18" value="" style="ellipse;whiteSpace=wrap;html=1;" parent="1" vertex="1">
          <mxGeometry x="606" y="848" width="120" height="80" as="geometry" />
        </mxCell>
        <mxCell id="TFXRxLMYQwhR_krqN7YL-19" value="" style="ellipse;whiteSpace=wrap;html=1;" parent="1" vertex="1">
          <mxGeometry x="337" y="686" width="120" height="80" as="geometry" />
        </mxCell>
        <mxCell id="TFXRxLMYQwhR_krqN7YL-20" value="" style="ellipse;whiteSpace=wrap;html=1;" parent="1" vertex="1">
          <mxGeometry x="602" y="686" width="120" height="80" as="geometry" />
        </mxCell>
        <mxCell id="TFXRxLMYQwhR_krqN7YL-21" value="" style="shape=flexArrow;endArrow=classic;html=1;rounded=0;" parent="1" edge="1">
          <mxGeometry width="50" height="50" relative="1" as="geometry">
            <mxPoint x="243.11" y="734" as="sourcePoint" />
            <mxPoint x="312" y="734" as="targetPoint" />
          </mxGeometry>
        </mxCell>
        <mxCell id="TFXRxLMYQwhR_krqN7YL-22" value="" style="shape=flexArrow;endArrow=classic;html=1;rounded=0;" parent="1" edge="1">
          <mxGeometry width="50" height="50" relative="1" as="geometry">
            <mxPoint x="490.0000000000001" y="729" as="sourcePoint" />
            <mxPoint x="558.89" y="729" as="targetPoint" />
          </mxGeometry>
        </mxCell>
        <mxCell id="TFXRxLMYQwhR_krqN7YL-23" value="" style="shape=flexArrow;endArrow=classic;html=1;rounded=0;" parent="1" edge="1">
          <mxGeometry width="50" height="50" relative="1" as="geometry">
            <mxPoint x="655.0800000000002" y="784" as="sourcePoint" />
            <mxPoint x="655" y="830" as="targetPoint" />
          </mxGeometry>
        </mxCell>
        <mxCell id="TFXRxLMYQwhR_krqN7YL-24" value="ARM" style="text;html=1;align=center;verticalAlign=middle;resizable=0;points=[];autosize=1;strokeColor=none;fillColor=none;" parent="1" vertex="1">
          <mxGeometry x="147.32999999999998" y="715" width="37" height="18" as="geometry" />
        </mxCell>
        <mxCell id="TFXRxLMYQwhR_krqN7YL-25" value="NRP" style="text;html=1;align=center;verticalAlign=middle;resizable=0;points=[];autosize=1;strokeColor=none;fillColor=none;" parent="1" vertex="1">
          <mxGeometry x="378" y="717" width="35" height="18" as="geometry" />
        </mxCell>
        <mxCell id="TFXRxLMYQwhR_krqN7YL-26" value="GW-Manager" style="text;html=1;align=center;verticalAlign=middle;resizable=0;points=[];autosize=1;strokeColor=none;fillColor=none;" parent="1" vertex="1">
          <mxGeometry x="619" y="717" width="82" height="18" as="geometry" />
        </mxCell>
        <mxCell id="TFXRxLMYQwhR_krqN7YL-28" value="GW-Tenant" style="text;html=1;align=center;verticalAlign=middle;resizable=0;points=[];autosize=1;strokeColor=none;fillColor=none;" parent="1" vertex="1">
          <mxGeometry x="631" y="879" width="70" height="18" as="geometry" />
        </mxCell>
        <mxCell id="_9aK7tR2FCW0y13HPatD-2" value="" style="shape=image;verticalLabelPosition=bottom;labelBackgroundColor=#ffffff;verticalAlign=top;aspect=fixed;imageAspect=0;image=data:image/svg+xml,PHN2ZyB4bWxuczpkYz0iaHR0cDovL3B1cmwub3JnL2RjL2VsZW1lbnRzLzEuMS8iIHhtbG5zOmNjPSJodHRwOi8vY3JlYXRpdmVjb21tb25zLm9yZy9ucyMiIHhtbG5zOnJkZj0iaHR0cDovL3d3dy53My5vcmcvMTk5OS8wMi8yMi1yZGYtc3ludGF4LW5zIyIgeG1sbnM6c3ZnPSJodHRwOi8vd3d3LnczLm9yZy8yMDAwL3N2ZyIgeG1sbnM9Imh0dHA6Ly93d3cudzMub3JnLzIwMDAvc3ZnIiB4bWxuczpzb2RpcG9kaT0iaHR0cDovL3NvZGlwb2RpLnNvdXJjZWZvcmdlLm5ldC9EVEQvc29kaXBvZGktMC5kdGQiIHhtbG5zOmlua3NjYXBlPSJodHRwOi8vd3d3Lmlua3NjYXBlLm9yZy9uYW1lc3BhY2VzL2lua3NjYXBlIiB2ZXJzaW9uPSIxLjEiIGlkPSJzdmc2MTAxMSIgaW5rc2NhcGU6dmVyc2lvbj0iMC45Mi4zICgyNDA1NTQ2LCAyMDE4LTAzLTExKSIgc29kaXBvZGk6ZG9jbmFtZT0iYXp1cmVfcG9ydGFsX3ZpcnR1YWxfbWFjaGluZXMuc3ZnIiB4PSIwcHgiIHk9IjBweCIgdmlld0JveD0iMCAwIDU3LjY0IDUzLjIwMDAwMiIgeG1sOnNwYWNlPSJwcmVzZXJ2ZSIgd2lkdGg9IjU3LjYzOTk5OSIgaGVpZ2h0PSI1My4yMDAwMDEiPjxtZXRhZGF0YSBpZD0ibWV0YWRhdGExMDk5MCI+PHJkZjpSREY+PGNjOldvcmsgcmRmOmFib3V0PSIiPjxkYzpmb3JtYXQ+aW1hZ2Uvc3ZnK3htbDwvZGM6Zm9ybWF0PjxkYzp0eXBlIHJkZjpyZXNvdXJjZT0iaHR0cDovL3B1cmwub3JnL2RjL2RjbWl0eXBlL1N0aWxsSW1hZ2UiLz48ZGM6dGl0bGUvPjwvY2M6V29yaz48L3JkZjpSREY+PC9tZXRhZGF0YT48ZGVmcyBpZD0iZGVmczEwOTg4Ii8+JiN4YTs8ZmlsdGVyIGlkPSJmaWx0ZXJfMiI+JiN4YTsJPGZlR2F1c3NpYW5CbHVyIGlkPSJmZUdhdXNzaWFuQmx1cjYwOTIwIiBzdGREZXZpYXRpb249IjIiLz4mI3hhOzwvZmlsdGVyPiYjeGE7PHNvZGlwb2RpOm5hbWVkdmlldyBib3JkZXJjb2xvcj0iIzY2NjY2NiIgYm9yZGVyb3BhY2l0eT0iMSIgZml0LW1hcmdpbi1ib3R0b209IjAiIGZpdC1tYXJnaW4tbGVmdD0iMCIgZml0LW1hcmdpbi1yaWdodD0iMCIgZml0LW1hcmdpbi10b3A9IjAiIGdyaWR0b2xlcmFuY2U9IjEwIiBndWlkZXRvbGVyYW5jZT0iMTAiIGlkPSJuYW1lZHZpZXc2MTAxMyIgaW5rc2NhcGU6Y3VycmVudC1sYXllcj0ic3ZnNjEwMTEiIGlua3NjYXBlOmN4PSItMzMuMTQzMzAzIiBpbmtzY2FwZTpjeT0iMjQuNjk2NTQ0IiBpbmtzY2FwZTpwYWdlb3BhY2l0eT0iMCIgaW5rc2NhcGU6cGFnZXNoYWRvdz0iMiIgaW5rc2NhcGU6d2luZG93LWhlaWdodD0iMTAxNyIgaW5rc2NhcGU6d2luZG93LW1heGltaXplZD0iMSIgaW5rc2NhcGU6d2luZG93LXdpZHRoPSIxOTIwIiBpbmtzY2FwZTp3aW5kb3cteD0iLTgiIGlua3NjYXBlOndpbmRvdy15PSItOCIgaW5rc2NhcGU6em9vbT0iNS45MTg3NzA5IiBvYmplY3R0b2xlcmFuY2U9IjEwIiBwYWdlY29sb3I9IiNmZmZmZmYiIHNob3dncmlkPSJmYWxzZSI+JiN4YTsJPC9zb2RpcG9kaTpuYW1lZHZpZXc+JiN4YTsmI3hhOzxwYXRoIGlkPSJwYXRoNjA5MzMiIGlua3NjYXBlOmNvbm5lY3Rvci1jdXJ2YXR1cmU9IjAiIHN0eWxlPSJmaWxsOiM3YTdhN2EiIGQ9Ik0gMzcuMzksNDIuMTIgSCAzNi4wMSAyMi40MiAyMS43MSBjIDEuODgsNi42NSAtMC42NSw3LjYgLTExLjczLDcuNiB2IDMuNDggaCAxNC4xIDEwLjI5IDEzLjMgdiAtMy40OCBjIC0xMS4wOCwwIC0xMi4xNywtMC45NSAtMTAuMjgsLTcuNiB6Ii8+JiN4YTsmI3hhOzxwYXRoIGlkPSJwYXRoNjA5NDEiIGlua3NjYXBlOmNvbm5lY3Rvci1jdXJ2YXR1cmU9IjAiIHN0eWxlPSJmaWxsOiNhMGExYTIiIGQ9Ik0gNTQuMTYsMCBIIDMuMTMgQyAxLjQsMCAwLDEuNTUgMCwzLjI4IHYgMzUuNTkgYyAwLDEuNzIgMS40LDMuMjUgMy4xMywzLjI1IGggNTEuMDMgYyAxLjczLDAgMy40OCwtMS41MyAzLjQ4LC0zLjI1IFYgMy4yOCBDIDU3LjY0LDEuNTUgNTUuODksMCA1NC4xNiwwIFoiLz4mI3hhOyYjeGE7PHBhdGggaWQ9InBhdGg2MDk0OSIgaW5rc2NhcGU6Y29ubmVjdG9yLWN1cnZhdHVyZT0iMCIgc3R5bGU9ImZpbGw6I2ZmZmZmZjtmaWxsLW9wYWNpdHk6MC4yIiBkPSJNIDU0LjIsMCBDIDU0LjE5LDAgNTQuMTcsMCA1NC4xNiwwIEggMy4xMyBDIDEuNCwwIDAsMS41NSAwLDMuMjggdiAzNS41OSBjIDAsMS43MiAxLjQsMy4yNSAzLjEzLDMuMjUgaCAxLjIyIHoiLz4mI3hhOyYjeGE7PHJlY3QgaWQ9InJlY3Q2MDk1NyIgeD0iNC4zNjk5OTUxIiB5PSI0LjQ0MDAwMDEiIHN0eWxlPSJmaWxsOiM1OWI0ZDkiIHdpZHRoPSI0OC43Nzk5OTkiIGhlaWdodD0iMzMuMjUiLz4mI3hhOyYjeGE7JiN4YTsmI3hhOzxyZWN0IGlkPSJyZWN0NjA5NzMiIHg9IjkuOTc5OTk1NyIgeT0iNDkuNzIwMDAxIiBzdHlsZT0iZmlsbDojYTBhMWEyIiB3aWR0aD0iMzcuNjg5OTk5IiBoZWlnaHQ9IjMuNDgiLz4mI3hhOyYjeGE7PHBhdGggaWQ9InBhdGg2MDk4MSIgaW5rc2NhcGU6Y29ubmVjdG9yLWN1cnZhdHVyZT0iMCIgc3R5bGU9ImZpbGw6I2I4ZDQzMiIgZD0ibSAyOS40MiwyLjQyIGMgMCwwLjQ1IC0wLjM3LDAuODEgLTAuODIsMC44MSAtMC40NiwwIC0wLjgyLC0wLjM2IC0wLjgyLC0wLjgxIDAsLTAuNDYgMC4zNiwtMC44MiAwLjgyLC0wLjgyIDAuNDUsMCAwLjgyLDAuMzYgMC44MiwwLjgyIHoiLz4mI3hhOyYjeGE7PHBhdGggaWQ9InBhdGg2MDk4OSIgaW5rc2NhcGU6Y29ubmVjdG9yLWN1cnZhdHVyZT0iMCIgc3R5bGU9ImZpbGw6I2ZmZmZmZiIgZD0ibSAyOS40NSwyMC4wNSBjIC0wLjA2LDAgLTAuMTEsLTAuMDEgLTAuMTYsLTAuMDQgTCAxOS4xNCwxNC4xNSBjIC0wLjA5LC0wLjA1IC0wLjE1LC0wLjE2IC0wLjE1LC0wLjI2IDAsLTAuMTEgMC4wNiwtMC4yMiAwLjE1LC0wLjI3IEwgMjkuMjMsNy44IGMgMC4xLC0wLjA1IDAuMjEsLTAuMDUgMC4zLDAgbCAxMC4xNiw1Ljg2IGMgMC4wOSwwLjA1IDAuMTUsMC4xNiAwLjE1LDAuMjcgMCwwLjExIC0wLjA2LDAuMjEgLTAuMTUsMC4yNiBMIDI5LjYsMjAuMDEgYyAtMC4wNSwwLjAzIC0wLjEsMC4wNCAtMC4xNSwwLjA0IHoiLz4mI3hhOyYjeGE7PHBhdGggaWQ9InBhdGg2MDk5NyIgaW5rc2NhcGU6Y29ubmVjdG9yLWN1cnZhdHVyZT0iMCIgc3R5bGU9ImZpbGw6I2ZmZmZmZjtmaWxsLW9wYWNpdHk6MC43IiBkPSJtIDI3Ljk5LDM0LjI5IGMgLTAuMDYsMCAtMC4xMSwtMC4wMSAtMC4xNSwtMC4wNCBMIDE3LjcyLDI4LjQxIGMgLTAuMSwtMC4wNSAtMC4xNiwtMC4xNSAtMC4xNiwtMC4yNiBWIDE2LjQzIGMgMCwtMC4xMSAwLjA2LC0wLjIyIDAuMTYsLTAuMjcgMC4wOSwtMC4wNiAwLjIxLC0wLjA2IDAuMzEsMCBMIDI4LjE0LDIyIGMgMC4wOSwwLjA2IDAuMTUsMC4xNiAwLjE1LDAuMjcgdiAxMS43MiBjIDAsMC4xMSAtMC4wNiwwLjIxIC0wLjE1LDAuMjYgLTAuMDUsMC4wMyAtMC4xLDAuMDQgLTAuMTUsMC4wNCB6Ii8+JiN4YTsmI3hhOzxwYXRoIGlkPSJwYXRoNjEwMDUiIGlua3NjYXBlOmNvbm5lY3Rvci1jdXJ2YXR1cmU9IjAiIHN0eWxlPSJmaWxsOiNmZmZmZmY7ZmlsbC1vcGFjaXR5OjAuNCIgZD0iTSAzMC44NiwzNC4yOSBDIDMwLjgsMzQuMjkgMzAuNzUsMzQuMjggMzAuNywzNC4yNSAzMC42MSwzNC4yIDMwLjU1LDM0LjEgMzAuNTUsMzMuOTkgViAyMi4zNCBjIDAsLTAuMTEgMC4wNiwtMC4yMSAwLjE1LC0wLjI3IGwgMTAuMTIsLTUuODMgYyAwLjA5LC0wLjA2IDAuMjEsLTAuMDYgMC4zLDAgMC4xLDAuMDUgMC4xNiwwLjE1IDAuMTYsMC4yNiB2IDExLjY1IGMgMCwwLjExIC0wLjA2LDAuMjEgLTAuMTYsMC4yNiBsIC0xMC4xMSw1Ljg0IGMgLTAuMDQsMC4wMyAtMC4xLDAuMDQgLTAuMTUsMC4wNCB6Ii8+JiN4YTs8L3N2Zz4=;" vertex="1" parent="1">
          <mxGeometry x="1883.15" y="62" width="32.83" height="30" as="geometry" />
        </mxCell>
        <mxCell id="_9aK7tR2FCW0y13HPatD-3" value="" style="shape=image;verticalLabelPosition=bottom;labelBackgroundColor=#ffffff;verticalAlign=top;aspect=fixed;imageAspect=0;image=data:image/svg+xml,PHN2ZyB4bWxuczpkYz0iaHR0cDovL3B1cmwub3JnL2RjL2VsZW1lbnRzLzEuMS8iIHhtbG5zOmNjPSJodHRwOi8vY3JlYXRpdmVjb21tb25zLm9yZy9ucyMiIHhtbG5zOnJkZj0iaHR0cDovL3d3dy53My5vcmcvMTk5OS8wMi8yMi1yZGYtc3ludGF4LW5zIyIgeG1sbnM6c3ZnPSJodHRwOi8vd3d3LnczLm9yZy8yMDAwL3N2ZyIgeG1sbnM9Imh0dHA6Ly93d3cudzMub3JnLzIwMDAvc3ZnIiB4bWxuczpzb2RpcG9kaT0iaHR0cDovL3NvZGlwb2RpLnNvdXJjZWZvcmdlLm5ldC9EVEQvc29kaXBvZGktMC5kdGQiIHhtbG5zOmlua3NjYXBlPSJodHRwOi8vd3d3Lmlua3NjYXBlLm9yZy9uYW1lc3BhY2VzL2lua3NjYXBlIiB2ZXJzaW9uPSIxLjEiIGlkPSJzdmc2MTAxMSIgaW5rc2NhcGU6dmVyc2lvbj0iMC45Mi4zICgyNDA1NTQ2LCAyMDE4LTAzLTExKSIgc29kaXBvZGk6ZG9jbmFtZT0iYXp1cmVfcG9ydGFsX3ZpcnR1YWxfbWFjaGluZXMuc3ZnIiB4PSIwcHgiIHk9IjBweCIgdmlld0JveD0iMCAwIDU3LjY0IDUzLjIwMDAwMiIgeG1sOnNwYWNlPSJwcmVzZXJ2ZSIgd2lkdGg9IjU3LjYzOTk5OSIgaGVpZ2h0PSI1My4yMDAwMDEiPjxtZXRhZGF0YSBpZD0ibWV0YWRhdGExMDk5MCI+PHJkZjpSREY+PGNjOldvcmsgcmRmOmFib3V0PSIiPjxkYzpmb3JtYXQ+aW1hZ2Uvc3ZnK3htbDwvZGM6Zm9ybWF0PjxkYzp0eXBlIHJkZjpyZXNvdXJjZT0iaHR0cDovL3B1cmwub3JnL2RjL2RjbWl0eXBlL1N0aWxsSW1hZ2UiLz48ZGM6dGl0bGUvPjwvY2M6V29yaz48L3JkZjpSREY+PC9tZXRhZGF0YT48ZGVmcyBpZD0iZGVmczEwOTg4Ii8+JiN4YTs8ZmlsdGVyIGlkPSJmaWx0ZXJfMiI+JiN4YTsJPGZlR2F1c3NpYW5CbHVyIGlkPSJmZUdhdXNzaWFuQmx1cjYwOTIwIiBzdGREZXZpYXRpb249IjIiLz4mI3hhOzwvZmlsdGVyPiYjeGE7PHNvZGlwb2RpOm5hbWVkdmlldyBib3JkZXJjb2xvcj0iIzY2NjY2NiIgYm9yZGVyb3BhY2l0eT0iMSIgZml0LW1hcmdpbi1ib3R0b209IjAiIGZpdC1tYXJnaW4tbGVmdD0iMCIgZml0LW1hcmdpbi1yaWdodD0iMCIgZml0LW1hcmdpbi10b3A9IjAiIGdyaWR0b2xlcmFuY2U9IjEwIiBndWlkZXRvbGVyYW5jZT0iMTAiIGlkPSJuYW1lZHZpZXc2MTAxMyIgaW5rc2NhcGU6Y3VycmVudC1sYXllcj0ic3ZnNjEwMTEiIGlua3NjYXBlOmN4PSItMzMuMTQzMzAzIiBpbmtzY2FwZTpjeT0iMjQuNjk2NTQ0IiBpbmtzY2FwZTpwYWdlb3BhY2l0eT0iMCIgaW5rc2NhcGU6cGFnZXNoYWRvdz0iMiIgaW5rc2NhcGU6d2luZG93LWhlaWdodD0iMTAxNyIgaW5rc2NhcGU6d2luZG93LW1heGltaXplZD0iMSIgaW5rc2NhcGU6d2luZG93LXdpZHRoPSIxOTIwIiBpbmtzY2FwZTp3aW5kb3cteD0iLTgiIGlua3NjYXBlOndpbmRvdy15PSItOCIgaW5rc2NhcGU6em9vbT0iNS45MTg3NzA5IiBvYmplY3R0b2xlcmFuY2U9IjEwIiBwYWdlY29sb3I9IiNmZmZmZmYiIHNob3dncmlkPSJmYWxzZSI+JiN4YTsJPC9zb2RpcG9kaTpuYW1lZHZpZXc+JiN4YTsmI3hhOzxwYXRoIGlkPSJwYXRoNjA5MzMiIGlua3NjYXBlOmNvbm5lY3Rvci1jdXJ2YXR1cmU9IjAiIHN0eWxlPSJmaWxsOiM3YTdhN2EiIGQ9Ik0gMzcuMzksNDIuMTIgSCAzNi4wMSAyMi40MiAyMS43MSBjIDEuODgsNi42NSAtMC42NSw3LjYgLTExLjczLDcuNiB2IDMuNDggaCAxNC4xIDEwLjI5IDEzLjMgdiAtMy40OCBjIC0xMS4wOCwwIC0xMi4xNywtMC45NSAtMTAuMjgsLTcuNiB6Ii8+JiN4YTsmI3hhOzxwYXRoIGlkPSJwYXRoNjA5NDEiIGlua3NjYXBlOmNvbm5lY3Rvci1jdXJ2YXR1cmU9IjAiIHN0eWxlPSJmaWxsOiNhMGExYTIiIGQ9Ik0gNTQuMTYsMCBIIDMuMTMgQyAxLjQsMCAwLDEuNTUgMCwzLjI4IHYgMzUuNTkgYyAwLDEuNzIgMS40LDMuMjUgMy4xMywzLjI1IGggNTEuMDMgYyAxLjczLDAgMy40OCwtMS41MyAzLjQ4LC0zLjI1IFYgMy4yOCBDIDU3LjY0LDEuNTUgNTUuODksMCA1NC4xNiwwIFoiLz4mI3hhOyYjeGE7PHBhdGggaWQ9InBhdGg2MDk0OSIgaW5rc2NhcGU6Y29ubmVjdG9yLWN1cnZhdHVyZT0iMCIgc3R5bGU9ImZpbGw6I2ZmZmZmZjtmaWxsLW9wYWNpdHk6MC4yIiBkPSJNIDU0LjIsMCBDIDU0LjE5LDAgNTQuMTcsMCA1NC4xNiwwIEggMy4xMyBDIDEuNCwwIDAsMS41NSAwLDMuMjggdiAzNS41OSBjIDAsMS43MiAxLjQsMy4yNSAzLjEzLDMuMjUgaCAxLjIyIHoiLz4mI3hhOyYjeGE7PHJlY3QgaWQ9InJlY3Q2MDk1NyIgeD0iNC4zNjk5OTUxIiB5PSI0LjQ0MDAwMDEiIHN0eWxlPSJmaWxsOiM1OWI0ZDkiIHdpZHRoPSI0OC43Nzk5OTkiIGhlaWdodD0iMzMuMjUiLz4mI3hhOyYjeGE7JiN4YTsmI3hhOzxyZWN0IGlkPSJyZWN0NjA5NzMiIHg9IjkuOTc5OTk1NyIgeT0iNDkuNzIwMDAxIiBzdHlsZT0iZmlsbDojYTBhMWEyIiB3aWR0aD0iMzcuNjg5OTk5IiBoZWlnaHQ9IjMuNDgiLz4mI3hhOyYjeGE7PHBhdGggaWQ9InBhdGg2MDk4MSIgaW5rc2NhcGU6Y29ubmVjdG9yLWN1cnZhdHVyZT0iMCIgc3R5bGU9ImZpbGw6I2I4ZDQzMiIgZD0ibSAyOS40MiwyLjQyIGMgMCwwLjQ1IC0wLjM3LDAuODEgLTAuODIsMC44MSAtMC40NiwwIC0wLjgyLC0wLjM2IC0wLjgyLC0wLjgxIDAsLTAuNDYgMC4zNiwtMC44MiAwLjgyLC0wLjgyIDAuNDUsMCAwLjgyLDAuMzYgMC44MiwwLjgyIHoiLz4mI3hhOyYjeGE7PHBhdGggaWQ9InBhdGg2MDk4OSIgaW5rc2NhcGU6Y29ubmVjdG9yLWN1cnZhdHVyZT0iMCIgc3R5bGU9ImZpbGw6I2ZmZmZmZiIgZD0ibSAyOS40NSwyMC4wNSBjIC0wLjA2LDAgLTAuMTEsLTAuMDEgLTAuMTYsLTAuMDQgTCAxOS4xNCwxNC4xNSBjIC0wLjA5LC0wLjA1IC0wLjE1LC0wLjE2IC0wLjE1LC0wLjI2IDAsLTAuMTEgMC4wNiwtMC4yMiAwLjE1LC0wLjI3IEwgMjkuMjMsNy44IGMgMC4xLC0wLjA1IDAuMjEsLTAuMDUgMC4zLDAgbCAxMC4xNiw1Ljg2IGMgMC4wOSwwLjA1IDAuMTUsMC4xNiAwLjE1LDAuMjcgMCwwLjExIC0wLjA2LDAuMjEgLTAuMTUsMC4yNiBMIDI5LjYsMjAuMDEgYyAtMC4wNSwwLjAzIC0wLjEsMC4wNCAtMC4xNSwwLjA0IHoiLz4mI3hhOyYjeGE7PHBhdGggaWQ9InBhdGg2MDk5NyIgaW5rc2NhcGU6Y29ubmVjdG9yLWN1cnZhdHVyZT0iMCIgc3R5bGU9ImZpbGw6I2ZmZmZmZjtmaWxsLW9wYWNpdHk6MC43IiBkPSJtIDI3Ljk5LDM0LjI5IGMgLTAuMDYsMCAtMC4xMSwtMC4wMSAtMC4xNSwtMC4wNCBMIDE3LjcyLDI4LjQxIGMgLTAuMSwtMC4wNSAtMC4xNiwtMC4xNSAtMC4xNiwtMC4yNiBWIDE2LjQzIGMgMCwtMC4xMSAwLjA2LC0wLjIyIDAuMTYsLTAuMjcgMC4wOSwtMC4wNiAwLjIxLC0wLjA2IDAuMzEsMCBMIDI4LjE0LDIyIGMgMC4wOSwwLjA2IDAuMTUsMC4xNiAwLjE1LDAuMjcgdiAxMS43MiBjIDAsMC4xMSAtMC4wNiwwLjIxIC0wLjE1LDAuMjYgLTAuMDUsMC4wMyAtMC4xLDAuMDQgLTAuMTUsMC4wNCB6Ii8+JiN4YTsmI3hhOzxwYXRoIGlkPSJwYXRoNjEwMDUiIGlua3NjYXBlOmNvbm5lY3Rvci1jdXJ2YXR1cmU9IjAiIHN0eWxlPSJmaWxsOiNmZmZmZmY7ZmlsbC1vcGFjaXR5OjAuNCIgZD0iTSAzMC44NiwzNC4yOSBDIDMwLjgsMzQuMjkgMzAuNzUsMzQuMjggMzAuNywzNC4yNSAzMC42MSwzNC4yIDMwLjU1LDM0LjEgMzAuNTUsMzMuOTkgViAyMi4zNCBjIDAsLTAuMTEgMC4wNiwtMC4yMSAwLjE1LC0wLjI3IGwgMTAuMTIsLTUuODMgYyAwLjA5LC0wLjA2IDAuMjEsLTAuMDYgMC4zLDAgMC4xLDAuMDUgMC4xNiwwLjE1IDAuMTYsMC4yNiB2IDExLjY1IGMgMCwwLjExIC0wLjA2LDAuMjEgLTAuMTYsMC4yNiBsIC0xMC4xMSw1Ljg0IGMgLTAuMDQsMC4wMyAtMC4xLDAuMDQgLTAuMTUsMC4wNCB6Ii8+JiN4YTs8L3N2Zz4=;" vertex="1" parent="1">
          <mxGeometry x="1575.53" y="66" width="32.83" height="30" as="geometry" />
        </mxCell>
        <mxCell id="_9aK7tR2FCW0y13HPatD-4" value="" style="shape=image;verticalLabelPosition=bottom;labelBackgroundColor=#ffffff;verticalAlign=top;aspect=fixed;imageAspect=0;image=data:image/svg+xml,PHN2ZyB4bWxuczpjYz0iaHR0cDovL2NyZWF0aXZlY29tbW9ucy5vcmcvbnMjIiB4bWxuczpkYz0iaHR0cDovL3B1cmwub3JnL2RjL2VsZW1lbnRzLzEuMS8iIHhtbG5zOmlua3NjYXBlPSJodHRwOi8vd3d3Lmlua3NjYXBlLm9yZy9uYW1lc3BhY2VzL2lua3NjYXBlIiB4bWxuczpyZGY9Imh0dHA6Ly93d3cudzMub3JnLzE5OTkvMDIvMjItcmRmLXN5bnRheC1ucyMiIHhtbG5zOnNvZGlwb2RpPSJodHRwOi8vc29kaXBvZGkuc291cmNlZm9yZ2UubmV0L0RURC9zb2RpcG9kaS0wLmR0ZCIgeG1sbnM6c3ZnPSJodHRwOi8vd3d3LnczLm9yZy8yMDAwL3N2ZyIgeG1sbnM9Imh0dHA6Ly93d3cudzMub3JnLzIwMDAvc3ZnIiB4bWxuczp4bGluaz0iaHR0cDovL3d3dy53My5vcmcvMTk5OS94bGluayIgdmVyc2lvbj0iMS4xIiBpZD0ic3ZnMTAxNjY1IiBpbmtzY2FwZTp2ZXJzaW9uPSIwLjkyLjMgKDI0MDU1NDYsIDIwMTgtMDMtMTEpIiBzb2RpcG9kaTpkb2NuYW1lPSJ2aXJ0dWFsX3dhbi5zdmciIHg9IjBweCIgeT0iMHB4IiB2aWV3Qm94PSIwIDAgMzUuODUgMzUuODYiIHN0eWxlPSJlbmFibGUtYmFja2dyb3VuZDpuZXcgMCAwIDM1Ljg1IDM1Ljg2OyIgeG1sOnNwYWNlPSJwcmVzZXJ2ZSI+JiN4YTs8c29kaXBvZGk6bmFtZWR2aWV3IGJvcmRlcmNvbG9yPSIjNjY2NjY2IiBib3JkZXJvcGFjaXR5PSIxIiBmaXQtbWFyZ2luLWJvdHRvbT0iMCIgZml0LW1hcmdpbi1sZWZ0PSIwIiBmaXQtbWFyZ2luLXJpZ2h0PSIwIiBmaXQtbWFyZ2luLXRvcD0iMCIgZ3JpZHRvbGVyYW5jZT0iMTAiIGd1aWRldG9sZXJhbmNlPSIxMCIgaWQ9Im5hbWVkdmlldzEwMTY2NyIgaW5rc2NhcGU6Y3VycmVudC1sYXllcj0ic3ZnMTAxNjY1IiBpbmtzY2FwZTpjeD0iNC44OTUzNjM0IiBpbmtzY2FwZTpjeT0iMTcuMTcwMDE4IiBpbmtzY2FwZTpwYWdlb3BhY2l0eT0iMCIgaW5rc2NhcGU6cGFnZXNoYWRvdz0iMiIgaW5rc2NhcGU6d2luZG93LWhlaWdodD0iMTAxNyIgaW5rc2NhcGU6d2luZG93LW1heGltaXplZD0iMSIgaW5rc2NhcGU6d2luZG93LXdpZHRoPSIxOTIwIiBpbmtzY2FwZTp3aW5kb3cteD0iLTgiIGlua3NjYXBlOndpbmRvdy15PSItOCIgaW5rc2NhcGU6em9vbT0iOC43MDQ4MTkxIiBvYmplY3R0b2xlcmFuY2U9IjEwIiBwYWdlY29sb3I9IiNmZmZmZmYiIHNob3dncmlkPSJmYWxzZSI+JiN4YTsJPC9zb2RpcG9kaTpuYW1lZHZpZXc+JiN4YTs8ZyBpZD0iZzEwMTY2MyIgdHJhbnNmb3JtPSJ0cmFuc2xhdGUoLTAuNzUsLTAuNzQ1KSI+JiN4YTsJPHRpdGxlIGlkPSJ0aXRsZTEwMTYwMiI+UGFnZS0xPC90aXRsZT4mI3hhOwk8ZyBpZD0iZ3JvdXA1OTM3LTEiIHRyYW5zZm9ybT0idHJhbnNsYXRlKDAuNzUsLTAuNzUpIj4mI3hhOwkJPHRpdGxlIGlkPSJ0aXRsZTEwMTYwNCI+VmlydHVhbCBXQU48L3RpdGxlPiYjeGE7CQk8ZyBpZD0ic2hhcGU1OTM4LTIiIHRyYW5zZm9ybT0idHJhbnNsYXRlKDAsLTEzLjQyNSkiPiYjeGE7CQkJPHRpdGxlIGlkPSJ0aXRsZTEwMTYwNiI+U2hlZXQuNTkzODwvdGl0bGU+JiN4YTsJCQk8cGF0aCBpZD0icGF0aDEwMTYwOCIgaW5rc2NhcGU6Y29ubmVjdG9yLWN1cnZhdHVyZT0iMCIgc3R5bGU9ImZpbGw6IzU5QjREOTsiIGQ9Ik0yOC44OCwyMy43Yy0wLjAxLDAtMC4wMiwwLTAuMDMsMCAgICAgYy0wLjI2LTQuODktNC4zNy04Ljc4LTkuNDMtOC43OGMtMy43LDAtNi44OSwyLjA4LTguNDUsNS4xMWMtMC42NC0wLjE1LTEuMzItMC4yMy0yLjAxLTAuMjNDNC4wMSwxOS44LDAsMjMuNzMsMCwyOC41NyAgICAgYzAsNC44NSw0LjAxLDguNzgsOC45Niw4Ljc4aDE5LjkyYzMuODUsMCw2Ljk3LTMuMDYsNi45Ny02LjgzQzM1Ljg1LDI2Ljc2LDMyLjczLDIzLjcsMjguODgsMjMuN3oiLz4mI3hhOwkJPC9nPiYjeGE7CQk8ZyBpZD0ic2hhcGU1OTM5LTQiIHRyYW5zZm9ybT0idHJhbnNsYXRlKDAsLTEzLjQyNSkiPiYjeGE7CQkJPHRpdGxlIGlkPSJ0aXRsZTEwMTYxMSI+U2hlZXQuNTkzOTwvdGl0bGU+JiN4YTsJCQk8cGF0aCBpZD0icGF0aDEwMTYxMyIgaW5rc2NhcGU6Y29ubmVjdG9yLWN1cnZhdHVyZT0iMCIgc3R5bGU9ImZpbGw6I0ZGRkZGRjtmaWxsLW9wYWNpdHk6MC4yOyIgZD0iTTI4Ljg4LDIzLjcgICAgIGMtMC4wMSwwLTAuMDIsMC0wLjAzLDBjLTAuMjYtNC44OS00LjM3LTguNzgtOS40My04Ljc4Yy0zLjcsMC02Ljg5LDIuMDgtOC40NSw1LjExYy0wLjY0LTAuMTUtMS4zMi0wLjIzLTIuMDEtMC4yMyAgICAgQzQuMDEsMTkuOCwwLDIzLjczLDAsMjguNTdjMCw0Ljg1LDQuMDEsOC43OCw4Ljk2LDguNzhoMTkuOTJjMy44NSwwLDYuOTctMy4wNiw2Ljk3LTYuODNDMzUuODUsMjYuNzYsMzIuNzMsMjMuNywyOC44OCwyMy43eiIvPiYjeGE7CQk8L2c+JiN4YTsJCTxnIGlkPSJncm91cDU5NDAtNiIgdHJhbnNmb3JtPSJ0cmFuc2xhdGUoNikiPiYjeGE7CQkJPHRpdGxlIGlkPSJ0aXRsZTEwMTYxNiI+U2hlZXQuNTk0MDwvdGl0bGU+JiN4YTsJCQk8ZyBpZD0iZ3JvdXA1OTQxLTciPiYjeGE7CQkJCTx0aXRsZSBpZD0idGl0bGUxMDE2MTgiPlNoZWV0LjU5NDE8L3RpdGxlPiYjeGE7CQkJCTxnIGlkPSJzaGFwZTU5NDItOCIgdHJhbnNmb3JtPSJ0cmFuc2xhdGUoMC41NjI1LC0wLjU2MjUpIj4mI3hhOwkJCQkJPHRpdGxlIGlkPSJ0aXRsZTEwMTYyMCI+U2hlZXQuNTk0MjwvdGl0bGU+JiN4YTsJCQkJCTxwYXRoIGlkPSJwYXRoMTAxNjIyIiBpbmtzY2FwZTpjb25uZWN0b3ItY3VydmF0dXJlPSIwIiBzdHlsZT0iZmlsbDojRkZGRkZGOyIgZD0iTTEyLjExLDM3LjM1QzUuNDMsMzcuMzUsMCwzMS45MiwwLDI1LjI0ICAgICAgIHM1LjQzLTEyLjEyLDEyLjExLTEyLjEyczEyLjEyLDUuNDQsMTIuMTIsMTIuMTJTMTguNzksMzcuMzUsMTIuMTEsMzcuMzV6Ii8+JiN4YTsJCQkJPC9nPiYjeGE7CQkJCTxnIGlkPSJzaGFwZTU5NDMtMTAiPiYjeGE7CQkJCQk8dGl0bGUgaWQ9InRpdGxlMTAxNjI1Ij5TaGVldC41OTQzPC90aXRsZT4mI3hhOwkJCQkJPHBhdGggaWQ9InBhdGgxMDE2MjciIGlua3NjYXBlOmNvbm5lY3Rvci1jdXJ2YXR1cmU9IjAiIHN0eWxlPSJmaWxsOiM4MDQ5OTg7IiBkPSJNMTIuNjgsMTMuMTJjNi4zNiwwLDExLjU1LDUuMTksMTEuNTUsMTEuNTUgICAgICAgYzAsNi4zNy01LjE5LDExLjU1LTExLjU1LDExLjU1Yy02LjM3LDAtMTEuNTUtNS4xOC0xMS41NS0xMS41NUMxLjEzLDE4LjMxLDYuMzEsMTMuMTIsMTIuNjgsMTMuMTJ6IE0xMi42OCwxMiAgICAgICBDNS42NywxMiwwLDE3LjY3LDAsMjQuNjdjMCw3LjAxLDUuNjcsMTIuNjgsMTIuNjgsMTIuNjhjNywwLDEyLjY3LTUuNjcsMTIuNjctMTIuNjhDMjUuMzUsMTcuNjcsMTkuNjgsMTIsMTIuNjgsMTJ6Ii8+JiN4YTsJCQkJPC9nPiYjeGE7CQkJPC9nPiYjeGE7CQkJPGcgaWQ9InNoYXBlNTk0NC0xMiIgdHJhbnNmb3JtPSJyb3RhdGUoLTcwLjAwMTIsLTUuNTYyMTk2NSwyMS40NjM2MzkpIj4mI3hhOwkJCQk8dGl0bGUgaWQ9InRpdGxlMTAxNjMxIj5TaGVldC41OTQ0PC90aXRsZT4mI3hhOwkJCQk8Y2lyY2xlIGlkPSJlbGxpcHNlMTAxNjMzIiBzdHlsZT0iZmlsbDojODA0OTk4OyIgY3g9IjIuMzkiIGN5PSIzNC45NiIgcj0iMi4zOSIvPiYjeGE7CQkJPC9nPiYjeGE7CQkJPGcgaWQ9InNoYXBlNTk0NS0xNCIgdHJhbnNmb3JtPSJyb3RhdGUoLTcwLjAwMTIsNC4zNTk2MzYsMTcuOTAyNjc0KSI+JiN4YTsJCQkJPHRpdGxlIGlkPSJ0aXRsZTEwMTYzNiI+U2hlZXQuNTk0NTwvdGl0bGU+JiN4YTsJCQkJPGNpcmNsZSBpZD0iZWxsaXBzZTEwMTYzOCIgc3R5bGU9ImZpbGw6IzgwNDk5ODsiIGN4PSIyLjM5IiBjeT0iMzQuOTYiIHI9IjIuMzkiLz4mI3hhOwkJCTwvZz4mI3hhOwkJCTxnIGlkPSJzaGFwZTU5NDYtMTYiIHRyYW5zZm9ybT0icm90YXRlKC03MC4wMDEyLDEuNTIwNzM0OCwyOC4zNTU1OTEpIj4mI3hhOwkJCQk8dGl0bGUgaWQ9InRpdGxlMTAxNjQxIj5TaGVldC41OTQ2PC90aXRsZT4mI3hhOwkJCQk8Y2lyY2xlIGlkPSJlbGxpcHNlMTAxNjQzIiBzdHlsZT0iZmlsbDojODA0OTk4OyIgY3g9IjIuMzkiIGN5PSIzNC45NiIgcj0iMi4zOSIvPiYjeGE7CQkJPC9nPiYjeGE7CQkJPGcgaWQ9InNoYXBlNTk0Ny0xOCIgdHJhbnNmb3JtPSJ0cmFuc2xhdGUoMC44MTk3NSwtMS43NjU1KSI+JiN4YTsJCQkJPHRpdGxlIGlkPSJ0aXRsZTEwMTY0NiI+U2hlZXQuNTk0NzwvdGl0bGU+JiN4YTsJCQkJPHBhdGggaWQ9InBhdGgxMDE2NDgiIGlua3NjYXBlOmNvbm5lY3Rvci1jdXJ2YXR1cmU9IjAiIHN0eWxlPSJmaWxsOiM4MDQ5OTg7IiBkPSJNNi40NSwxOS4wN2MtMS45NiwwLTMuODUsMC40LTUuNjQsMS4yMSAgICAgIEMwLjUsMjAuODQsMC4yMywyMS40MSwwLDIyLjAyYzEuOTUtMS4xNyw0LjE3LTEuNzksNi40NS0xLjc5YzYuOTYsMCwxMi42Miw1LjY3LDEyLjYyLDEyLjYzYzAsMS41Mi0wLjI3LDMuMDEtMC44MSw0LjQzICAgICAgbC0wLjAyLDAuMDZjMC41My0wLjMyLDEuMDQtMC42NywxLjUyLTEuMDZjMC4yOC0xLjEsMC40Ny0yLjI5LDAuNDctMy40M0MyMC4yMywyNS4yNSwxNC4wNSwxOS4wNyw2LjQ1LDE5LjA3eiIvPiYjeGE7CQkJPC9nPiYjeGE7CQkJPGcgaWQ9InNoYXBlNTk0OC0yMCIgdHJhbnNmb3JtPSJ0cmFuc2xhdGUoNi44NDE1LC0wLjAxNDI1KSI+JiN4YTsJCQkJPHRpdGxlIGlkPSJ0aXRsZTEwMTY1MSI+U2hlZXQuNTk0ODwvdGl0bGU+JiN4YTsJCQkJPHBhdGggaWQ9InBhdGgxMDE2NTMiIGlua3NjYXBlOmNvbm5lY3Rvci1jdXJ2YXR1cmU9IjAiIHN0eWxlPSJmaWxsOiM4MDQ5OTg7IiBkPSJNMTEuMjksMTMuMzhjLTAuNTktMC4yOC0xLjItMC41Mi0xLjg0LTAuNzIgICAgICBDMy43OSwxNC41NCwwLDE5Ljc2LDAsMjUuNzVjMCw0LjcyLDIuMzcsOS4wNSw2LjM0LDExLjZjMC42Ny0wLjAzLDEuMzItMC4xMSwxLjk2LTAuMjRsLTAuMDYtMC4wMyAgICAgIGMtNC4zNi0yLjE1LTcuMDctNi40OS03LjA3LTExLjMzQzEuMTcsMTkuNzUsNS40MiwxNC41NywxMS4yOSwxMy4zOHoiLz4mI3hhOwkJCTwvZz4mI3hhOwkJCTxnIGlkPSJzaGFwZTU5NDktMjIiIHRyYW5zZm9ybT0idHJhbnNsYXRlKDQuNTQ1LC0yLjE4NTUpIj4mI3hhOwkJCQk8dGl0bGUgaWQ9InRpdGxlMTAxNjU2Ij5TaGVldC41OTQ5PC90aXRsZT4mI3hhOwkJCQk8cGF0aCBpZD0icGF0aDEwMTY1OCIgaW5rc2NhcGU6Y29ubmVjdG9yLWN1cnZhdHVyZT0iMCIgc3R5bGU9ImZpbGw6IzgwNDk5ODsiIGQ9Ik0yMC4yNywzMC4xOGMwLjExLTAuNDEsMC4yLTAuODQsMC4yNy0xLjI4ICAgICAgYy0yLjE2LTEuMy00LjYyLTEuOTktNy4xNC0xLjk5Yy02LDAtMTEuMzgsMy44LTEzLjM5LDkuNjJMMCwzNi41NmwwLjAzLDAuMDNjMC4yNywwLjIzLDAuNTYsMC40NSwwLjg1LDAuNjcgICAgICBjMC4wNSwwLjAzLDAuMDksMC4wNiwwLjEzLDAuMDlsMC4wMi0wLjA3YzEuNzUtNS41Myw2LjcyLTkuMTQsMTIuMzctOS4xNEMxNS44NSwyOC4xNCwxOC4yLDI4Ljg1LDIwLjI3LDMwLjE4eiIvPiYjeGE7CQkJPC9nPiYjeGE7CQk8L2c+JiN4YTsJPC9nPiYjeGE7PC9nPiYjeGE7PC9zdmc+;" vertex="1" parent="1">
          <mxGeometry x="1073.64" y="156" width="36" height="36" as="geometry" />
        </mxCell>
        <mxCell id="_9aK7tR2FCW0y13HPatD-5" value="" style="aspect=fixed;html=1;points=[];align=center;image;fontSize=12;image=img/lib/azure2/networking/Virtual_Network_Gateways.svg;" vertex="1" parent="1">
          <mxGeometry x="1544.53" y="217" width="25.62" height="34" as="geometry" />
        </mxCell>
        <mxCell id="_9aK7tR2FCW0y13HPatD-6" value="" style="aspect=fixed;html=1;points=[];align=center;image;fontSize=12;image=img/lib/azure2/networking/Virtual_Networks.svg;" vertex="1" parent="1">
          <mxGeometry x="1620.38" y="31" width="38.53" height="23" as="geometry" />
        </mxCell>
        <mxCell id="_9aK7tR2FCW0y13HPatD-7" value="" style="aspect=fixed;html=1;points=[];align=center;image;fontSize=12;image=img/lib/azure2/networking/Firewalls.svg;" vertex="1" parent="1">
          <mxGeometry x="1400.21" y="224" width="34.32" height="29" as="geometry" />
        </mxCell>
        <mxCell id="_9aK7tR2FCW0y13HPatD-8" value="" style="shape=image;verticalLabelPosition=bottom;labelBackgroundColor=#ffffff;verticalAlign=top;aspect=fixed;imageAspect=0;image=data:image/svg+xml,PHN2ZyB4bWxuczpjYz0iaHR0cDovL2NyZWF0aXZlY29tbW9ucy5vcmcvbnMjIiB4bWxuczpkYz0iaHR0cDovL3B1cmwub3JnL2RjL2VsZW1lbnRzLzEuMS8iIHhtbG5zOmlua3NjYXBlPSJodHRwOi8vd3d3Lmlua3NjYXBlLm9yZy9uYW1lc3BhY2VzL2lua3NjYXBlIiB4bWxuczpyZGY9Imh0dHA6Ly93d3cudzMub3JnLzE5OTkvMDIvMjItcmRmLXN5bnRheC1ucyMiIHhtbG5zOnNvZGlwb2RpPSJodHRwOi8vc29kaXBvZGkuc291cmNlZm9yZ2UubmV0L0RURC9zb2RpcG9kaS0wLmR0ZCIgeG1sbnM6c3ZnPSJodHRwOi8vd3d3LnczLm9yZy8yMDAwL3N2ZyIgeG1sbnM9Imh0dHA6Ly93d3cudzMub3JnLzIwMDAvc3ZnIiB4bWxuczp4bGluaz0iaHR0cDovL3d3dy53My5vcmcvMTk5OS94bGluayIgdmVyc2lvbj0iMS4xIiBpZD0ic3ZnMTQ5NyIgaW5rc2NhcGU6dmVyc2lvbj0iMC45Mi4zICgyNDA1NTQ2LCAyMDE4LTAzLTExKSIgc29kaXBvZGk6ZG9jbmFtZT0iYXBwbGUuc3ZnIiB4PSIwcHgiIHk9IjBweCIgdmlld0JveD0iMCAwIDc0LjY3IDcwLjQiIHN0eWxlPSJlbmFibGUtYmFja2dyb3VuZDpuZXcgMCAwIDc0LjY3IDcwLjQ7IiB4bWw6c3BhY2U9InByZXNlcnZlIj4mI3hhOzxzb2RpcG9kaTpuYW1lZHZpZXcgYm9yZGVyY29sb3I9IiM2NjY2NjYiIGJvcmRlcm9wYWNpdHk9IjEiIGZpdC1tYXJnaW4tYm90dG9tPSIwIiBmaXQtbWFyZ2luLWxlZnQ9IjAiIGZpdC1tYXJnaW4tcmlnaHQ9IjAiIGZpdC1tYXJnaW4tdG9wPSIwIiBncmlkdG9sZXJhbmNlPSIxMCIgZ3VpZGV0b2xlcmFuY2U9IjEwIiBpZD0ibmFtZWR2aWV3MTQ5OSIgaW5rc2NhcGU6Y3VycmVudC1sYXllcj0ic3ZnMTQ5NyIgaW5rc2NhcGU6Y3g9IjQ5Ljc3NTk3NyIgaW5rc2NhcGU6Y3k9IjQ2LjkzNDUyOSIgaW5rc2NhcGU6cGFnZW9wYWNpdHk9IjAiIGlua3NjYXBlOnBhZ2VzaGFkb3c9IjIiIGlua3NjYXBlOndpbmRvdy1oZWlnaHQ9IjEwMTciIGlua3NjYXBlOndpbmRvdy1tYXhpbWl6ZWQ9IjEiIGlua3NjYXBlOndpbmRvdy13aWR0aD0iMTkyMCIgaW5rc2NhcGU6d2luZG93LXg9Ii04IiBpbmtzY2FwZTp3aW5kb3cteT0iLTgiIGlua3NjYXBlOnpvb209IjguMjkwNDk0NCIgb2JqZWN0dG9sZXJhbmNlPSIxMCIgcGFnZWNvbG9yPSIjZmZmZmZmIiBzaG93Z3JpZD0iZmFsc2UiPiYjeGE7CTwvc29kaXBvZGk6bmFtZWR2aWV3PiYjeGE7PGcgaWQ9ImcxNDk1IiB0cmFuc2Zvcm09InRyYW5zbGF0ZSgtNC4wMTU4MTgzLC00LjAxMjcxMTQpIj4mI3hhOwk8dGl0bGUgaWQ9InRpdGxlMTQ3MCI+UGFnZS0xPC90aXRsZT4mI3hhOwk8ZyBpZD0iZ3JvdXAzODEwLTEiIHRyYW5zZm9ybT0idHJhbnNsYXRlKDQuMDE1NzcsLTQuMDE1NzUpIj4mI3hhOwkJPHRpdGxlIGlkPSJ0aXRsZTE0NzIiPkFwcGxlPC90aXRsZT4mI3hhOwkJPGcgaWQ9InNoYXBlMzgxMS0yIiB0cmFuc2Zvcm09InRyYW5zbGF0ZSgyNC4zOTgxLC00LjA2NjM1KSI+JiN4YTsJCQk8dGl0bGUgaWQ9InRpdGxlMTQ3NCI+U2hlZXQuMzgxMTwvdGl0bGU+JiN4YTsJCQk8cmVjdCBpZD0icmVjdDE0NzYiIHg9IjAiIHk9IjY4LjEiIHN0eWxlPSJmaWxsOiMyQzQyNEY7IiB3aWR0aD0iMjUuODciIGhlaWdodD0iMTAuMzQiLz4mI3hhOwkJPC9nPiYjeGE7CQk8ZyBpZD0ic2hhcGUzODEyLTQiIHRyYW5zZm9ybT0idHJhbnNsYXRlKDE1LjI4NTUpIj4mI3hhOwkJCTx0aXRsZSBpZD0idGl0bGUxNDc5Ij5TaGVldC4zODEyPC90aXRsZT4mI3hhOwkJCTxyZWN0IGlkPSJyZWN0MTQ4MSIgeD0iMCIgeT0iNzQuMzciIHN0eWxlPSJmaWxsOiNCQkMyQzY7IiB3aWR0aD0iNDQuMDkiIGhlaWdodD0iNC4wNyIvPiYjeGE7CQk8L2c+JiN4YTsJCTxnIGlkPSJzaGFwZTM4MTMtNiIgdHJhbnNmb3JtPSJ0cmFuc2xhdGUoMCwtMTQuNDAzNykiPiYjeGE7CQkJPHRpdGxlIGlkPSJ0aXRsZTE0ODQiPlNoZWV0LjM4MTM8L3RpdGxlPiYjeGE7CQkJPHBhdGggaWQ9InBhdGgxNDg2IiBpbmtzY2FwZTpjb25uZWN0b3ItY3VydmF0dXJlPSIwIiBzdHlsZT0iZmlsbDojQkJDMkM2OyIgZD0iTTAsNjQuNzJ2MTEuMDdjMCwxLjQ2LDEuMTgsMi42NCwyLjYzLDIuNjQgICAgIGMwLjAxLDAsMC4wMSwwLDAuMDIsMGg2OS4zMmMxLjQ2LDAuMDEsMi42NC0xLjE3LDIuNjUtMi42MmMwLTAuMDEsMC0wLjAxLDAtMC4wMlY2NC43MkgweiIvPiYjeGE7CQk8L2c+JiN4YTsJCTxnIGlkPSJzaGFwZTM4MTQtOCIgdHJhbnNmb3JtPSJ0cmFuc2xhdGUoMC4wNDg5OTIxLC0yOC4xMjE1KSI+JiN4YTsJCQk8dGl0bGUgaWQ9InRpdGxlMTQ4OSI+U2hlZXQuMzgxNDwvdGl0bGU+JiN4YTsJCQk8cGF0aCBpZD0icGF0aDE0OTEiIGlua3NjYXBlOmNvbm5lY3Rvci1jdXJ2YXR1cmU9IjAiIHN0eWxlPSJmaWxsOiM1MjdGOTk7IiBkPSJNNzQuNjIsMzguOGMwLjAxLTEuNDYtMS4xNy0yLjY0LTIuNjItMi42NSAgICAgYy0wLjAxLDAtMC4wMiwwLTAuMDMsMEgyLjY1QzEuMTksMzYuMTQsMC4wMSwzNy4zMiwwLDM4Ljc3YzAsMC4wMSwwLDAuMDIsMCwwLjAzdjM5LjYzaDc0LjYyVjM4Ljh6Ii8+JiN4YTsJCTwvZz4mI3hhOwk8L2c+JiN4YTs8L2c+JiN4YTs8L3N2Zz4=;" vertex="1" parent="1">
          <mxGeometry x="1541.2699999999998" y="434" width="32.14" height="30" as="geometry" />
        </mxCell>
        <mxCell id="_9aK7tR2FCW0y13HPatD-9" value="" style="aspect=fixed;html=1;points=[];align=center;image;fontSize=12;image=img/lib/azure2/networking/Virtual_Network_Gateways.svg;" vertex="1" parent="1">
          <mxGeometry x="1542.4099999999999" y="388" width="25.62" height="34" as="geometry" />
        </mxCell>
        <mxCell id="_9aK7tR2FCW0y13HPatD-10" value="" style="sketch=0;points=[[0.5,0,0],[1,0.5,0],[0.5,1,0],[0,0.5,0],[0.145,0.145,0],[0.8555,0.145,0],[0.855,0.8555,0],[0.145,0.855,0]];verticalLabelPosition=bottom;html=1;verticalAlign=top;aspect=fixed;align=center;pointerEvents=1;shape=mxgraph.cisco19.rect;prIcon=router;fillColor=#FAFAFA;strokeColor=#005073;" vertex="1" parent="1">
          <mxGeometry x="1713.53" y="162" width="35" height="35" as="geometry" />
        </mxCell>
        <mxCell id="_9aK7tR2FCW0y13HPatD-11" style="edgeStyle=orthogonalEdgeStyle;rounded=0;orthogonalLoop=1;jettySize=auto;html=1;shape=link;" edge="1" parent="1" source="_9aK7tR2FCW0y13HPatD-12" target="_9aK7tR2FCW0y13HPatD-20">
          <mxGeometry relative="1" as="geometry">
            <Array as="points">
              <mxPoint x="1540.53" y="300" />
              <mxPoint x="1540.53" y="300" />
            </Array>
          </mxGeometry>
        </mxCell>
        <mxCell id="_9aK7tR2FCW0y13HPatD-12" value="" style="shape=image;verticalLabelPosition=bottom;labelBackgroundColor=#ffffff;verticalAlign=top;aspect=fixed;imageAspect=0;image=data:image/svg+xml,PHN2ZyB4bWxuczpjYz0iaHR0cDovL2NyZWF0aXZlY29tbW9ucy5vcmcvbnMjIiB4bWxuczpkYz0iaHR0cDovL3B1cmwub3JnL2RjL2VsZW1lbnRzLzEuMS8iIHhtbG5zOmlua3NjYXBlPSJodHRwOi8vd3d3Lmlua3NjYXBlLm9yZy9uYW1lc3BhY2VzL2lua3NjYXBlIiB4bWxuczpyZGY9Imh0dHA6Ly93d3cudzMub3JnLzE5OTkvMDIvMjItcmRmLXN5bnRheC1ucyMiIHhtbG5zOnNvZGlwb2RpPSJodHRwOi8vc29kaXBvZGkuc291cmNlZm9yZ2UubmV0L0RURC9zb2RpcG9kaS0wLmR0ZCIgeG1sbnM6c3ZnPSJodHRwOi8vd3d3LnczLm9yZy8yMDAwL3N2ZyIgeG1sbnM9Imh0dHA6Ly93d3cudzMub3JnLzIwMDAvc3ZnIiB4bWxuczp4bGluaz0iaHR0cDovL3d3dy53My5vcmcvMTk5OS94bGluayIgdmVyc2lvbj0iMS4xIiBpZD0ic3ZnMzExNTkiIGlua3NjYXBlOnZlcnNpb249IjAuOTIuMyAoMjQwNTU0NiwgMjAxOC0wMy0xMSkiIHNvZGlwb2RpOmRvY25hbWU9Im1vbml0b3JfY2xlYW4uc3ZnIiB4PSIwcHgiIHk9IjBweCIgdmlld0JveD0iMCAwIDY0IDQ4LjMyIiBzdHlsZT0iZW5hYmxlLWJhY2tncm91bmQ6bmV3IDAgMCA2NCA0OC4zMjsiIHhtbDpzcGFjZT0icHJlc2VydmUiPiYjeGE7PHNvZGlwb2RpOm5hbWVkdmlldyBib3JkZXJjb2xvcj0iIzY2NjY2NiIgYm9yZGVyb3BhY2l0eT0iMSIgZml0LW1hcmdpbi1ib3R0b209IjAiIGZpdC1tYXJnaW4tbGVmdD0iMCIgZml0LW1hcmdpbi1yaWdodD0iMCIgZml0LW1hcmdpbi10b3A9IjAiIGdyaWR0b2xlcmFuY2U9IjEwIiBndWlkZXRvbGVyYW5jZT0iMTAiIGlkPSJuYW1lZHZpZXczMTE2MSIgaW5rc2NhcGU6Y3VycmVudC1sYXllcj0ic3ZnMzExNTkiIGlua3NjYXBlOmN4PSI0Mi42NjgxMTIiIGlua3NjYXBlOmN5PSIzMi4yMTA1ODQiIGlua3NjYXBlOnBhZ2VvcGFjaXR5PSIwIiBpbmtzY2FwZTpwYWdlc2hhZG93PSIyIiBpbmtzY2FwZTp3aW5kb3ctaGVpZ2h0PSIxMDE3IiBpbmtzY2FwZTp3aW5kb3ctbWF4aW1pemVkPSIxIiBpbmtzY2FwZTp3aW5kb3ctd2lkdGg9IjE5MjAiIGlua3NjYXBlOndpbmRvdy14PSItOCIgaW5rc2NhcGU6d2luZG93LXk9Ii04IiBpbmtzY2FwZTp6b29tPSIxMy40NTYwMTkiIG9iamVjdHRvbGVyYW5jZT0iMTAiIHBhZ2Vjb2xvcj0iI2ZmZmZmZiIgc2hvd2dyaWQ9ImZhbHNlIj4mI3hhOwk8L3NvZGlwb2RpOm5hbWVkdmlldz4mI3hhOzxnIGlkPSJnMzExNTciPiYjeGE7CTx0aXRsZSBpZD0idGl0bGUzMTE0MiI+UGFnZS0xPC90aXRsZT4mI3hhOwk8ZyBpZD0iZ3JvdXAzODk0LTEiPiYjeGE7CQk8dGl0bGUgaWQ9InRpdGxlMzExNDQiPk1vbml0b3IgKENsZWFuKTwvdGl0bGU+JiN4YTsJCTxnIGlkPSJzaGFwZTM4OTUtMiI+JiN4YTsJCQk8dGl0bGUgaWQ9InRpdGxlMzExNDYiPlNoZWV0LjM4OTU8L3RpdGxlPiYjeGE7CQkJPHBhdGggaWQ9InBhdGgzMTE0OCIgaW5rc2NhcGU6Y29ubmVjdG9yLWN1cnZhdHVyZT0iMCIgc3R5bGU9ImZpbGw6IzNGNTc2NTsiIGQ9Ik0wLDQ4LjMyaDY0VjBIMFY0OC4zMnogTTMuODYsNC4yMWg1Ni4zNXYzOS45NyAgICAgSDMuODZWNC4yMXoiLz4mI3hhOwkJPC9nPiYjeGE7CQk8ZyBpZD0ic2hhcGUzODk2LTQiIHRyYW5zZm9ybT0idHJhbnNsYXRlKDI5LjE5NCwtNy44NjY3MikiPiYjeGE7CQkJPHRpdGxlIGlkPSJ0aXRsZTMxMTUxIj5TaGVldC4zODk2PC90aXRsZT4mI3hhOwkJCTxwYXRoIGlkPSJwYXRoMzExNTMiIGlua3NjYXBlOmNvbm5lY3Rvci1jdXJ2YXR1cmU9IjAiIHN0eWxlPSJmaWxsOiMzRjU3NjU7IiBkPSJNMCw0My44M3Y0LjQ5aDQuNDl2LTQuNDlIMHoiLz4mI3hhOwkJPC9nPiYjeGE7CTwvZz4mI3hhOzwvZz4mI3hhOzwvc3ZnPg==;" vertex="1" parent="1">
          <mxGeometry x="1535.2" y="253" width="29.33" height="22" as="geometry" />
        </mxCell>
        <mxCell id="_9aK7tR2FCW0y13HPatD-13" style="rounded=0;orthogonalLoop=1;jettySize=auto;html=1;entryX=0.75;entryY=0;entryDx=0;entryDy=0;shape=link;" edge="1" parent="1" source="_9aK7tR2FCW0y13HPatD-14" target="_9aK7tR2FCW0y13HPatD-21">
          <mxGeometry relative="1" as="geometry" />
        </mxCell>
        <mxCell id="_9aK7tR2FCW0y13HPatD-14" value="" style="shape=image;verticalLabelPosition=bottom;labelBackgroundColor=#ffffff;verticalAlign=top;aspect=fixed;imageAspect=0;image=data:image/svg+xml,PHN2ZyB4bWxuczpjYz0iaHR0cDovL2NyZWF0aXZlY29tbW9ucy5vcmcvbnMjIiB4bWxuczpkYz0iaHR0cDovL3B1cmwub3JnL2RjL2VsZW1lbnRzLzEuMS8iIHhtbG5zOmlua3NjYXBlPSJodHRwOi8vd3d3Lmlua3NjYXBlLm9yZy9uYW1lc3BhY2VzL2lua3NjYXBlIiB4bWxuczpyZGY9Imh0dHA6Ly93d3cudzMub3JnLzE5OTkvMDIvMjItcmRmLXN5bnRheC1ucyMiIHhtbG5zOnNvZGlwb2RpPSJodHRwOi8vc29kaXBvZGkuc291cmNlZm9yZ2UubmV0L0RURC9zb2RpcG9kaS0wLmR0ZCIgeG1sbnM6c3ZnPSJodHRwOi8vd3d3LnczLm9yZy8yMDAwL3N2ZyIgeG1sbnM9Imh0dHA6Ly93d3cudzMub3JnLzIwMDAvc3ZnIiB4bWxuczp4bGluaz0iaHR0cDovL3d3dy53My5vcmcvMTk5OS94bGluayIgdmVyc2lvbj0iMS4xIiBpZD0ic3ZnMzExNTkiIGlua3NjYXBlOnZlcnNpb249IjAuOTIuMyAoMjQwNTU0NiwgMjAxOC0wMy0xMSkiIHNvZGlwb2RpOmRvY25hbWU9Im1vbml0b3JfY2xlYW4uc3ZnIiB4PSIwcHgiIHk9IjBweCIgdmlld0JveD0iMCAwIDY0IDQ4LjMyIiBzdHlsZT0iZW5hYmxlLWJhY2tncm91bmQ6bmV3IDAgMCA2NCA0OC4zMjsiIHhtbDpzcGFjZT0icHJlc2VydmUiPiYjeGE7PHNvZGlwb2RpOm5hbWVkdmlldyBib3JkZXJjb2xvcj0iIzY2NjY2NiIgYm9yZGVyb3BhY2l0eT0iMSIgZml0LW1hcmdpbi1ib3R0b209IjAiIGZpdC1tYXJnaW4tbGVmdD0iMCIgZml0LW1hcmdpbi1yaWdodD0iMCIgZml0LW1hcmdpbi10b3A9IjAiIGdyaWR0b2xlcmFuY2U9IjEwIiBndWlkZXRvbGVyYW5jZT0iMTAiIGlkPSJuYW1lZHZpZXczMTE2MSIgaW5rc2NhcGU6Y3VycmVudC1sYXllcj0ic3ZnMzExNTkiIGlua3NjYXBlOmN4PSI0Mi42NjgxMTIiIGlua3NjYXBlOmN5PSIzMi4yMTA1ODQiIGlua3NjYXBlOnBhZ2VvcGFjaXR5PSIwIiBpbmtzY2FwZTpwYWdlc2hhZG93PSIyIiBpbmtzY2FwZTp3aW5kb3ctaGVpZ2h0PSIxMDE3IiBpbmtzY2FwZTp3aW5kb3ctbWF4aW1pemVkPSIxIiBpbmtzY2FwZTp3aW5kb3ctd2lkdGg9IjE5MjAiIGlua3NjYXBlOndpbmRvdy14PSItOCIgaW5rc2NhcGU6d2luZG93LXk9Ii04IiBpbmtzY2FwZTp6b29tPSIxMy40NTYwMTkiIG9iamVjdHRvbGVyYW5jZT0iMTAiIHBhZ2Vjb2xvcj0iI2ZmZmZmZiIgc2hvd2dyaWQ9ImZhbHNlIj4mI3hhOwk8L3NvZGlwb2RpOm5hbWVkdmlldz4mI3hhOzxnIGlkPSJnMzExNTciPiYjeGE7CTx0aXRsZSBpZD0idGl0bGUzMTE0MiI+UGFnZS0xPC90aXRsZT4mI3hhOwk8ZyBpZD0iZ3JvdXAzODk0LTEiPiYjeGE7CQk8dGl0bGUgaWQ9InRpdGxlMzExNDQiPk1vbml0b3IgKENsZWFuKTwvdGl0bGU+JiN4YTsJCTxnIGlkPSJzaGFwZTM4OTUtMiI+JiN4YTsJCQk8dGl0bGUgaWQ9InRpdGxlMzExNDYiPlNoZWV0LjM4OTU8L3RpdGxlPiYjeGE7CQkJPHBhdGggaWQ9InBhdGgzMTE0OCIgaW5rc2NhcGU6Y29ubmVjdG9yLWN1cnZhdHVyZT0iMCIgc3R5bGU9ImZpbGw6IzNGNTc2NTsiIGQ9Ik0wLDQ4LjMyaDY0VjBIMFY0OC4zMnogTTMuODYsNC4yMWg1Ni4zNXYzOS45NyAgICAgSDMuODZWNC4yMXoiLz4mI3hhOwkJPC9nPiYjeGE7CQk8ZyBpZD0ic2hhcGUzODk2LTQiIHRyYW5zZm9ybT0idHJhbnNsYXRlKDI5LjE5NCwtNy44NjY3MikiPiYjeGE7CQkJPHRpdGxlIGlkPSJ0aXRsZTMxMTUxIj5TaGVldC4zODk2PC90aXRsZT4mI3hhOwkJCTxwYXRoIGlkPSJwYXRoMzExNTMiIGlua3NjYXBlOmNvbm5lY3Rvci1jdXJ2YXR1cmU9IjAiIHN0eWxlPSJmaWxsOiMzRjU3NjU7IiBkPSJNMCw0My44M3Y0LjQ5aDQuNDl2LTQuNDlIMHoiLz4mI3hhOwkJPC9nPiYjeGE7CTwvZz4mI3hhOzwvZz4mI3hhOzwvc3ZnPg==;" vertex="1" parent="1">
          <mxGeometry x="1568.03" y="253" width="29.33" height="22" as="geometry" />
        </mxCell>
        <mxCell id="_9aK7tR2FCW0y13HPatD-15" style="edgeStyle=none;shape=link;rounded=0;orthogonalLoop=1;jettySize=auto;html=1;entryX=0.182;entryY=-0.001;entryDx=0;entryDy=0;entryPerimeter=0;" edge="1" parent="1" source="_9aK7tR2FCW0y13HPatD-16" target="_9aK7tR2FCW0y13HPatD-17">
          <mxGeometry relative="1" as="geometry" />
        </mxCell>
        <mxCell id="_9aK7tR2FCW0y13HPatD-16" value="" style="rounded=0;whiteSpace=wrap;html=1;fillColor=none;" vertex="1" parent="1">
          <mxGeometry x="1538.9099999999999" y="51" width="120" height="60" as="geometry" />
        </mxCell>
        <mxCell id="_9aK7tR2FCW0y13HPatD-18" style="edgeStyle=none;shape=link;rounded=0;orthogonalLoop=1;jettySize=auto;html=1;entryX=0.944;entryY=0.009;entryDx=0;entryDy=0;entryPerimeter=0;" edge="1" parent="1" source="_9aK7tR2FCW0y13HPatD-19" target="_9aK7tR2FCW0y13HPatD-17">
          <mxGeometry relative="1" as="geometry" />
        </mxCell>
        <mxCell id="_9aK7tR2FCW0y13HPatD-19" value="" style="rounded=0;whiteSpace=wrap;html=1;fillColor=none;" vertex="1" parent="1">
          <mxGeometry x="1840.53" y="49" width="120" height="60" as="geometry" />
        </mxCell>
        <mxCell id="_9aK7tR2FCW0y13HPatD-20" value="" style="shape=image;verticalLabelPosition=bottom;labelBackgroundColor=#ffffff;verticalAlign=top;aspect=fixed;imageAspect=0;image=data:image/svg+xml,PHN2ZyB4bWxuczpjYz0iaHR0cDovL2NyZWF0aXZlY29tbW9ucy5vcmcvbnMjIiB4bWxuczpkYz0iaHR0cDovL3B1cmwub3JnL2RjL2VsZW1lbnRzLzEuMS8iIHhtbG5zOmlua3NjYXBlPSJodHRwOi8vd3d3Lmlua3NjYXBlLm9yZy9uYW1lc3BhY2VzL2lua3NjYXBlIiB4bWxuczpyZGY9Imh0dHA6Ly93d3cudzMub3JnLzE5OTkvMDIvMjItcmRmLXN5bnRheC1ucyMiIHhtbG5zOnNvZGlwb2RpPSJodHRwOi8vc29kaXBvZGkuc291cmNlZm9yZ2UubmV0L0RURC9zb2RpcG9kaS0wLmR0ZCIgeG1sbnM6c3ZnPSJodHRwOi8vd3d3LnczLm9yZy8yMDAwL3N2ZyIgeG1sbnM9Imh0dHA6Ly93d3cudzMub3JnLzIwMDAvc3ZnIiB4bWxuczp4bGluaz0iaHR0cDovL3d3dy53My5vcmcvMTk5OS94bGluayIgdmVyc2lvbj0iMS4xIiBpZD0ic3ZnMzExNTkiIGlua3NjYXBlOnZlcnNpb249IjAuOTIuMyAoMjQwNTU0NiwgMjAxOC0wMy0xMSkiIHNvZGlwb2RpOmRvY25hbWU9Im1vbml0b3JfY2xlYW4uc3ZnIiB4PSIwcHgiIHk9IjBweCIgdmlld0JveD0iMCAwIDY0IDQ4LjMyIiBzdHlsZT0iZW5hYmxlLWJhY2tncm91bmQ6bmV3IDAgMCA2NCA0OC4zMjsiIHhtbDpzcGFjZT0icHJlc2VydmUiPiYjeGE7PHNvZGlwb2RpOm5hbWVkdmlldyBib3JkZXJjb2xvcj0iIzY2NjY2NiIgYm9yZGVyb3BhY2l0eT0iMSIgZml0LW1hcmdpbi1ib3R0b209IjAiIGZpdC1tYXJnaW4tbGVmdD0iMCIgZml0LW1hcmdpbi1yaWdodD0iMCIgZml0LW1hcmdpbi10b3A9IjAiIGdyaWR0b2xlcmFuY2U9IjEwIiBndWlkZXRvbGVyYW5jZT0iMTAiIGlkPSJuYW1lZHZpZXczMTE2MSIgaW5rc2NhcGU6Y3VycmVudC1sYXllcj0ic3ZnMzExNTkiIGlua3NjYXBlOmN4PSI0Mi42NjgxMTIiIGlua3NjYXBlOmN5PSIzMi4yMTA1ODQiIGlua3NjYXBlOnBhZ2VvcGFjaXR5PSIwIiBpbmtzY2FwZTpwYWdlc2hhZG93PSIyIiBpbmtzY2FwZTp3aW5kb3ctaGVpZ2h0PSIxMDE3IiBpbmtzY2FwZTp3aW5kb3ctbWF4aW1pemVkPSIxIiBpbmtzY2FwZTp3aW5kb3ctd2lkdGg9IjE5MjAiIGlua3NjYXBlOndpbmRvdy14PSItOCIgaW5rc2NhcGU6d2luZG93LXk9Ii04IiBpbmtzY2FwZTp6b29tPSIxMy40NTYwMTkiIG9iamVjdHRvbGVyYW5jZT0iMTAiIHBhZ2Vjb2xvcj0iI2ZmZmZmZiIgc2hvd2dyaWQ9ImZhbHNlIj4mI3hhOwk8L3NvZGlwb2RpOm5hbWVkdmlldz4mI3hhOzxnIGlkPSJnMzExNTciPiYjeGE7CTx0aXRsZSBpZD0idGl0bGUzMTE0MiI+UGFnZS0xPC90aXRsZT4mI3hhOwk8ZyBpZD0iZ3JvdXAzODk0LTEiPiYjeGE7CQk8dGl0bGUgaWQ9InRpdGxlMzExNDQiPk1vbml0b3IgKENsZWFuKTwvdGl0bGU+JiN4YTsJCTxnIGlkPSJzaGFwZTM4OTUtMiI+JiN4YTsJCQk8dGl0bGUgaWQ9InRpdGxlMzExNDYiPlNoZWV0LjM4OTU8L3RpdGxlPiYjeGE7CQkJPHBhdGggaWQ9InBhdGgzMTE0OCIgaW5rc2NhcGU6Y29ubmVjdG9yLWN1cnZhdHVyZT0iMCIgc3R5bGU9ImZpbGw6IzNGNTc2NTsiIGQ9Ik0wLDQ4LjMyaDY0VjBIMFY0OC4zMnogTTMuODYsNC4yMWg1Ni4zNXYzOS45NyAgICAgSDMuODZWNC4yMXoiLz4mI3hhOwkJPC9nPiYjeGE7CQk8ZyBpZD0ic2hhcGUzODk2LTQiIHRyYW5zZm9ybT0idHJhbnNsYXRlKDI5LjE5NCwtNy44NjY3MikiPiYjeGE7CQkJPHRpdGxlIGlkPSJ0aXRsZTMxMTUxIj5TaGVldC4zODk2PC90aXRsZT4mI3hhOwkJCTxwYXRoIGlkPSJwYXRoMzExNTMiIGlua3NjYXBlOmNvbm5lY3Rvci1jdXJ2YXR1cmU9IjAiIHN0eWxlPSJmaWxsOiMzRjU3NjU7IiBkPSJNMCw0My44M3Y0LjQ5aDQuNDl2LTQuNDlIMHoiLz4mI3hhOwkJPC9nPiYjeGE7CTwvZz4mI3hhOzwvZz4mI3hhOzwvc3ZnPg==;" vertex="1" parent="1">
          <mxGeometry x="1525.53" y="366" width="29.33" height="22" as="geometry" />
        </mxCell>
        <mxCell id="_9aK7tR2FCW0y13HPatD-21" value="" style="shape=image;verticalLabelPosition=bottom;labelBackgroundColor=#ffffff;verticalAlign=top;aspect=fixed;imageAspect=0;image=data:image/svg+xml,PHN2ZyB4bWxuczpjYz0iaHR0cDovL2NyZWF0aXZlY29tbW9ucy5vcmcvbnMjIiB4bWxuczpkYz0iaHR0cDovL3B1cmwub3JnL2RjL2VsZW1lbnRzLzEuMS8iIHhtbG5zOmlua3NjYXBlPSJodHRwOi8vd3d3Lmlua3NjYXBlLm9yZy9uYW1lc3BhY2VzL2lua3NjYXBlIiB4bWxuczpyZGY9Imh0dHA6Ly93d3cudzMub3JnLzE5OTkvMDIvMjItcmRmLXN5bnRheC1ucyMiIHhtbG5zOnNvZGlwb2RpPSJodHRwOi8vc29kaXBvZGkuc291cmNlZm9yZ2UubmV0L0RURC9zb2RpcG9kaS0wLmR0ZCIgeG1sbnM6c3ZnPSJodHRwOi8vd3d3LnczLm9yZy8yMDAwL3N2ZyIgeG1sbnM9Imh0dHA6Ly93d3cudzMub3JnLzIwMDAvc3ZnIiB4bWxuczp4bGluaz0iaHR0cDovL3d3dy53My5vcmcvMTk5OS94bGluayIgdmVyc2lvbj0iMS4xIiBpZD0ic3ZnMzExNTkiIGlua3NjYXBlOnZlcnNpb249IjAuOTIuMyAoMjQwNTU0NiwgMjAxOC0wMy0xMSkiIHNvZGlwb2RpOmRvY25hbWU9Im1vbml0b3JfY2xlYW4uc3ZnIiB4PSIwcHgiIHk9IjBweCIgdmlld0JveD0iMCAwIDY0IDQ4LjMyIiBzdHlsZT0iZW5hYmxlLWJhY2tncm91bmQ6bmV3IDAgMCA2NCA0OC4zMjsiIHhtbDpzcGFjZT0icHJlc2VydmUiPiYjeGE7PHNvZGlwb2RpOm5hbWVkdmlldyBib3JkZXJjb2xvcj0iIzY2NjY2NiIgYm9yZGVyb3BhY2l0eT0iMSIgZml0LW1hcmdpbi1ib3R0b209IjAiIGZpdC1tYXJnaW4tbGVmdD0iMCIgZml0LW1hcmdpbi1yaWdodD0iMCIgZml0LW1hcmdpbi10b3A9IjAiIGdyaWR0b2xlcmFuY2U9IjEwIiBndWlkZXRvbGVyYW5jZT0iMTAiIGlkPSJuYW1lZHZpZXczMTE2MSIgaW5rc2NhcGU6Y3VycmVudC1sYXllcj0ic3ZnMzExNTkiIGlua3NjYXBlOmN4PSI0Mi42NjgxMTIiIGlua3NjYXBlOmN5PSIzMi4yMTA1ODQiIGlua3NjYXBlOnBhZ2VvcGFjaXR5PSIwIiBpbmtzY2FwZTpwYWdlc2hhZG93PSIyIiBpbmtzY2FwZTp3aW5kb3ctaGVpZ2h0PSIxMDE3IiBpbmtzY2FwZTp3aW5kb3ctbWF4aW1pemVkPSIxIiBpbmtzY2FwZTp3aW5kb3ctd2lkdGg9IjE5MjAiIGlua3NjYXBlOndpbmRvdy14PSItOCIgaW5rc2NhcGU6d2luZG93LXk9Ii04IiBpbmtzY2FwZTp6b29tPSIxMy40NTYwMTkiIG9iamVjdHRvbGVyYW5jZT0iMTAiIHBhZ2Vjb2xvcj0iI2ZmZmZmZiIgc2hvd2dyaWQ9ImZhbHNlIj4mI3hhOwk8L3NvZGlwb2RpOm5hbWVkdmlldz4mI3hhOzxnIGlkPSJnMzExNTciPiYjeGE7CTx0aXRsZSBpZD0idGl0bGUzMTE0MiI+UGFnZS0xPC90aXRsZT4mI3hhOwk8ZyBpZD0iZ3JvdXAzODk0LTEiPiYjeGE7CQk8dGl0bGUgaWQ9InRpdGxlMzExNDQiPk1vbml0b3IgKENsZWFuKTwvdGl0bGU+JiN4YTsJCTxnIGlkPSJzaGFwZTM4OTUtMiI+JiN4YTsJCQk8dGl0bGUgaWQ9InRpdGxlMzExNDYiPlNoZWV0LjM4OTU8L3RpdGxlPiYjeGE7CQkJPHBhdGggaWQ9InBhdGgzMTE0OCIgaW5rc2NhcGU6Y29ubmVjdG9yLWN1cnZhdHVyZT0iMCIgc3R5bGU9ImZpbGw6IzNGNTc2NTsiIGQ9Ik0wLDQ4LjMyaDY0VjBIMFY0OC4zMnogTTMuODYsNC4yMWg1Ni4zNXYzOS45NyAgICAgSDMuODZWNC4yMXoiLz4mI3hhOwkJPC9nPiYjeGE7CQk8ZyBpZD0ic2hhcGUzODk2LTQiIHRyYW5zZm9ybT0idHJhbnNsYXRlKDI5LjE5NCwtNy44NjY3MikiPiYjeGE7CQkJPHRpdGxlIGlkPSJ0aXRsZTMxMTUxIj5TaGVldC4zODk2PC90aXRsZT4mI3hhOwkJCTxwYXRoIGlkPSJwYXRoMzExNTMiIGlua3NjYXBlOmNvbm5lY3Rvci1jdXJ2YXR1cmU9IjAiIHN0eWxlPSJmaWxsOiMzRjU3NjU7IiBkPSJNMCw0My44M3Y0LjQ5aDQuNDl2LTQuNDlIMHoiLz4mI3hhOwkJPC9nPiYjeGE7CTwvZz4mI3hhOzwvZz4mI3hhOzwvc3ZnPg==;" vertex="1" parent="1">
          <mxGeometry x="1560.53" y="366" width="29.33" height="22" as="geometry" />
        </mxCell>
        <mxCell id="_9aK7tR2FCW0y13HPatD-22" value="" style="aspect=fixed;html=1;points=[];align=center;image;fontSize=12;image=img/lib/azure2/networking/Virtual_Networks.svg;" vertex="1" parent="1">
          <mxGeometry x="1922" y="28" width="38.53" height="23" as="geometry" />
        </mxCell>
        <mxCell id="_9aK7tR2FCW0y13HPatD-23" style="edgeStyle=none;shape=link;rounded=0;orthogonalLoop=1;jettySize=auto;html=1;entryX=1;entryY=0.25;entryDx=0;entryDy=0;" edge="1" parent="1" source="_9aK7tR2FCW0y13HPatD-24" target="_9aK7tR2FCW0y13HPatD-17">
          <mxGeometry relative="1" as="geometry" />
        </mxCell>
        <mxCell id="_9aK7tR2FCW0y13HPatD-24" value="" style="rounded=0;whiteSpace=wrap;html=1;fillColor=none;" vertex="1" parent="1">
          <mxGeometry x="1982.53" y="162" width="120" height="60" as="geometry" />
        </mxCell>
        <mxCell id="_9aK7tR2FCW0y13HPatD-25" value="" style="shape=image;verticalLabelPosition=bottom;labelBackgroundColor=#ffffff;verticalAlign=top;aspect=fixed;imageAspect=0;image=data:image/svg+xml,PHN2ZyB4bWxuczpjYz0iaHR0cDovL2NyZWF0aXZlY29tbW9ucy5vcmcvbnMjIiB4bWxuczpkYz0iaHR0cDovL3B1cmwub3JnL2RjL2VsZW1lbnRzLzEuMS8iIHhtbG5zOmlua3NjYXBlPSJodHRwOi8vd3d3Lmlua3NjYXBlLm9yZy9uYW1lc3BhY2VzL2lua3NjYXBlIiB4bWxuczpyZGY9Imh0dHA6Ly93d3cudzMub3JnLzE5OTkvMDIvMjItcmRmLXN5bnRheC1ucyMiIHhtbG5zOnNvZGlwb2RpPSJodHRwOi8vc29kaXBvZGkuc291cmNlZm9yZ2UubmV0L0RURC9zb2RpcG9kaS0wLmR0ZCIgeG1sbnM6c3ZnPSJodHRwOi8vd3d3LnczLm9yZy8yMDAwL3N2ZyIgeG1sbnM9Imh0dHA6Ly93d3cudzMub3JnLzIwMDAvc3ZnIiB4bWxuczp4bGluaz0iaHR0cDovL3d3dy53My5vcmcvMTk5OS94bGluayIgdmVyc2lvbj0iMS4xIiBpZD0ic3ZnMTM5Mzg4IiBpbmtzY2FwZTp2ZXJzaW9uPSIwLjkyLjMgKDI0MDU1NDYsIDIwMTgtMDMtMTEpIiBzb2RpcG9kaTpkb2NuYW1lPSJhenVyZV92bS5zdmciIHg9IjBweCIgeT0iMHB4IiB2aWV3Qm94PSIwIDAgNDIuMjIgMzkuMyIgc3R5bGU9ImVuYWJsZS1iYWNrZ3JvdW5kOm5ldyAwIDAgNDIuMjIgMzkuMzsiIHhtbDpzcGFjZT0icHJlc2VydmUiPiYjeGE7PHNvZGlwb2RpOm5hbWVkdmlldyBib3JkZXJjb2xvcj0iIzY2NjY2NiIgYm9yZGVyb3BhY2l0eT0iMSIgZml0LW1hcmdpbi1ib3R0b209IjAiIGZpdC1tYXJnaW4tbGVmdD0iMCIgZml0LW1hcmdpbi1yaWdodD0iMCIgZml0LW1hcmdpbi10b3A9IjAiIGdyaWR0b2xlcmFuY2U9IjEwIiBndWlkZXRvbGVyYW5jZT0iMTAiIGlkPSJuYW1lZHZpZXcxMzkzOTAiIGlua3NjYXBlOmN1cnJlbnQtbGF5ZXI9InN2ZzEzOTM4OCIgaW5rc2NhcGU6Y3g9IjI4LjE0NDg0NyIgaW5rc2NhcGU6Y3k9IjI2LjIwMjY0OCIgaW5rc2NhcGU6cGFnZW9wYWNpdHk9IjAiIGlua3NjYXBlOnBhZ2VzaGFkb3c9IjIiIGlua3NjYXBlOndpbmRvdy1oZWlnaHQ9IjEwMTciIGlua3NjYXBlOndpbmRvdy1tYXhpbWl6ZWQ9IjEiIGlua3NjYXBlOndpbmRvdy13aWR0aD0iMTkyMCIgaW5rc2NhcGU6d2luZG93LXg9Ii04IiBpbmtzY2FwZTp3aW5kb3cteT0iLTgiIGlua3NjYXBlOnpvb209IjE2LjU0NzQ4IiBvYmplY3R0b2xlcmFuY2U9IjEwIiBwYWdlY29sb3I9IiNmZmZmZmYiIHNob3dncmlkPSJmYWxzZSI+JiN4YTsJPC9zb2RpcG9kaTpuYW1lZHZpZXc+JiN4YTs8ZyBpZD0iZzEzOTM4NiIgdHJhbnNmb3JtPSJ0cmFuc2xhdGUoMCwtMC4wMDE3OCkiPiYjeGE7CTx0aXRsZSBpZD0idGl0bGUxMzkzNTEiPlBhZ2UtMTwvdGl0bGU+JiN4YTsJPGcgaWQ9Imdyb3VwOTY2NC0xIj4mI3hhOwkJPHRpdGxlIGlkPSJ0aXRsZTEzOTM1MyI+QXp1cmUgVk08L3RpdGxlPiYjeGE7CQk8ZyBpZD0ic2hhcGU5NjY1LTIiIHRyYW5zZm9ybT0idHJhbnNsYXRlKDIuOTU1MjEsLTEwLjMwOTQpIj4mI3hhOwkJCTx0aXRsZSBpZD0idGl0bGUxMzkzNTUiPlNoZWV0Ljk2NjU8L3RpdGxlPiYjeGE7CQkJPHBhdGggaWQ9InBhdGgxMzkzNTciIGlua3NjYXBlOmNvbm5lY3Rvci1jdXJ2YXR1cmU9IjAiIHN0eWxlPSJmaWxsOiMwMEJCRjE7IiBkPSJNMzcuMzMsMTIuOTdWMzkuM0gwVjEyLjk3bDM3LjM5LTAuMDggICAgIEwzNy4zMywxMi45N3oiLz4mI3hhOwkJPC9nPiYjeGE7CQk8ZyBpZD0ic2hhcGU5NjY2LTQiIHRyYW5zZm9ybT0idHJhbnNsYXRlKDcuMTc2OTMpIj4mI3hhOwkJCTx0aXRsZSBpZD0idGl0bGUxMzkzNjAiPlNoZWV0Ljk2NjY8L3RpdGxlPiYjeGE7CQkJPHBhdGggaWQ9InBhdGgxMzkzNjIiIGlua3NjYXBlOmNvbm5lY3Rvci1jdXJ2YXR1cmU9IjAiIHN0eWxlPSJmaWxsOiM5MTkxOTE7IiBkPSJNMjAuMjYsMzEuMjdjLTEuMDUsMC0xLjA1LDAtMS4wNSwwICAgICBjLTkuOTcsMC05Ljk3LDAtOS45NywwYy0wLjU2LDAtMC41NiwwLTAuNTYsMGMxLjM3LDQuODMtMC41LDUuNTQtOC42OCw1LjU0YzAsMi40OSwwLDIuNDksMCwyLjQ5YzEwLjQ4LDAsMTAuNDgsMCwxMC40OCwwICAgICBjNy41OSwwLDcuNTksMCw3LjU5LDBjOS43OSwwLDkuNzksMCw5Ljc5LDBjMC0yLjQ5LDAtMi40OSwwLTIuNDlDMTkuNzEsMzYuODEsMTguODksMzYuMSwyMC4yNiwzMS4yN3oiLz4mI3hhOwkJPC9nPiYjeGE7CQk8ZyBpZD0ic2hhcGU5NjY3LTYiIHRyYW5zZm9ybT0idHJhbnNsYXRlKDAsLTguMDI4MjIpIj4mI3hhOwkJCTx0aXRsZSBpZD0idGl0bGUxMzkzNjUiPlNoZWV0Ljk2Njc8L3RpdGxlPiYjeGE7CQkJPHBhdGggaWQ9InBhdGgxMzkzNjciIGlua3NjYXBlOmNvbm5lY3Rvci1jdXJ2YXR1cmU9IjAiIHN0eWxlPSJmaWxsOiNDNUM1QzU7IiBkPSJNMzkuNjMsOC4wM2MtMzcuMjYsMC0zNy4yNiwwLTM3LjI2LDAgICAgIEMxLjA2LDguMDMsMCw5LjE5LDAsMTAuNTFjMCwyNi40MSwwLDI2LjQxLDAsMjYuNDFjMCwxLjMyLDEuMDYsMi4zOCwyLjM3LDIuMzhjMzcuMjYsMCwzNy4yNiwwLDM3LjI2LDAgICAgIGMxLjI5LDAsMi41OS0xLjA2LDIuNTktMi4zOGMwLTI2LjQxLDAtMjYuNDEsMC0yNi40MUM0Mi4yMiw5LjE5LDQwLjkyLDguMDMsMzkuNjMsOC4wM3ogTTM5LDExLjMzYzAsMjQuNjksMCwyNC42OSwwLDI0LjY5ICAgICBjLTM1Ljc1LDAtMzUuNzUsMC0zNS43NSwwYzAtMjQuNjksMC0yNC42OSwwLTI0LjY5YzM1LjgzLTAuMDgsMzUuODMtMC4wOCwzNS44My0wLjA4TDM5LDExLjMzeiIvPiYjeGE7CQk8L2c+JiN4YTsJCTxnIGlkPSJzaGFwZTk2NjgtOCIgdHJhbnNmb3JtPSJ0cmFuc2xhdGUoMTMuNTA5NSwtMjQuMDg0NykiPiYjeGE7CQkJPHRpdGxlIGlkPSJ0aXRsZTEzOTM3MCI+U2hlZXQuOTY2ODwvdGl0bGU+JiN4YTsJCQk8cGF0aCBpZD0icGF0aDEzOTM3MiIgaW5rc2NhcGU6Y29ubmVjdG9yLWN1cnZhdHVyZT0iMCIgc3R5bGU9ImZpbGw6I0U2RjhGRTsiIGQ9Ik03LjYsMzAuNDJjLTAuMDgsMC0wLjA4LDAtMC4xNiwwICAgICBjLTcuMzMsNC4yNS03LjMzLDQuMjUtNy4zMyw0LjI1QzAsMzQuNjcsMCwzNC43NSwwLDM0LjgzczAsMC4xNiwwLjExLDAuMjRjNy40MSw0LjIzLDcuNDEsNC4yMyw3LjQxLDQuMjNINy42ICAgICBjMC4xLDAsMC4xLDAsMC4xOCwwYzcuMzQtNC4yMyw3LjM0LTQuMjMsNy4zNC00LjIzYzAuMDgsMCwwLjA4LTAuMDgsMC4wOC0wLjE2YzAtMC4wOCwwLTAuMTYtMC4wOC0wLjI0ICAgICBDNy43LDMwLjQyLDcuNywzMC40Miw3LjcsMzAuNDJINy42eiIvPiYjeGE7CQk8L2c+JiN4YTsJCTxnIGlkPSJzaGFwZTk2NjktMTAiIHRyYW5zZm9ybT0idHJhbnNsYXRlKDEyLjI0MywtMTMuNTIxMikiPiYjeGE7CQkJPHRpdGxlIGlkPSJ0aXRsZTEzOTM3NSI+U2hlZXQuOTY2OTwvdGl0bGU+JiN4YTsJCQk8cGF0aCBpZD0icGF0aDEzOTM3NyIgaW5rc2NhcGU6Y29ubmVjdG9yLWN1cnZhdHVyZT0iMCIgc3R5bGU9ImZpbGw6I0NDRjFGQzsiIGQ9Ik0wLjI2LDI1Ljc3Yy0wLjA4LDAtMC4wOCwwLTAuMTUsMCAgICAgQzAsMjUuNzcsMCwyNS44OCwwLDI1Ljk2YzAsOC43NCwwLDguNzQsMCw4Ljc0YzAsMC4wOCwwLDAuMTYsMC4xMSwwLjI0YzcuNTksNC4yOCw3LjU5LDQuMjgsNy41OSw0LjI4ICAgICBjMCwwLjA4LDAuMDgsMC4wOCwwLjA4LDAuMDhjMC4wOCwwLDAuMDgsMCwwLjE2LTAuMDhjMCwwLDAuMDgtMC4wOCwwLjA4LTAuMTZjMC04Ljc0LDAtOC43NCwwLTguNzRjMC0wLjA4LTAuMDgtMC4xNi0wLjA4LTAuMTYgICAgIGMtNy42LTQuMzktNy42LTQuMzktNy42LTQuMzlTMC4yNiwyNS43NywwLjI2LDI1Ljc3eiIvPiYjeGE7CQk8L2c+JiN4YTsJCTxnIGlkPSJzaGFwZTk2NzAtMTIiIHRyYW5zZm9ybT0idHJhbnNsYXRlKDIxLjk1MywtMTMuNTIxMikiPiYjeGE7CQkJPHRpdGxlIGlkPSJ0aXRsZTEzOTM4MCI+U2hlZXQuOTY3MDwvdGl0bGU+JiN4YTsJCQk8cGF0aCBpZD0icGF0aDEzOTM4MiIgaW5rc2NhcGU6Y29ubmVjdG9yLWN1cnZhdHVyZT0iMCIgc3R5bGU9ImZpbGw6IzgwRERGODsiIGQ9Ik03LjM5LDI1Ljc3YzAsMC0wLjA4LDAtMC4wOCwwLjExICAgICBjLTcuMTUsNC4yOC03LjE1LDQuMjgtNy4xNSw0LjI4QzAuMDgsMzAuMjQsMCwzMC4zMiwwLDMwLjRjMCw4LjY2LDAsOC42NiwwLDguNjZjMCwwLjA4LDAuMDgsMC4xNiwwLjE2LDAuMTYgICAgIGMwLDAuMDgsMCwwLjA4LDAuMDgsMC4wOGMwLDAsMC4wOCwwLDAuMDgtMC4wOGM3LjItNC4yOCw3LjItNC4yOCw3LjItNC4yOEM3LjYsMzQuODYsNy42LDM0Ljc4LDcuNiwzNC43YzAtOC42NiwwLTguNjYsMC04LjY2ICAgICBjMC0wLjA4LDAtMC4xNi0wLjA4LTAuMTZDNy40NywyNS43Nyw3LjQ3LDI1Ljc3LDcuMzksMjUuNzd6Ii8+JiN4YTsJCTwvZz4mI3hhOwk8L2c+JiN4YTs8L2c+JiN4YTs8L3N2Zz4=;fillColor=none;" vertex="1" parent="1">
          <mxGeometry x="2031.53" y="169" width="30.15" height="28" as="geometry" />
        </mxCell>
        <mxCell id="_9aK7tR2FCW0y13HPatD-26" value="Vnet-A" style="text;html=1;align=center;verticalAlign=middle;resizable=0;points=[];autosize=1;strokeColor=none;fillColor=none;" vertex="1" parent="1">
          <mxGeometry x="1538.9099999999999" y="33.5" width="47" height="18" as="geometry" />
        </mxCell>
        <mxCell id="_9aK7tR2FCW0y13HPatD-27" value="Vnet-B" style="text;html=1;align=center;verticalAlign=middle;resizable=0;points=[];autosize=1;strokeColor=none;fillColor=none;" vertex="1" parent="1">
          <mxGeometry x="1847.53" y="30.5" width="47" height="18" as="geometry" />
        </mxCell>
        <mxCell id="_9aK7tR2FCW0y13HPatD-28" value="Vnet-C" style="text;html=1;align=center;verticalAlign=middle;resizable=0;points=[];autosize=1;strokeColor=none;fillColor=none;" vertex="1" parent="1">
          <mxGeometry x="2023.11" y="226" width="47" height="18" as="geometry" />
        </mxCell>
        <mxCell id="_9aK7tR2FCW0y13HPatD-29" value="On-prem Location" style="text;html=1;align=center;verticalAlign=middle;resizable=0;points=[];autosize=1;strokeColor=none;fillColor=none;" vertex="1" parent="1">
          <mxGeometry x="968.98" y="519" width="106" height="18" as="geometry" />
        </mxCell>
        <mxCell id="_9aK7tR2FCW0y13HPatD-30" value="Location - A" style="text;html=1;align=center;verticalAlign=middle;resizable=0;points=[];autosize=1;strokeColor=none;fillColor=none;" vertex="1" parent="1">
          <mxGeometry x="1452" y="72" width="73" height="18" as="geometry" />
        </mxCell>
        <mxCell id="_9aK7tR2FCW0y13HPatD-31" value="Location - B" style="text;html=1;align=center;verticalAlign=middle;resizable=0;points=[];autosize=1;strokeColor=none;fillColor=none;" vertex="1" parent="1">
          <mxGeometry x="1760.53" y="62" width="74" height="18" as="geometry" />
        </mxCell>
        <mxCell id="_9aK7tR2FCW0y13HPatD-32" value="Location - C" style="text;html=1;align=center;verticalAlign=middle;resizable=0;points=[];autosize=1;strokeColor=none;fillColor=none;" vertex="1" parent="1">
          <mxGeometry x="2104.5299999999997" y="174" width="75" height="18" as="geometry" />
        </mxCell>
        <mxCell id="_9aK7tR2FCW0y13HPatD-33" value="On-prem-vm" style="text;html=1;align=center;verticalAlign=middle;resizable=0;points=[];autosize=1;strokeColor=none;fillColor=none;" vertex="1" parent="1">
          <mxGeometry x="1527.0300000000002" y="470" width="77" height="18" as="geometry" />
        </mxCell>
        <mxCell id="_9aK7tR2FCW0y13HPatD-34" value="VM-A" style="text;html=1;align=center;verticalAlign=middle;resizable=0;points=[];autosize=1;strokeColor=none;fillColor=none;" vertex="1" parent="1">
          <mxGeometry x="1545.5299999999997" y="90" width="40" height="18" as="geometry" />
        </mxCell>
        <mxCell id="_9aK7tR2FCW0y13HPatD-35" value="VM-B" style="text;html=1;align=center;verticalAlign=middle;resizable=0;points=[];autosize=1;strokeColor=none;fillColor=none;" vertex="1" parent="1">
          <mxGeometry x="1870.5299999999997" y="91" width="40" height="18" as="geometry" />
        </mxCell>
        <mxCell id="_9aK7tR2FCW0y13HPatD-36" value="VM-C" style="text;html=1;align=center;verticalAlign=middle;resizable=0;points=[];autosize=1;strokeColor=none;fillColor=none;" vertex="1" parent="1">
          <mxGeometry x="2026.61" y="198" width="41" height="18" as="geometry" />
        </mxCell>
        <mxCell id="_9aK7tR2FCW0y13HPatD-37" value="vHUB Address Space" style="text;html=1;align=center;verticalAlign=middle;resizable=0;points=[];autosize=1;strokeColor=none;fillColor=none;" vertex="1" parent="1">
          <mxGeometry x="1722.5299999999997" y="292" width="125" height="18" as="geometry" />
        </mxCell>
        <mxCell id="_9aK7tR2FCW0y13HPatD-38" value="vWAN" style="text;html=1;align=center;verticalAlign=middle;resizable=0;points=[];autosize=1;strokeColor=none;fillColor=none;" vertex="1" parent="1">
          <mxGeometry x="1065.9999999999998" y="313" width="44" height="18" as="geometry" />
        </mxCell>
        <mxCell id="_9aK7tR2FCW0y13HPatD-39" value="vHUB-1" style="text;html=1;align=center;verticalAlign=middle;resizable=0;points=[];autosize=1;strokeColor=none;fillColor=none;" vertex="1" parent="1">
          <mxGeometry x="1867.5299999999997" y="289" width="52" height="18" as="geometry" />
        </mxCell>
        <mxCell id="_9aK7tR2FCW0y13HPatD-40" value="Secured HUB" style="text;html=1;align=center;verticalAlign=middle;resizable=0;points=[];autosize=1;strokeColor=none;fillColor=none;" vertex="1" parent="1">
          <mxGeometry x="1382.9999999999998" y="272" width="83" height="18" as="geometry" />
        </mxCell>
        <mxCell id="_9aK7tR2FCW0y13HPatD-42" value="" style="shape=image;verticalLabelPosition=bottom;labelBackgroundColor=#ffffff;verticalAlign=top;aspect=fixed;imageAspect=0;image=data:image/svg+xml,PHN2ZyB4bWxuczpkYz0iaHR0cDovL3B1cmwub3JnL2RjL2VsZW1lbnRzLzEuMS8iIHhtbG5zOmNjPSJodHRwOi8vY3JlYXRpdmVjb21tb25zLm9yZy9ucyMiIHhtbG5zOnJkZj0iaHR0cDovL3d3dy53My5vcmcvMTk5OS8wMi8yMi1yZGYtc3ludGF4LW5zIyIgeG1sbnM6c3ZnPSJodHRwOi8vd3d3LnczLm9yZy8yMDAwL3N2ZyIgeG1sbnM9Imh0dHA6Ly93d3cudzMub3JnLzIwMDAvc3ZnIiB4bWxuczpzb2RpcG9kaT0iaHR0cDovL3NvZGlwb2RpLnNvdXJjZWZvcmdlLm5ldC9EVEQvc29kaXBvZGktMC5kdGQiIHhtbG5zOmlua3NjYXBlPSJodHRwOi8vd3d3Lmlua3NjYXBlLm9yZy9uYW1lc3BhY2VzL2lua3NjYXBlIiB2ZXJzaW9uPSIxLjEiIGlkPSJzdmc2MTAxMSIgaW5rc2NhcGU6dmVyc2lvbj0iMC45Mi4zICgyNDA1NTQ2LCAyMDE4LTAzLTExKSIgc29kaXBvZGk6ZG9jbmFtZT0iYXp1cmVfcG9ydGFsX3ZpcnR1YWxfbWFjaGluZXMuc3ZnIiB4PSIwcHgiIHk9IjBweCIgdmlld0JveD0iMCAwIDU3LjY0IDUzLjIwMDAwMiIgeG1sOnNwYWNlPSJwcmVzZXJ2ZSIgd2lkdGg9IjU3LjYzOTk5OSIgaGVpZ2h0PSI1My4yMDAwMDEiPjxtZXRhZGF0YSBpZD0ibWV0YWRhdGExMDk5MCI+PHJkZjpSREY+PGNjOldvcmsgcmRmOmFib3V0PSIiPjxkYzpmb3JtYXQ+aW1hZ2Uvc3ZnK3htbDwvZGM6Zm9ybWF0PjxkYzp0eXBlIHJkZjpyZXNvdXJjZT0iaHR0cDovL3B1cmwub3JnL2RjL2RjbWl0eXBlL1N0aWxsSW1hZ2UiLz48ZGM6dGl0bGUvPjwvY2M6V29yaz48L3JkZjpSREY+PC9tZXRhZGF0YT48ZGVmcyBpZD0iZGVmczEwOTg4Ii8+JiN4YTs8ZmlsdGVyIGlkPSJmaWx0ZXJfMiI+JiN4YTsJPGZlR2F1c3NpYW5CbHVyIGlkPSJmZUdhdXNzaWFuQmx1cjYwOTIwIiBzdGREZXZpYXRpb249IjIiLz4mI3hhOzwvZmlsdGVyPiYjeGE7PHNvZGlwb2RpOm5hbWVkdmlldyBib3JkZXJjb2xvcj0iIzY2NjY2NiIgYm9yZGVyb3BhY2l0eT0iMSIgZml0LW1hcmdpbi1ib3R0b209IjAiIGZpdC1tYXJnaW4tbGVmdD0iMCIgZml0LW1hcmdpbi1yaWdodD0iMCIgZml0LW1hcmdpbi10b3A9IjAiIGdyaWR0b2xlcmFuY2U9IjEwIiBndWlkZXRvbGVyYW5jZT0iMTAiIGlkPSJuYW1lZHZpZXc2MTAxMyIgaW5rc2NhcGU6Y3VycmVudC1sYXllcj0ic3ZnNjEwMTEiIGlua3NjYXBlOmN4PSItMzMuMTQzMzAzIiBpbmtzY2FwZTpjeT0iMjQuNjk2NTQ0IiBpbmtzY2FwZTpwYWdlb3BhY2l0eT0iMCIgaW5rc2NhcGU6cGFnZXNoYWRvdz0iMiIgaW5rc2NhcGU6d2luZG93LWhlaWdodD0iMTAxNyIgaW5rc2NhcGU6d2luZG93LW1heGltaXplZD0iMSIgaW5rc2NhcGU6d2luZG93LXdpZHRoPSIxOTIwIiBpbmtzY2FwZTp3aW5kb3cteD0iLTgiIGlua3NjYXBlOndpbmRvdy15PSItOCIgaW5rc2NhcGU6em9vbT0iNS45MTg3NzA5IiBvYmplY3R0b2xlcmFuY2U9IjEwIiBwYWdlY29sb3I9IiNmZmZmZmYiIHNob3dncmlkPSJmYWxzZSI+JiN4YTsJPC9zb2RpcG9kaTpuYW1lZHZpZXc+JiN4YTsmI3hhOzxwYXRoIGlkPSJwYXRoNjA5MzMiIGlua3NjYXBlOmNvbm5lY3Rvci1jdXJ2YXR1cmU9IjAiIHN0eWxlPSJmaWxsOiM3YTdhN2EiIGQ9Ik0gMzcuMzksNDIuMTIgSCAzNi4wMSAyMi40MiAyMS43MSBjIDEuODgsNi42NSAtMC42NSw3LjYgLTExLjczLDcuNiB2IDMuNDggaCAxNC4xIDEwLjI5IDEzLjMgdiAtMy40OCBjIC0xMS4wOCwwIC0xMi4xNywtMC45NSAtMTAuMjgsLTcuNiB6Ii8+JiN4YTsmI3hhOzxwYXRoIGlkPSJwYXRoNjA5NDEiIGlua3NjYXBlOmNvbm5lY3Rvci1jdXJ2YXR1cmU9IjAiIHN0eWxlPSJmaWxsOiNhMGExYTIiIGQ9Ik0gNTQuMTYsMCBIIDMuMTMgQyAxLjQsMCAwLDEuNTUgMCwzLjI4IHYgMzUuNTkgYyAwLDEuNzIgMS40LDMuMjUgMy4xMywzLjI1IGggNTEuMDMgYyAxLjczLDAgMy40OCwtMS41MyAzLjQ4LC0zLjI1IFYgMy4yOCBDIDU3LjY0LDEuNTUgNTUuODksMCA1NC4xNiwwIFoiLz4mI3hhOyYjeGE7PHBhdGggaWQ9InBhdGg2MDk0OSIgaW5rc2NhcGU6Y29ubmVjdG9yLWN1cnZhdHVyZT0iMCIgc3R5bGU9ImZpbGw6I2ZmZmZmZjtmaWxsLW9wYWNpdHk6MC4yIiBkPSJNIDU0LjIsMCBDIDU0LjE5LDAgNTQuMTcsMCA1NC4xNiwwIEggMy4xMyBDIDEuNCwwIDAsMS41NSAwLDMuMjggdiAzNS41OSBjIDAsMS43MiAxLjQsMy4yNSAzLjEzLDMuMjUgaCAxLjIyIHoiLz4mI3hhOyYjeGE7PHJlY3QgaWQ9InJlY3Q2MDk1NyIgeD0iNC4zNjk5OTUxIiB5PSI0LjQ0MDAwMDEiIHN0eWxlPSJmaWxsOiM1OWI0ZDkiIHdpZHRoPSI0OC43Nzk5OTkiIGhlaWdodD0iMzMuMjUiLz4mI3hhOyYjeGE7JiN4YTsmI3hhOzxyZWN0IGlkPSJyZWN0NjA5NzMiIHg9IjkuOTc5OTk1NyIgeT0iNDkuNzIwMDAxIiBzdHlsZT0iZmlsbDojYTBhMWEyIiB3aWR0aD0iMzcuNjg5OTk5IiBoZWlnaHQ9IjMuNDgiLz4mI3hhOyYjeGE7PHBhdGggaWQ9InBhdGg2MDk4MSIgaW5rc2NhcGU6Y29ubmVjdG9yLWN1cnZhdHVyZT0iMCIgc3R5bGU9ImZpbGw6I2I4ZDQzMiIgZD0ibSAyOS40MiwyLjQyIGMgMCwwLjQ1IC0wLjM3LDAuODEgLTAuODIsMC44MSAtMC40NiwwIC0wLjgyLC0wLjM2IC0wLjgyLC0wLjgxIDAsLTAuNDYgMC4zNiwtMC44MiAwLjgyLC0wLjgyIDAuNDUsMCAwLjgyLDAuMzYgMC44MiwwLjgyIHoiLz4mI3hhOyYjeGE7PHBhdGggaWQ9InBhdGg2MDk4OSIgaW5rc2NhcGU6Y29ubmVjdG9yLWN1cnZhdHVyZT0iMCIgc3R5bGU9ImZpbGw6I2ZmZmZmZiIgZD0ibSAyOS40NSwyMC4wNSBjIC0wLjA2LDAgLTAuMTEsLTAuMDEgLTAuMTYsLTAuMDQgTCAxOS4xNCwxNC4xNSBjIC0wLjA5LC0wLjA1IC0wLjE1LC0wLjE2IC0wLjE1LC0wLjI2IDAsLTAuMTEgMC4wNiwtMC4yMiAwLjE1LC0wLjI3IEwgMjkuMjMsNy44IGMgMC4xLC0wLjA1IDAuMjEsLTAuMDUgMC4zLDAgbCAxMC4xNiw1Ljg2IGMgMC4wOSwwLjA1IDAuMTUsMC4xNiAwLjE1LDAuMjcgMCwwLjExIC0wLjA2LDAuMjEgLTAuMTUsMC4yNiBMIDI5LjYsMjAuMDEgYyAtMC4wNSwwLjAzIC0wLjEsMC4wNCAtMC4xNSwwLjA0IHoiLz4mI3hhOyYjeGE7PHBhdGggaWQ9InBhdGg2MDk5NyIgaW5rc2NhcGU6Y29ubmVjdG9yLWN1cnZhdHVyZT0iMCIgc3R5bGU9ImZpbGw6I2ZmZmZmZjtmaWxsLW9wYWNpdHk6MC43IiBkPSJtIDI3Ljk5LDM0LjI5IGMgLTAuMDYsMCAtMC4xMSwtMC4wMSAtMC4xNSwtMC4wNCBMIDE3LjcyLDI4LjQxIGMgLTAuMSwtMC4wNSAtMC4xNiwtMC4xNSAtMC4xNiwtMC4yNiBWIDE2LjQzIGMgMCwtMC4xMSAwLjA2LC0wLjIyIDAuMTYsLTAuMjcgMC4wOSwtMC4wNiAwLjIxLC0wLjA2IDAuMzEsMCBMIDI4LjE0LDIyIGMgMC4wOSwwLjA2IDAuMTUsMC4xNiAwLjE1LDAuMjcgdiAxMS43MiBjIDAsMC4xMSAtMC4wNiwwLjIxIC0wLjE1LDAuMjYgLTAuMDUsMC4wMyAtMC4xLDAuMDQgLTAuMTUsMC4wNCB6Ii8+JiN4YTsmI3hhOzxwYXRoIGlkPSJwYXRoNjEwMDUiIGlua3NjYXBlOmNvbm5lY3Rvci1jdXJ2YXR1cmU9IjAiIHN0eWxlPSJmaWxsOiNmZmZmZmY7ZmlsbC1vcGFjaXR5OjAuNCIgZD0iTSAzMC44NiwzNC4yOSBDIDMwLjgsMzQuMjkgMzAuNzUsMzQuMjggMzAuNywzNC4yNSAzMC42MSwzNC4yIDMwLjU1LDM0LjEgMzAuNTUsMzMuOTkgViAyMi4zNCBjIDAsLTAuMTEgMC4wNiwtMC4yMSAwLjE1LC0wLjI3IGwgMTAuMTIsLTUuODMgYyAwLjA5LC0wLjA2IDAuMjEsLTAuMDYgMC4zLDAgMC4xLDAuMDUgMC4xNiwwLjE1IDAuMTYsMC4yNiB2IDExLjY1IGMgMCwwLjExIC0wLjA2LDAuMjEgLTAuMTYsMC4yNiBsIC0xMC4xMSw1Ljg0IGMgLTAuMDQsMC4wMyAtMC4xLDAuMDQgLTAuMTUsMC4wNCB6Ii8+JiN4YTs8L3N2Zz4=;" vertex="1" parent="1">
          <mxGeometry x="1335.15" y="701" width="32.83" height="30" as="geometry" />
        </mxCell>
        <mxCell id="_9aK7tR2FCW0y13HPatD-43" value="" style="shape=image;verticalLabelPosition=bottom;labelBackgroundColor=#ffffff;verticalAlign=top;aspect=fixed;imageAspect=0;image=data:image/svg+xml,PHN2ZyB4bWxuczpkYz0iaHR0cDovL3B1cmwub3JnL2RjL2VsZW1lbnRzLzEuMS8iIHhtbG5zOmNjPSJodHRwOi8vY3JlYXRpdmVjb21tb25zLm9yZy9ucyMiIHhtbG5zOnJkZj0iaHR0cDovL3d3dy53My5vcmcvMTk5OS8wMi8yMi1yZGYtc3ludGF4LW5zIyIgeG1sbnM6c3ZnPSJodHRwOi8vd3d3LnczLm9yZy8yMDAwL3N2ZyIgeG1sbnM9Imh0dHA6Ly93d3cudzMub3JnLzIwMDAvc3ZnIiB4bWxuczpzb2RpcG9kaT0iaHR0cDovL3NvZGlwb2RpLnNvdXJjZWZvcmdlLm5ldC9EVEQvc29kaXBvZGktMC5kdGQiIHhtbG5zOmlua3NjYXBlPSJodHRwOi8vd3d3Lmlua3NjYXBlLm9yZy9uYW1lc3BhY2VzL2lua3NjYXBlIiB2ZXJzaW9uPSIxLjEiIGlkPSJzdmc2MTAxMSIgaW5rc2NhcGU6dmVyc2lvbj0iMC45Mi4zICgyNDA1NTQ2LCAyMDE4LTAzLTExKSIgc29kaXBvZGk6ZG9jbmFtZT0iYXp1cmVfcG9ydGFsX3ZpcnR1YWxfbWFjaGluZXMuc3ZnIiB4PSIwcHgiIHk9IjBweCIgdmlld0JveD0iMCAwIDU3LjY0IDUzLjIwMDAwMiIgeG1sOnNwYWNlPSJwcmVzZXJ2ZSIgd2lkdGg9IjU3LjYzOTk5OSIgaGVpZ2h0PSI1My4yMDAwMDEiPjxtZXRhZGF0YSBpZD0ibWV0YWRhdGExMDk5MCI+PHJkZjpSREY+PGNjOldvcmsgcmRmOmFib3V0PSIiPjxkYzpmb3JtYXQ+aW1hZ2Uvc3ZnK3htbDwvZGM6Zm9ybWF0PjxkYzp0eXBlIHJkZjpyZXNvdXJjZT0iaHR0cDovL3B1cmwub3JnL2RjL2RjbWl0eXBlL1N0aWxsSW1hZ2UiLz48ZGM6dGl0bGUvPjwvY2M6V29yaz48L3JkZjpSREY+PC9tZXRhZGF0YT48ZGVmcyBpZD0iZGVmczEwOTg4Ii8+JiN4YTs8ZmlsdGVyIGlkPSJmaWx0ZXJfMiI+JiN4YTsJPGZlR2F1c3NpYW5CbHVyIGlkPSJmZUdhdXNzaWFuQmx1cjYwOTIwIiBzdGREZXZpYXRpb249IjIiLz4mI3hhOzwvZmlsdGVyPiYjeGE7PHNvZGlwb2RpOm5hbWVkdmlldyBib3JkZXJjb2xvcj0iIzY2NjY2NiIgYm9yZGVyb3BhY2l0eT0iMSIgZml0LW1hcmdpbi1ib3R0b209IjAiIGZpdC1tYXJnaW4tbGVmdD0iMCIgZml0LW1hcmdpbi1yaWdodD0iMCIgZml0LW1hcmdpbi10b3A9IjAiIGdyaWR0b2xlcmFuY2U9IjEwIiBndWlkZXRvbGVyYW5jZT0iMTAiIGlkPSJuYW1lZHZpZXc2MTAxMyIgaW5rc2NhcGU6Y3VycmVudC1sYXllcj0ic3ZnNjEwMTEiIGlua3NjYXBlOmN4PSItMzMuMTQzMzAzIiBpbmtzY2FwZTpjeT0iMjQuNjk2NTQ0IiBpbmtzY2FwZTpwYWdlb3BhY2l0eT0iMCIgaW5rc2NhcGU6cGFnZXNoYWRvdz0iMiIgaW5rc2NhcGU6d2luZG93LWhlaWdodD0iMTAxNyIgaW5rc2NhcGU6d2luZG93LW1heGltaXplZD0iMSIgaW5rc2NhcGU6d2luZG93LXdpZHRoPSIxOTIwIiBpbmtzY2FwZTp3aW5kb3cteD0iLTgiIGlua3NjYXBlOndpbmRvdy15PSItOCIgaW5rc2NhcGU6em9vbT0iNS45MTg3NzA5IiBvYmplY3R0b2xlcmFuY2U9IjEwIiBwYWdlY29sb3I9IiNmZmZmZmYiIHNob3dncmlkPSJmYWxzZSI+JiN4YTsJPC9zb2RpcG9kaTpuYW1lZHZpZXc+JiN4YTsmI3hhOzxwYXRoIGlkPSJwYXRoNjA5MzMiIGlua3NjYXBlOmNvbm5lY3Rvci1jdXJ2YXR1cmU9IjAiIHN0eWxlPSJmaWxsOiM3YTdhN2EiIGQ9Ik0gMzcuMzksNDIuMTIgSCAzNi4wMSAyMi40MiAyMS43MSBjIDEuODgsNi42NSAtMC42NSw3LjYgLTExLjczLDcuNiB2IDMuNDggaCAxNC4xIDEwLjI5IDEzLjMgdiAtMy40OCBjIC0xMS4wOCwwIC0xMi4xNywtMC45NSAtMTAuMjgsLTcuNiB6Ii8+JiN4YTsmI3hhOzxwYXRoIGlkPSJwYXRoNjA5NDEiIGlua3NjYXBlOmNvbm5lY3Rvci1jdXJ2YXR1cmU9IjAiIHN0eWxlPSJmaWxsOiNhMGExYTIiIGQ9Ik0gNTQuMTYsMCBIIDMuMTMgQyAxLjQsMCAwLDEuNTUgMCwzLjI4IHYgMzUuNTkgYyAwLDEuNzIgMS40LDMuMjUgMy4xMywzLjI1IGggNTEuMDMgYyAxLjczLDAgMy40OCwtMS41MyAzLjQ4LC0zLjI1IFYgMy4yOCBDIDU3LjY0LDEuNTUgNTUuODksMCA1NC4xNiwwIFoiLz4mI3hhOyYjeGE7PHBhdGggaWQ9InBhdGg2MDk0OSIgaW5rc2NhcGU6Y29ubmVjdG9yLWN1cnZhdHVyZT0iMCIgc3R5bGU9ImZpbGw6I2ZmZmZmZjtmaWxsLW9wYWNpdHk6MC4yIiBkPSJNIDU0LjIsMCBDIDU0LjE5LDAgNTQuMTcsMCA1NC4xNiwwIEggMy4xMyBDIDEuNCwwIDAsMS41NSAwLDMuMjggdiAzNS41OSBjIDAsMS43MiAxLjQsMy4yNSAzLjEzLDMuMjUgaCAxLjIyIHoiLz4mI3hhOyYjeGE7PHJlY3QgaWQ9InJlY3Q2MDk1NyIgeD0iNC4zNjk5OTUxIiB5PSI0LjQ0MDAwMDEiIHN0eWxlPSJmaWxsOiM1OWI0ZDkiIHdpZHRoPSI0OC43Nzk5OTkiIGhlaWdodD0iMzMuMjUiLz4mI3hhOyYjeGE7JiN4YTsmI3hhOzxyZWN0IGlkPSJyZWN0NjA5NzMiIHg9IjkuOTc5OTk1NyIgeT0iNDkuNzIwMDAxIiBzdHlsZT0iZmlsbDojYTBhMWEyIiB3aWR0aD0iMzcuNjg5OTk5IiBoZWlnaHQ9IjMuNDgiLz4mI3hhOyYjeGE7PHBhdGggaWQ9InBhdGg2MDk4MSIgaW5rc2NhcGU6Y29ubmVjdG9yLWN1cnZhdHVyZT0iMCIgc3R5bGU9ImZpbGw6I2I4ZDQzMiIgZD0ibSAyOS40MiwyLjQyIGMgMCwwLjQ1IC0wLjM3LDAuODEgLTAuODIsMC44MSAtMC40NiwwIC0wLjgyLC0wLjM2IC0wLjgyLC0wLjgxIDAsLTAuNDYgMC4zNiwtMC44MiAwLjgyLC0wLjgyIDAuNDUsMCAwLjgyLDAuMzYgMC44MiwwLjgyIHoiLz4mI3hhOyYjeGE7PHBhdGggaWQ9InBhdGg2MDk4OSIgaW5rc2NhcGU6Y29ubmVjdG9yLWN1cnZhdHVyZT0iMCIgc3R5bGU9ImZpbGw6I2ZmZmZmZiIgZD0ibSAyOS40NSwyMC4wNSBjIC0wLjA2LDAgLTAuMTEsLTAuMDEgLTAuMTYsLTAuMDQgTCAxOS4xNCwxNC4xNSBjIC0wLjA5LC0wLjA1IC0wLjE1LC0wLjE2IC0wLjE1LC0wLjI2IDAsLTAuMTEgMC4wNiwtMC4yMiAwLjE1LC0wLjI3IEwgMjkuMjMsNy44IGMgMC4xLC0wLjA1IDAuMjEsLTAuMDUgMC4zLDAgbCAxMC4xNiw1Ljg2IGMgMC4wOSwwLjA1IDAuMTUsMC4xNiAwLjE1LDAuMjcgMCwwLjExIC0wLjA2LDAuMjEgLTAuMTUsMC4yNiBMIDI5LjYsMjAuMDEgYyAtMC4wNSwwLjAzIC0wLjEsMC4wNCAtMC4xNSwwLjA0IHoiLz4mI3hhOyYjeGE7PHBhdGggaWQ9InBhdGg2MDk5NyIgaW5rc2NhcGU6Y29ubmVjdG9yLWN1cnZhdHVyZT0iMCIgc3R5bGU9ImZpbGw6I2ZmZmZmZjtmaWxsLW9wYWNpdHk6MC43IiBkPSJtIDI3Ljk5LDM0LjI5IGMgLTAuMDYsMCAtMC4xMSwtMC4wMSAtMC4xNSwtMC4wNCBMIDE3LjcyLDI4LjQxIGMgLTAuMSwtMC4wNSAtMC4xNiwtMC4xNSAtMC4xNiwtMC4yNiBWIDE2LjQzIGMgMCwtMC4xMSAwLjA2LC0wLjIyIDAuMTYsLTAuMjcgMC4wOSwtMC4wNiAwLjIxLC0wLjA2IDAuMzEsMCBMIDI4LjE0LDIyIGMgMC4wOSwwLjA2IDAuMTUsMC4xNiAwLjE1LDAuMjcgdiAxMS43MiBjIDAsMC4xMSAtMC4wNiwwLjIxIC0wLjE1LDAuMjYgLTAuMDUsMC4wMyAtMC4xLDAuMDQgLTAuMTUsMC4wNCB6Ii8+JiN4YTsmI3hhOzxwYXRoIGlkPSJwYXRoNjEwMDUiIGlua3NjYXBlOmNvbm5lY3Rvci1jdXJ2YXR1cmU9IjAiIHN0eWxlPSJmaWxsOiNmZmZmZmY7ZmlsbC1vcGFjaXR5OjAuNCIgZD0iTSAzMC44NiwzNC4yOSBDIDMwLjgsMzQuMjkgMzAuNzUsMzQuMjggMzAuNywzNC4yNSAzMC42MSwzNC4yIDMwLjU1LDM0LjEgMzAuNTUsMzMuOTkgViAyMi4zNCBjIDAsLTAuMTEgMC4wNiwtMC4yMSAwLjE1LC0wLjI3IGwgMTAuMTIsLTUuODMgYyAwLjA5LC0wLjA2IDAuMjEsLTAuMDYgMC4zLDAgMC4xLDAuMDUgMC4xNiwwLjE1IDAuMTYsMC4yNiB2IDExLjY1IGMgMCwwLjExIC0wLjA2LDAuMjEgLTAuMTYsMC4yNiBsIC0xMC4xMSw1Ljg0IGMgLTAuMDQsMC4wMyAtMC4xLDAuMDQgLTAuMTUsMC4wNCB6Ii8+JiN4YTs8L3N2Zz4=;" vertex="1" parent="1">
          <mxGeometry x="1027.53" y="705" width="32.83" height="30" as="geometry" />
        </mxCell>
        <mxCell id="_9aK7tR2FCW0y13HPatD-44" value="" style="shape=image;verticalLabelPosition=bottom;labelBackgroundColor=#ffffff;verticalAlign=top;aspect=fixed;imageAspect=0;image=data:image/svg+xml,PHN2ZyB4bWxuczpjYz0iaHR0cDovL2NyZWF0aXZlY29tbW9ucy5vcmcvbnMjIiB4bWxuczpkYz0iaHR0cDovL3B1cmwub3JnL2RjL2VsZW1lbnRzLzEuMS8iIHhtbG5zOmlua3NjYXBlPSJodHRwOi8vd3d3Lmlua3NjYXBlLm9yZy9uYW1lc3BhY2VzL2lua3NjYXBlIiB4bWxuczpyZGY9Imh0dHA6Ly93d3cudzMub3JnLzE5OTkvMDIvMjItcmRmLXN5bnRheC1ucyMiIHhtbG5zOnNvZGlwb2RpPSJodHRwOi8vc29kaXBvZGkuc291cmNlZm9yZ2UubmV0L0RURC9zb2RpcG9kaS0wLmR0ZCIgeG1sbnM6c3ZnPSJodHRwOi8vd3d3LnczLm9yZy8yMDAwL3N2ZyIgeG1sbnM9Imh0dHA6Ly93d3cudzMub3JnLzIwMDAvc3ZnIiB4bWxuczp4bGluaz0iaHR0cDovL3d3dy53My5vcmcvMTk5OS94bGluayIgdmVyc2lvbj0iMS4xIiBpZD0ic3ZnMTAxNjY1IiBpbmtzY2FwZTp2ZXJzaW9uPSIwLjkyLjMgKDI0MDU1NDYsIDIwMTgtMDMtMTEpIiBzb2RpcG9kaTpkb2NuYW1lPSJ2aXJ0dWFsX3dhbi5zdmciIHg9IjBweCIgeT0iMHB4IiB2aWV3Qm94PSIwIDAgMzUuODUgMzUuODYiIHN0eWxlPSJlbmFibGUtYmFja2dyb3VuZDpuZXcgMCAwIDM1Ljg1IDM1Ljg2OyIgeG1sOnNwYWNlPSJwcmVzZXJ2ZSI+JiN4YTs8c29kaXBvZGk6bmFtZWR2aWV3IGJvcmRlcmNvbG9yPSIjNjY2NjY2IiBib3JkZXJvcGFjaXR5PSIxIiBmaXQtbWFyZ2luLWJvdHRvbT0iMCIgZml0LW1hcmdpbi1sZWZ0PSIwIiBmaXQtbWFyZ2luLXJpZ2h0PSIwIiBmaXQtbWFyZ2luLXRvcD0iMCIgZ3JpZHRvbGVyYW5jZT0iMTAiIGd1aWRldG9sZXJhbmNlPSIxMCIgaWQ9Im5hbWVkdmlldzEwMTY2NyIgaW5rc2NhcGU6Y3VycmVudC1sYXllcj0ic3ZnMTAxNjY1IiBpbmtzY2FwZTpjeD0iNC44OTUzNjM0IiBpbmtzY2FwZTpjeT0iMTcuMTcwMDE4IiBpbmtzY2FwZTpwYWdlb3BhY2l0eT0iMCIgaW5rc2NhcGU6cGFnZXNoYWRvdz0iMiIgaW5rc2NhcGU6d2luZG93LWhlaWdodD0iMTAxNyIgaW5rc2NhcGU6d2luZG93LW1heGltaXplZD0iMSIgaW5rc2NhcGU6d2luZG93LXdpZHRoPSIxOTIwIiBpbmtzY2FwZTp3aW5kb3cteD0iLTgiIGlua3NjYXBlOndpbmRvdy15PSItOCIgaW5rc2NhcGU6em9vbT0iOC43MDQ4MTkxIiBvYmplY3R0b2xlcmFuY2U9IjEwIiBwYWdlY29sb3I9IiNmZmZmZmYiIHNob3dncmlkPSJmYWxzZSI+JiN4YTsJPC9zb2RpcG9kaTpuYW1lZHZpZXc+JiN4YTs8ZyBpZD0iZzEwMTY2MyIgdHJhbnNmb3JtPSJ0cmFuc2xhdGUoLTAuNzUsLTAuNzQ1KSI+JiN4YTsJPHRpdGxlIGlkPSJ0aXRsZTEwMTYwMiI+UGFnZS0xPC90aXRsZT4mI3hhOwk8ZyBpZD0iZ3JvdXA1OTM3LTEiIHRyYW5zZm9ybT0idHJhbnNsYXRlKDAuNzUsLTAuNzUpIj4mI3hhOwkJPHRpdGxlIGlkPSJ0aXRsZTEwMTYwNCI+VmlydHVhbCBXQU48L3RpdGxlPiYjeGE7CQk8ZyBpZD0ic2hhcGU1OTM4LTIiIHRyYW5zZm9ybT0idHJhbnNsYXRlKDAsLTEzLjQyNSkiPiYjeGE7CQkJPHRpdGxlIGlkPSJ0aXRsZTEwMTYwNiI+U2hlZXQuNTkzODwvdGl0bGU+JiN4YTsJCQk8cGF0aCBpZD0icGF0aDEwMTYwOCIgaW5rc2NhcGU6Y29ubmVjdG9yLWN1cnZhdHVyZT0iMCIgc3R5bGU9ImZpbGw6IzU5QjREOTsiIGQ9Ik0yOC44OCwyMy43Yy0wLjAxLDAtMC4wMiwwLTAuMDMsMCAgICAgYy0wLjI2LTQuODktNC4zNy04Ljc4LTkuNDMtOC43OGMtMy43LDAtNi44OSwyLjA4LTguNDUsNS4xMWMtMC42NC0wLjE1LTEuMzItMC4yMy0yLjAxLTAuMjNDNC4wMSwxOS44LDAsMjMuNzMsMCwyOC41NyAgICAgYzAsNC44NSw0LjAxLDguNzgsOC45Niw4Ljc4aDE5LjkyYzMuODUsMCw2Ljk3LTMuMDYsNi45Ny02LjgzQzM1Ljg1LDI2Ljc2LDMyLjczLDIzLjcsMjguODgsMjMuN3oiLz4mI3hhOwkJPC9nPiYjeGE7CQk8ZyBpZD0ic2hhcGU1OTM5LTQiIHRyYW5zZm9ybT0idHJhbnNsYXRlKDAsLTEzLjQyNSkiPiYjeGE7CQkJPHRpdGxlIGlkPSJ0aXRsZTEwMTYxMSI+U2hlZXQuNTkzOTwvdGl0bGU+JiN4YTsJCQk8cGF0aCBpZD0icGF0aDEwMTYxMyIgaW5rc2NhcGU6Y29ubmVjdG9yLWN1cnZhdHVyZT0iMCIgc3R5bGU9ImZpbGw6I0ZGRkZGRjtmaWxsLW9wYWNpdHk6MC4yOyIgZD0iTTI4Ljg4LDIzLjcgICAgIGMtMC4wMSwwLTAuMDIsMC0wLjAzLDBjLTAuMjYtNC44OS00LjM3LTguNzgtOS40My04Ljc4Yy0zLjcsMC02Ljg5LDIuMDgtOC40NSw1LjExYy0wLjY0LTAuMTUtMS4zMi0wLjIzLTIuMDEtMC4yMyAgICAgQzQuMDEsMTkuOCwwLDIzLjczLDAsMjguNTdjMCw0Ljg1LDQuMDEsOC43OCw4Ljk2LDguNzhoMTkuOTJjMy44NSwwLDYuOTctMy4wNiw2Ljk3LTYuODNDMzUuODUsMjYuNzYsMzIuNzMsMjMuNywyOC44OCwyMy43eiIvPiYjeGE7CQk8L2c+JiN4YTsJCTxnIGlkPSJncm91cDU5NDAtNiIgdHJhbnNmb3JtPSJ0cmFuc2xhdGUoNikiPiYjeGE7CQkJPHRpdGxlIGlkPSJ0aXRsZTEwMTYxNiI+U2hlZXQuNTk0MDwvdGl0bGU+JiN4YTsJCQk8ZyBpZD0iZ3JvdXA1OTQxLTciPiYjeGE7CQkJCTx0aXRsZSBpZD0idGl0bGUxMDE2MTgiPlNoZWV0LjU5NDE8L3RpdGxlPiYjeGE7CQkJCTxnIGlkPSJzaGFwZTU5NDItOCIgdHJhbnNmb3JtPSJ0cmFuc2xhdGUoMC41NjI1LC0wLjU2MjUpIj4mI3hhOwkJCQkJPHRpdGxlIGlkPSJ0aXRsZTEwMTYyMCI+U2hlZXQuNTk0MjwvdGl0bGU+JiN4YTsJCQkJCTxwYXRoIGlkPSJwYXRoMTAxNjIyIiBpbmtzY2FwZTpjb25uZWN0b3ItY3VydmF0dXJlPSIwIiBzdHlsZT0iZmlsbDojRkZGRkZGOyIgZD0iTTEyLjExLDM3LjM1QzUuNDMsMzcuMzUsMCwzMS45MiwwLDI1LjI0ICAgICAgIHM1LjQzLTEyLjEyLDEyLjExLTEyLjEyczEyLjEyLDUuNDQsMTIuMTIsMTIuMTJTMTguNzksMzcuMzUsMTIuMTEsMzcuMzV6Ii8+JiN4YTsJCQkJPC9nPiYjeGE7CQkJCTxnIGlkPSJzaGFwZTU5NDMtMTAiPiYjeGE7CQkJCQk8dGl0bGUgaWQ9InRpdGxlMTAxNjI1Ij5TaGVldC41OTQzPC90aXRsZT4mI3hhOwkJCQkJPHBhdGggaWQ9InBhdGgxMDE2MjciIGlua3NjYXBlOmNvbm5lY3Rvci1jdXJ2YXR1cmU9IjAiIHN0eWxlPSJmaWxsOiM4MDQ5OTg7IiBkPSJNMTIuNjgsMTMuMTJjNi4zNiwwLDExLjU1LDUuMTksMTEuNTUsMTEuNTUgICAgICAgYzAsNi4zNy01LjE5LDExLjU1LTExLjU1LDExLjU1Yy02LjM3LDAtMTEuNTUtNS4xOC0xMS41NS0xMS41NUMxLjEzLDE4LjMxLDYuMzEsMTMuMTIsMTIuNjgsMTMuMTJ6IE0xMi42OCwxMiAgICAgICBDNS42NywxMiwwLDE3LjY3LDAsMjQuNjdjMCw3LjAxLDUuNjcsMTIuNjgsMTIuNjgsMTIuNjhjNywwLDEyLjY3LTUuNjcsMTIuNjctMTIuNjhDMjUuMzUsMTcuNjcsMTkuNjgsMTIsMTIuNjgsMTJ6Ii8+JiN4YTsJCQkJPC9nPiYjeGE7CQkJPC9nPiYjeGE7CQkJPGcgaWQ9InNoYXBlNTk0NC0xMiIgdHJhbnNmb3JtPSJyb3RhdGUoLTcwLjAwMTIsLTUuNTYyMTk2NSwyMS40NjM2MzkpIj4mI3hhOwkJCQk8dGl0bGUgaWQ9InRpdGxlMTAxNjMxIj5TaGVldC41OTQ0PC90aXRsZT4mI3hhOwkJCQk8Y2lyY2xlIGlkPSJlbGxpcHNlMTAxNjMzIiBzdHlsZT0iZmlsbDojODA0OTk4OyIgY3g9IjIuMzkiIGN5PSIzNC45NiIgcj0iMi4zOSIvPiYjeGE7CQkJPC9nPiYjeGE7CQkJPGcgaWQ9InNoYXBlNTk0NS0xNCIgdHJhbnNmb3JtPSJyb3RhdGUoLTcwLjAwMTIsNC4zNTk2MzYsMTcuOTAyNjc0KSI+JiN4YTsJCQkJPHRpdGxlIGlkPSJ0aXRsZTEwMTYzNiI+U2hlZXQuNTk0NTwvdGl0bGU+JiN4YTsJCQkJPGNpcmNsZSBpZD0iZWxsaXBzZTEwMTYzOCIgc3R5bGU9ImZpbGw6IzgwNDk5ODsiIGN4PSIyLjM5IiBjeT0iMzQuOTYiIHI9IjIuMzkiLz4mI3hhOwkJCTwvZz4mI3hhOwkJCTxnIGlkPSJzaGFwZTU5NDYtMTYiIHRyYW5zZm9ybT0icm90YXRlKC03MC4wMDEyLDEuNTIwNzM0OCwyOC4zNTU1OTEpIj4mI3hhOwkJCQk8dGl0bGUgaWQ9InRpdGxlMTAxNjQxIj5TaGVldC41OTQ2PC90aXRsZT4mI3hhOwkJCQk8Y2lyY2xlIGlkPSJlbGxpcHNlMTAxNjQzIiBzdHlsZT0iZmlsbDojODA0OTk4OyIgY3g9IjIuMzkiIGN5PSIzNC45NiIgcj0iMi4zOSIvPiYjeGE7CQkJPC9nPiYjeGE7CQkJPGcgaWQ9InNoYXBlNTk0Ny0xOCIgdHJhbnNmb3JtPSJ0cmFuc2xhdGUoMC44MTk3NSwtMS43NjU1KSI+JiN4YTsJCQkJPHRpdGxlIGlkPSJ0aXRsZTEwMTY0NiI+U2hlZXQuNTk0NzwvdGl0bGU+JiN4YTsJCQkJPHBhdGggaWQ9InBhdGgxMDE2NDgiIGlua3NjYXBlOmNvbm5lY3Rvci1jdXJ2YXR1cmU9IjAiIHN0eWxlPSJmaWxsOiM4MDQ5OTg7IiBkPSJNNi40NSwxOS4wN2MtMS45NiwwLTMuODUsMC40LTUuNjQsMS4yMSAgICAgIEMwLjUsMjAuODQsMC4yMywyMS40MSwwLDIyLjAyYzEuOTUtMS4xNyw0LjE3LTEuNzksNi40NS0xLjc5YzYuOTYsMCwxMi42Miw1LjY3LDEyLjYyLDEyLjYzYzAsMS41Mi0wLjI3LDMuMDEtMC44MSw0LjQzICAgICAgbC0wLjAyLDAuMDZjMC41My0wLjMyLDEuMDQtMC42NywxLjUyLTEuMDZjMC4yOC0xLjEsMC40Ny0yLjI5LDAuNDctMy40M0MyMC4yMywyNS4yNSwxNC4wNSwxOS4wNyw2LjQ1LDE5LjA3eiIvPiYjeGE7CQkJPC9nPiYjeGE7CQkJPGcgaWQ9InNoYXBlNTk0OC0yMCIgdHJhbnNmb3JtPSJ0cmFuc2xhdGUoNi44NDE1LC0wLjAxNDI1KSI+JiN4YTsJCQkJPHRpdGxlIGlkPSJ0aXRsZTEwMTY1MSI+U2hlZXQuNTk0ODwvdGl0bGU+JiN4YTsJCQkJPHBhdGggaWQ9InBhdGgxMDE2NTMiIGlua3NjYXBlOmNvbm5lY3Rvci1jdXJ2YXR1cmU9IjAiIHN0eWxlPSJmaWxsOiM4MDQ5OTg7IiBkPSJNMTEuMjksMTMuMzhjLTAuNTktMC4yOC0xLjItMC41Mi0xLjg0LTAuNzIgICAgICBDMy43OSwxNC41NCwwLDE5Ljc2LDAsMjUuNzVjMCw0LjcyLDIuMzcsOS4wNSw2LjM0LDExLjZjMC42Ny0wLjAzLDEuMzItMC4xMSwxLjk2LTAuMjRsLTAuMDYtMC4wMyAgICAgIGMtNC4zNi0yLjE1LTcuMDctNi40OS03LjA3LTExLjMzQzEuMTcsMTkuNzUsNS40MiwxNC41NywxMS4yOSwxMy4zOHoiLz4mI3hhOwkJCTwvZz4mI3hhOwkJCTxnIGlkPSJzaGFwZTU5NDktMjIiIHRyYW5zZm9ybT0idHJhbnNsYXRlKDQuNTQ1LC0yLjE4NTUpIj4mI3hhOwkJCQk8dGl0bGUgaWQ9InRpdGxlMTAxNjU2Ij5TaGVldC41OTQ5PC90aXRsZT4mI3hhOwkJCQk8cGF0aCBpZD0icGF0aDEwMTY1OCIgaW5rc2NhcGU6Y29ubmVjdG9yLWN1cnZhdHVyZT0iMCIgc3R5bGU9ImZpbGw6IzgwNDk5ODsiIGQ9Ik0yMC4yNywzMC4xOGMwLjExLTAuNDEsMC4yLTAuODQsMC4yNy0xLjI4ICAgICAgYy0yLjE2LTEuMy00LjYyLTEuOTktNy4xNC0xLjk5Yy02LDAtMTEuMzgsMy44LTEzLjM5LDkuNjJMMCwzNi41NmwwLjAzLDAuMDNjMC4yNywwLjIzLDAuNTYsMC40NSwwLjg1LDAuNjcgICAgICBjMC4wNSwwLjAzLDAuMDksMC4wNiwwLjEzLDAuMDlsMC4wMi0wLjA3YzEuNzUtNS41Myw2LjcyLTkuMTQsMTIuMzctOS4xNEMxNS44NSwyOC4xNCwxOC4yLDI4Ljg1LDIwLjI3LDMwLjE4eiIvPiYjeGE7CQkJPC9nPiYjeGE7CQk8L2c+JiN4YTsJPC9nPiYjeGE7PC9nPiYjeGE7PC9zdmc+;" vertex="1" parent="1">
          <mxGeometry x="980.53" y="801" width="36" height="36" as="geometry" />
        </mxCell>
        <mxCell id="_9aK7tR2FCW0y13HPatD-45" value="" style="aspect=fixed;html=1;points=[];align=center;image;fontSize=12;image=img/lib/azure2/networking/Virtual_Network_Gateways.svg;" vertex="1" parent="1">
          <mxGeometry x="996.53" y="856" width="25.62" height="34" as="geometry" />
        </mxCell>
        <mxCell id="_9aK7tR2FCW0y13HPatD-46" value="" style="aspect=fixed;html=1;points=[];align=center;image;fontSize=12;image=img/lib/azure2/networking/Virtual_Networks.svg;" vertex="1" parent="1">
          <mxGeometry x="1072.38" y="670" width="38.53" height="23" as="geometry" />
        </mxCell>
        <mxCell id="_9aK7tR2FCW0y13HPatD-47" value="" style="aspect=fixed;html=1;points=[];align=center;image;fontSize=12;image=img/lib/azure2/networking/Firewalls.svg;" vertex="1" parent="1">
          <mxGeometry x="1272.53" y="849" width="34.32" height="29" as="geometry" />
        </mxCell>
        <mxCell id="_9aK7tR2FCW0y13HPatD-48" value="" style="shape=image;verticalLabelPosition=bottom;labelBackgroundColor=#ffffff;verticalAlign=top;aspect=fixed;imageAspect=0;image=data:image/svg+xml,PHN2ZyB4bWxuczpjYz0iaHR0cDovL2NyZWF0aXZlY29tbW9ucy5vcmcvbnMjIiB4bWxuczpkYz0iaHR0cDovL3B1cmwub3JnL2RjL2VsZW1lbnRzLzEuMS8iIHhtbG5zOmlua3NjYXBlPSJodHRwOi8vd3d3Lmlua3NjYXBlLm9yZy9uYW1lc3BhY2VzL2lua3NjYXBlIiB4bWxuczpyZGY9Imh0dHA6Ly93d3cudzMub3JnLzE5OTkvMDIvMjItcmRmLXN5bnRheC1ucyMiIHhtbG5zOnNvZGlwb2RpPSJodHRwOi8vc29kaXBvZGkuc291cmNlZm9yZ2UubmV0L0RURC9zb2RpcG9kaS0wLmR0ZCIgeG1sbnM6c3ZnPSJodHRwOi8vd3d3LnczLm9yZy8yMDAwL3N2ZyIgeG1sbnM9Imh0dHA6Ly93d3cudzMub3JnLzIwMDAvc3ZnIiB4bWxuczp4bGluaz0iaHR0cDovL3d3dy53My5vcmcvMTk5OS94bGluayIgdmVyc2lvbj0iMS4xIiBpZD0ic3ZnMTQ5NyIgaW5rc2NhcGU6dmVyc2lvbj0iMC45Mi4zICgyNDA1NTQ2LCAyMDE4LTAzLTExKSIgc29kaXBvZGk6ZG9jbmFtZT0iYXBwbGUuc3ZnIiB4PSIwcHgiIHk9IjBweCIgdmlld0JveD0iMCAwIDc0LjY3IDcwLjQiIHN0eWxlPSJlbmFibGUtYmFja2dyb3VuZDpuZXcgMCAwIDc0LjY3IDcwLjQ7IiB4bWw6c3BhY2U9InByZXNlcnZlIj4mI3hhOzxzb2RpcG9kaTpuYW1lZHZpZXcgYm9yZGVyY29sb3I9IiM2NjY2NjYiIGJvcmRlcm9wYWNpdHk9IjEiIGZpdC1tYXJnaW4tYm90dG9tPSIwIiBmaXQtbWFyZ2luLWxlZnQ9IjAiIGZpdC1tYXJnaW4tcmlnaHQ9IjAiIGZpdC1tYXJnaW4tdG9wPSIwIiBncmlkdG9sZXJhbmNlPSIxMCIgZ3VpZGV0b2xlcmFuY2U9IjEwIiBpZD0ibmFtZWR2aWV3MTQ5OSIgaW5rc2NhcGU6Y3VycmVudC1sYXllcj0ic3ZnMTQ5NyIgaW5rc2NhcGU6Y3g9IjQ5Ljc3NTk3NyIgaW5rc2NhcGU6Y3k9IjQ2LjkzNDUyOSIgaW5rc2NhcGU6cGFnZW9wYWNpdHk9IjAiIGlua3NjYXBlOnBhZ2VzaGFkb3c9IjIiIGlua3NjYXBlOndpbmRvdy1oZWlnaHQ9IjEwMTciIGlua3NjYXBlOndpbmRvdy1tYXhpbWl6ZWQ9IjEiIGlua3NjYXBlOndpbmRvdy13aWR0aD0iMTkyMCIgaW5rc2NhcGU6d2luZG93LXg9Ii04IiBpbmtzY2FwZTp3aW5kb3cteT0iLTgiIGlua3NjYXBlOnpvb209IjguMjkwNDk0NCIgb2JqZWN0dG9sZXJhbmNlPSIxMCIgcGFnZWNvbG9yPSIjZmZmZmZmIiBzaG93Z3JpZD0iZmFsc2UiPiYjeGE7CTwvc29kaXBvZGk6bmFtZWR2aWV3PiYjeGE7PGcgaWQ9ImcxNDk1IiB0cmFuc2Zvcm09InRyYW5zbGF0ZSgtNC4wMTU4MTgzLC00LjAxMjcxMTQpIj4mI3hhOwk8dGl0bGUgaWQ9InRpdGxlMTQ3MCI+UGFnZS0xPC90aXRsZT4mI3hhOwk8ZyBpZD0iZ3JvdXAzODEwLTEiIHRyYW5zZm9ybT0idHJhbnNsYXRlKDQuMDE1NzcsLTQuMDE1NzUpIj4mI3hhOwkJPHRpdGxlIGlkPSJ0aXRsZTE0NzIiPkFwcGxlPC90aXRsZT4mI3hhOwkJPGcgaWQ9InNoYXBlMzgxMS0yIiB0cmFuc2Zvcm09InRyYW5zbGF0ZSgyNC4zOTgxLC00LjA2NjM1KSI+JiN4YTsJCQk8dGl0bGUgaWQ9InRpdGxlMTQ3NCI+U2hlZXQuMzgxMTwvdGl0bGU+JiN4YTsJCQk8cmVjdCBpZD0icmVjdDE0NzYiIHg9IjAiIHk9IjY4LjEiIHN0eWxlPSJmaWxsOiMyQzQyNEY7IiB3aWR0aD0iMjUuODciIGhlaWdodD0iMTAuMzQiLz4mI3hhOwkJPC9nPiYjeGE7CQk8ZyBpZD0ic2hhcGUzODEyLTQiIHRyYW5zZm9ybT0idHJhbnNsYXRlKDE1LjI4NTUpIj4mI3hhOwkJCTx0aXRsZSBpZD0idGl0bGUxNDc5Ij5TaGVldC4zODEyPC90aXRsZT4mI3hhOwkJCTxyZWN0IGlkPSJyZWN0MTQ4MSIgeD0iMCIgeT0iNzQuMzciIHN0eWxlPSJmaWxsOiNCQkMyQzY7IiB3aWR0aD0iNDQuMDkiIGhlaWdodD0iNC4wNyIvPiYjeGE7CQk8L2c+JiN4YTsJCTxnIGlkPSJzaGFwZTM4MTMtNiIgdHJhbnNmb3JtPSJ0cmFuc2xhdGUoMCwtMTQuNDAzNykiPiYjeGE7CQkJPHRpdGxlIGlkPSJ0aXRsZTE0ODQiPlNoZWV0LjM4MTM8L3RpdGxlPiYjeGE7CQkJPHBhdGggaWQ9InBhdGgxNDg2IiBpbmtzY2FwZTpjb25uZWN0b3ItY3VydmF0dXJlPSIwIiBzdHlsZT0iZmlsbDojQkJDMkM2OyIgZD0iTTAsNjQuNzJ2MTEuMDdjMCwxLjQ2LDEuMTgsMi42NCwyLjYzLDIuNjQgICAgIGMwLjAxLDAsMC4wMSwwLDAuMDIsMGg2OS4zMmMxLjQ2LDAuMDEsMi42NC0xLjE3LDIuNjUtMi42MmMwLTAuMDEsMC0wLjAxLDAtMC4wMlY2NC43MkgweiIvPiYjeGE7CQk8L2c+JiN4YTsJCTxnIGlkPSJzaGFwZTM4MTQtOCIgdHJhbnNmb3JtPSJ0cmFuc2xhdGUoMC4wNDg5OTIxLC0yOC4xMjE1KSI+JiN4YTsJCQk8dGl0bGUgaWQ9InRpdGxlMTQ4OSI+U2hlZXQuMzgxNDwvdGl0bGU+JiN4YTsJCQk8cGF0aCBpZD0icGF0aDE0OTEiIGlua3NjYXBlOmNvbm5lY3Rvci1jdXJ2YXR1cmU9IjAiIHN0eWxlPSJmaWxsOiM1MjdGOTk7IiBkPSJNNzQuNjIsMzguOGMwLjAxLTEuNDYtMS4xNy0yLjY0LTIuNjItMi42NSAgICAgYy0wLjAxLDAtMC4wMiwwLTAuMDMsMEgyLjY1QzEuMTksMzYuMTQsMC4wMSwzNy4zMiwwLDM4Ljc3YzAsMC4wMSwwLDAuMDIsMCwwLjAzdjM5LjYzaDc0LjYyVjM4Ljh6Ii8+JiN4YTsJCTwvZz4mI3hhOwk8L2c+JiN4YTs8L2c+JiN4YTs8L3N2Zz4=;" vertex="1" parent="1">
          <mxGeometry x="990.91" y="1070" width="32.14" height="30" as="geometry" />
        </mxCell>
        <mxCell id="_9aK7tR2FCW0y13HPatD-49" value="" style="aspect=fixed;html=1;points=[];align=center;image;fontSize=12;image=img/lib/azure2/networking/Virtual_Network_Gateways.svg;" vertex="1" parent="1">
          <mxGeometry x="994.41" y="1027" width="25.62" height="34" as="geometry" />
        </mxCell>
        <mxCell id="_9aK7tR2FCW0y13HPatD-50" value="" style="sketch=0;points=[[0.5,0,0],[1,0.5,0],[0.5,1,0],[0,0.5,0],[0.145,0.145,0],[0.8555,0.145,0],[0.855,0.8555,0],[0.145,0.855,0]];verticalLabelPosition=bottom;html=1;verticalAlign=top;aspect=fixed;align=center;pointerEvents=1;shape=mxgraph.cisco19.rect;prIcon=router;fillColor=#FAFAFA;strokeColor=#005073;" vertex="1" parent="1">
          <mxGeometry x="1165.53" y="801" width="35" height="35" as="geometry" />
        </mxCell>
        <mxCell id="_9aK7tR2FCW0y13HPatD-51" style="edgeStyle=orthogonalEdgeStyle;rounded=0;orthogonalLoop=1;jettySize=auto;html=1;shape=link;" edge="1" parent="1" source="_9aK7tR2FCW0y13HPatD-52" target="_9aK7tR2FCW0y13HPatD-60">
          <mxGeometry relative="1" as="geometry">
            <Array as="points">
              <mxPoint x="992.53" y="939" />
              <mxPoint x="992.53" y="939" />
            </Array>
          </mxGeometry>
        </mxCell>
        <mxCell id="_9aK7tR2FCW0y13HPatD-52" value="" style="shape=image;verticalLabelPosition=bottom;labelBackgroundColor=#ffffff;verticalAlign=top;aspect=fixed;imageAspect=0;image=data:image/svg+xml,PHN2ZyB4bWxuczpjYz0iaHR0cDovL2NyZWF0aXZlY29tbW9ucy5vcmcvbnMjIiB4bWxuczpkYz0iaHR0cDovL3B1cmwub3JnL2RjL2VsZW1lbnRzLzEuMS8iIHhtbG5zOmlua3NjYXBlPSJodHRwOi8vd3d3Lmlua3NjYXBlLm9yZy9uYW1lc3BhY2VzL2lua3NjYXBlIiB4bWxuczpyZGY9Imh0dHA6Ly93d3cudzMub3JnLzE5OTkvMDIvMjItcmRmLXN5bnRheC1ucyMiIHhtbG5zOnNvZGlwb2RpPSJodHRwOi8vc29kaXBvZGkuc291cmNlZm9yZ2UubmV0L0RURC9zb2RpcG9kaS0wLmR0ZCIgeG1sbnM6c3ZnPSJodHRwOi8vd3d3LnczLm9yZy8yMDAwL3N2ZyIgeG1sbnM9Imh0dHA6Ly93d3cudzMub3JnLzIwMDAvc3ZnIiB4bWxuczp4bGluaz0iaHR0cDovL3d3dy53My5vcmcvMTk5OS94bGluayIgdmVyc2lvbj0iMS4xIiBpZD0ic3ZnMzExNTkiIGlua3NjYXBlOnZlcnNpb249IjAuOTIuMyAoMjQwNTU0NiwgMjAxOC0wMy0xMSkiIHNvZGlwb2RpOmRvY25hbWU9Im1vbml0b3JfY2xlYW4uc3ZnIiB4PSIwcHgiIHk9IjBweCIgdmlld0JveD0iMCAwIDY0IDQ4LjMyIiBzdHlsZT0iZW5hYmxlLWJhY2tncm91bmQ6bmV3IDAgMCA2NCA0OC4zMjsiIHhtbDpzcGFjZT0icHJlc2VydmUiPiYjeGE7PHNvZGlwb2RpOm5hbWVkdmlldyBib3JkZXJjb2xvcj0iIzY2NjY2NiIgYm9yZGVyb3BhY2l0eT0iMSIgZml0LW1hcmdpbi1ib3R0b209IjAiIGZpdC1tYXJnaW4tbGVmdD0iMCIgZml0LW1hcmdpbi1yaWdodD0iMCIgZml0LW1hcmdpbi10b3A9IjAiIGdyaWR0b2xlcmFuY2U9IjEwIiBndWlkZXRvbGVyYW5jZT0iMTAiIGlkPSJuYW1lZHZpZXczMTE2MSIgaW5rc2NhcGU6Y3VycmVudC1sYXllcj0ic3ZnMzExNTkiIGlua3NjYXBlOmN4PSI0Mi42NjgxMTIiIGlua3NjYXBlOmN5PSIzMi4yMTA1ODQiIGlua3NjYXBlOnBhZ2VvcGFjaXR5PSIwIiBpbmtzY2FwZTpwYWdlc2hhZG93PSIyIiBpbmtzY2FwZTp3aW5kb3ctaGVpZ2h0PSIxMDE3IiBpbmtzY2FwZTp3aW5kb3ctbWF4aW1pemVkPSIxIiBpbmtzY2FwZTp3aW5kb3ctd2lkdGg9IjE5MjAiIGlua3NjYXBlOndpbmRvdy14PSItOCIgaW5rc2NhcGU6d2luZG93LXk9Ii04IiBpbmtzY2FwZTp6b29tPSIxMy40NTYwMTkiIG9iamVjdHRvbGVyYW5jZT0iMTAiIHBhZ2Vjb2xvcj0iI2ZmZmZmZiIgc2hvd2dyaWQ9ImZhbHNlIj4mI3hhOwk8L3NvZGlwb2RpOm5hbWVkdmlldz4mI3hhOzxnIGlkPSJnMzExNTciPiYjeGE7CTx0aXRsZSBpZD0idGl0bGUzMTE0MiI+UGFnZS0xPC90aXRsZT4mI3hhOwk8ZyBpZD0iZ3JvdXAzODk0LTEiPiYjeGE7CQk8dGl0bGUgaWQ9InRpdGxlMzExNDQiPk1vbml0b3IgKENsZWFuKTwvdGl0bGU+JiN4YTsJCTxnIGlkPSJzaGFwZTM4OTUtMiI+JiN4YTsJCQk8dGl0bGUgaWQ9InRpdGxlMzExNDYiPlNoZWV0LjM4OTU8L3RpdGxlPiYjeGE7CQkJPHBhdGggaWQ9InBhdGgzMTE0OCIgaW5rc2NhcGU6Y29ubmVjdG9yLWN1cnZhdHVyZT0iMCIgc3R5bGU9ImZpbGw6IzNGNTc2NTsiIGQ9Ik0wLDQ4LjMyaDY0VjBIMFY0OC4zMnogTTMuODYsNC4yMWg1Ni4zNXYzOS45NyAgICAgSDMuODZWNC4yMXoiLz4mI3hhOwkJPC9nPiYjeGE7CQk8ZyBpZD0ic2hhcGUzODk2LTQiIHRyYW5zZm9ybT0idHJhbnNsYXRlKDI5LjE5NCwtNy44NjY3MikiPiYjeGE7CQkJPHRpdGxlIGlkPSJ0aXRsZTMxMTUxIj5TaGVldC4zODk2PC90aXRsZT4mI3hhOwkJCTxwYXRoIGlkPSJwYXRoMzExNTMiIGlua3NjYXBlOmNvbm5lY3Rvci1jdXJ2YXR1cmU9IjAiIHN0eWxlPSJmaWxsOiMzRjU3NjU7IiBkPSJNMCw0My44M3Y0LjQ5aDQuNDl2LTQuNDlIMHoiLz4mI3hhOwkJPC9nPiYjeGE7CTwvZz4mI3hhOzwvZz4mI3hhOzwvc3ZnPg==;" vertex="1" parent="1">
          <mxGeometry x="987.2" y="892" width="29.33" height="22" as="geometry" />
        </mxCell>
        <mxCell id="_9aK7tR2FCW0y13HPatD-53" style="rounded=0;orthogonalLoop=1;jettySize=auto;html=1;entryX=0.75;entryY=0;entryDx=0;entryDy=0;shape=link;" edge="1" parent="1" source="_9aK7tR2FCW0y13HPatD-54" target="_9aK7tR2FCW0y13HPatD-61">
          <mxGeometry relative="1" as="geometry" />
        </mxCell>
        <mxCell id="_9aK7tR2FCW0y13HPatD-54" value="" style="shape=image;verticalLabelPosition=bottom;labelBackgroundColor=#ffffff;verticalAlign=top;aspect=fixed;imageAspect=0;image=data:image/svg+xml,PHN2ZyB4bWxuczpjYz0iaHR0cDovL2NyZWF0aXZlY29tbW9ucy5vcmcvbnMjIiB4bWxuczpkYz0iaHR0cDovL3B1cmwub3JnL2RjL2VsZW1lbnRzLzEuMS8iIHhtbG5zOmlua3NjYXBlPSJodHRwOi8vd3d3Lmlua3NjYXBlLm9yZy9uYW1lc3BhY2VzL2lua3NjYXBlIiB4bWxuczpyZGY9Imh0dHA6Ly93d3cudzMub3JnLzE5OTkvMDIvMjItcmRmLXN5bnRheC1ucyMiIHhtbG5zOnNvZGlwb2RpPSJodHRwOi8vc29kaXBvZGkuc291cmNlZm9yZ2UubmV0L0RURC9zb2RpcG9kaS0wLmR0ZCIgeG1sbnM6c3ZnPSJodHRwOi8vd3d3LnczLm9yZy8yMDAwL3N2ZyIgeG1sbnM9Imh0dHA6Ly93d3cudzMub3JnLzIwMDAvc3ZnIiB4bWxuczp4bGluaz0iaHR0cDovL3d3dy53My5vcmcvMTk5OS94bGluayIgdmVyc2lvbj0iMS4xIiBpZD0ic3ZnMzExNTkiIGlua3NjYXBlOnZlcnNpb249IjAuOTIuMyAoMjQwNTU0NiwgMjAxOC0wMy0xMSkiIHNvZGlwb2RpOmRvY25hbWU9Im1vbml0b3JfY2xlYW4uc3ZnIiB4PSIwcHgiIHk9IjBweCIgdmlld0JveD0iMCAwIDY0IDQ4LjMyIiBzdHlsZT0iZW5hYmxlLWJhY2tncm91bmQ6bmV3IDAgMCA2NCA0OC4zMjsiIHhtbDpzcGFjZT0icHJlc2VydmUiPiYjeGE7PHNvZGlwb2RpOm5hbWVkdmlldyBib3JkZXJjb2xvcj0iIzY2NjY2NiIgYm9yZGVyb3BhY2l0eT0iMSIgZml0LW1hcmdpbi1ib3R0b209IjAiIGZpdC1tYXJnaW4tbGVmdD0iMCIgZml0LW1hcmdpbi1yaWdodD0iMCIgZml0LW1hcmdpbi10b3A9IjAiIGdyaWR0b2xlcmFuY2U9IjEwIiBndWlkZXRvbGVyYW5jZT0iMTAiIGlkPSJuYW1lZHZpZXczMTE2MSIgaW5rc2NhcGU6Y3VycmVudC1sYXllcj0ic3ZnMzExNTkiIGlua3NjYXBlOmN4PSI0Mi42NjgxMTIiIGlua3NjYXBlOmN5PSIzMi4yMTA1ODQiIGlua3NjYXBlOnBhZ2VvcGFjaXR5PSIwIiBpbmtzY2FwZTpwYWdlc2hhZG93PSIyIiBpbmtzY2FwZTp3aW5kb3ctaGVpZ2h0PSIxMDE3IiBpbmtzY2FwZTp3aW5kb3ctbWF4aW1pemVkPSIxIiBpbmtzY2FwZTp3aW5kb3ctd2lkdGg9IjE5MjAiIGlua3NjYXBlOndpbmRvdy14PSItOCIgaW5rc2NhcGU6d2luZG93LXk9Ii04IiBpbmtzY2FwZTp6b29tPSIxMy40NTYwMTkiIG9iamVjdHRvbGVyYW5jZT0iMTAiIHBhZ2Vjb2xvcj0iI2ZmZmZmZiIgc2hvd2dyaWQ9ImZhbHNlIj4mI3hhOwk8L3NvZGlwb2RpOm5hbWVkdmlldz4mI3hhOzxnIGlkPSJnMzExNTciPiYjeGE7CTx0aXRsZSBpZD0idGl0bGUzMTE0MiI+UGFnZS0xPC90aXRsZT4mI3hhOwk8ZyBpZD0iZ3JvdXAzODk0LTEiPiYjeGE7CQk8dGl0bGUgaWQ9InRpdGxlMzExNDQiPk1vbml0b3IgKENsZWFuKTwvdGl0bGU+JiN4YTsJCTxnIGlkPSJzaGFwZTM4OTUtMiI+JiN4YTsJCQk8dGl0bGUgaWQ9InRpdGxlMzExNDYiPlNoZWV0LjM4OTU8L3RpdGxlPiYjeGE7CQkJPHBhdGggaWQ9InBhdGgzMTE0OCIgaW5rc2NhcGU6Y29ubmVjdG9yLWN1cnZhdHVyZT0iMCIgc3R5bGU9ImZpbGw6IzNGNTc2NTsiIGQ9Ik0wLDQ4LjMyaDY0VjBIMFY0OC4zMnogTTMuODYsNC4yMWg1Ni4zNXYzOS45NyAgICAgSDMuODZWNC4yMXoiLz4mI3hhOwkJPC9nPiYjeGE7CQk8ZyBpZD0ic2hhcGUzODk2LTQiIHRyYW5zZm9ybT0idHJhbnNsYXRlKDI5LjE5NCwtNy44NjY3MikiPiYjeGE7CQkJPHRpdGxlIGlkPSJ0aXRsZTMxMTUxIj5TaGVldC4zODk2PC90aXRsZT4mI3hhOwkJCTxwYXRoIGlkPSJwYXRoMzExNTMiIGlua3NjYXBlOmNvbm5lY3Rvci1jdXJ2YXR1cmU9IjAiIHN0eWxlPSJmaWxsOiMzRjU3NjU7IiBkPSJNMCw0My44M3Y0LjQ5aDQuNDl2LTQuNDlIMHoiLz4mI3hhOwkJPC9nPiYjeGE7CTwvZz4mI3hhOzwvZz4mI3hhOzwvc3ZnPg==;" vertex="1" parent="1">
          <mxGeometry x="1020.03" y="892" width="29.33" height="22" as="geometry" />
        </mxCell>
        <mxCell id="_9aK7tR2FCW0y13HPatD-55" style="edgeStyle=none;shape=link;rounded=0;orthogonalLoop=1;jettySize=auto;html=1;entryX=0.182;entryY=-0.001;entryDx=0;entryDy=0;entryPerimeter=0;" edge="1" parent="1" source="_9aK7tR2FCW0y13HPatD-56" target="_9aK7tR2FCW0y13HPatD-57">
          <mxGeometry relative="1" as="geometry" />
        </mxCell>
        <mxCell id="_9aK7tR2FCW0y13HPatD-56" value="" style="rounded=0;whiteSpace=wrap;html=1;fillColor=none;" vertex="1" parent="1">
          <mxGeometry x="990.91" y="690" width="120" height="60" as="geometry" />
        </mxCell>
        <mxCell id="_9aK7tR2FCW0y13HPatD-57" value="" style="rounded=0;whiteSpace=wrap;html=1;fillColor=none;" vertex="1" parent="1">
          <mxGeometry x="977" y="791" width="397" height="158" as="geometry" />
        </mxCell>
        <mxCell id="_9aK7tR2FCW0y13HPatD-58" style="edgeStyle=none;shape=link;rounded=0;orthogonalLoop=1;jettySize=auto;html=1;entryX=0.944;entryY=0.009;entryDx=0;entryDy=0;entryPerimeter=0;" edge="1" parent="1" source="_9aK7tR2FCW0y13HPatD-59" target="_9aK7tR2FCW0y13HPatD-57">
          <mxGeometry relative="1" as="geometry" />
        </mxCell>
        <mxCell id="_9aK7tR2FCW0y13HPatD-59" value="" style="rounded=0;whiteSpace=wrap;html=1;fillColor=none;" vertex="1" parent="1">
          <mxGeometry x="1292.53" y="688" width="120" height="60" as="geometry" />
        </mxCell>
        <mxCell id="_9aK7tR2FCW0y13HPatD-60" value="" style="shape=image;verticalLabelPosition=bottom;labelBackgroundColor=#ffffff;verticalAlign=top;aspect=fixed;imageAspect=0;image=data:image/svg+xml,PHN2ZyB4bWxuczpjYz0iaHR0cDovL2NyZWF0aXZlY29tbW9ucy5vcmcvbnMjIiB4bWxuczpkYz0iaHR0cDovL3B1cmwub3JnL2RjL2VsZW1lbnRzLzEuMS8iIHhtbG5zOmlua3NjYXBlPSJodHRwOi8vd3d3Lmlua3NjYXBlLm9yZy9uYW1lc3BhY2VzL2lua3NjYXBlIiB4bWxuczpyZGY9Imh0dHA6Ly93d3cudzMub3JnLzE5OTkvMDIvMjItcmRmLXN5bnRheC1ucyMiIHhtbG5zOnNvZGlwb2RpPSJodHRwOi8vc29kaXBvZGkuc291cmNlZm9yZ2UubmV0L0RURC9zb2RpcG9kaS0wLmR0ZCIgeG1sbnM6c3ZnPSJodHRwOi8vd3d3LnczLm9yZy8yMDAwL3N2ZyIgeG1sbnM9Imh0dHA6Ly93d3cudzMub3JnLzIwMDAvc3ZnIiB4bWxuczp4bGluaz0iaHR0cDovL3d3dy53My5vcmcvMTk5OS94bGluayIgdmVyc2lvbj0iMS4xIiBpZD0ic3ZnMzExNTkiIGlua3NjYXBlOnZlcnNpb249IjAuOTIuMyAoMjQwNTU0NiwgMjAxOC0wMy0xMSkiIHNvZGlwb2RpOmRvY25hbWU9Im1vbml0b3JfY2xlYW4uc3ZnIiB4PSIwcHgiIHk9IjBweCIgdmlld0JveD0iMCAwIDY0IDQ4LjMyIiBzdHlsZT0iZW5hYmxlLWJhY2tncm91bmQ6bmV3IDAgMCA2NCA0OC4zMjsiIHhtbDpzcGFjZT0icHJlc2VydmUiPiYjeGE7PHNvZGlwb2RpOm5hbWVkdmlldyBib3JkZXJjb2xvcj0iIzY2NjY2NiIgYm9yZGVyb3BhY2l0eT0iMSIgZml0LW1hcmdpbi1ib3R0b209IjAiIGZpdC1tYXJnaW4tbGVmdD0iMCIgZml0LW1hcmdpbi1yaWdodD0iMCIgZml0LW1hcmdpbi10b3A9IjAiIGdyaWR0b2xlcmFuY2U9IjEwIiBndWlkZXRvbGVyYW5jZT0iMTAiIGlkPSJuYW1lZHZpZXczMTE2MSIgaW5rc2NhcGU6Y3VycmVudC1sYXllcj0ic3ZnMzExNTkiIGlua3NjYXBlOmN4PSI0Mi42NjgxMTIiIGlua3NjYXBlOmN5PSIzMi4yMTA1ODQiIGlua3NjYXBlOnBhZ2VvcGFjaXR5PSIwIiBpbmtzY2FwZTpwYWdlc2hhZG93PSIyIiBpbmtzY2FwZTp3aW5kb3ctaGVpZ2h0PSIxMDE3IiBpbmtzY2FwZTp3aW5kb3ctbWF4aW1pemVkPSIxIiBpbmtzY2FwZTp3aW5kb3ctd2lkdGg9IjE5MjAiIGlua3NjYXBlOndpbmRvdy14PSItOCIgaW5rc2NhcGU6d2luZG93LXk9Ii04IiBpbmtzY2FwZTp6b29tPSIxMy40NTYwMTkiIG9iamVjdHRvbGVyYW5jZT0iMTAiIHBhZ2Vjb2xvcj0iI2ZmZmZmZiIgc2hvd2dyaWQ9ImZhbHNlIj4mI3hhOwk8L3NvZGlwb2RpOm5hbWVkdmlldz4mI3hhOzxnIGlkPSJnMzExNTciPiYjeGE7CTx0aXRsZSBpZD0idGl0bGUzMTE0MiI+UGFnZS0xPC90aXRsZT4mI3hhOwk8ZyBpZD0iZ3JvdXAzODk0LTEiPiYjeGE7CQk8dGl0bGUgaWQ9InRpdGxlMzExNDQiPk1vbml0b3IgKENsZWFuKTwvdGl0bGU+JiN4YTsJCTxnIGlkPSJzaGFwZTM4OTUtMiI+JiN4YTsJCQk8dGl0bGUgaWQ9InRpdGxlMzExNDYiPlNoZWV0LjM4OTU8L3RpdGxlPiYjeGE7CQkJPHBhdGggaWQ9InBhdGgzMTE0OCIgaW5rc2NhcGU6Y29ubmVjdG9yLWN1cnZhdHVyZT0iMCIgc3R5bGU9ImZpbGw6IzNGNTc2NTsiIGQ9Ik0wLDQ4LjMyaDY0VjBIMFY0OC4zMnogTTMuODYsNC4yMWg1Ni4zNXYzOS45NyAgICAgSDMuODZWNC4yMXoiLz4mI3hhOwkJPC9nPiYjeGE7CQk8ZyBpZD0ic2hhcGUzODk2LTQiIHRyYW5zZm9ybT0idHJhbnNsYXRlKDI5LjE5NCwtNy44NjY3MikiPiYjeGE7CQkJPHRpdGxlIGlkPSJ0aXRsZTMxMTUxIj5TaGVldC4zODk2PC90aXRsZT4mI3hhOwkJCTxwYXRoIGlkPSJwYXRoMzExNTMiIGlua3NjYXBlOmNvbm5lY3Rvci1jdXJ2YXR1cmU9IjAiIHN0eWxlPSJmaWxsOiMzRjU3NjU7IiBkPSJNMCw0My44M3Y0LjQ5aDQuNDl2LTQuNDlIMHoiLz4mI3hhOwkJPC9nPiYjeGE7CTwvZz4mI3hhOzwvZz4mI3hhOzwvc3ZnPg==;" vertex="1" parent="1">
          <mxGeometry x="977.53" y="1005" width="29.33" height="22" as="geometry" />
        </mxCell>
        <mxCell id="_9aK7tR2FCW0y13HPatD-61" value="" style="shape=image;verticalLabelPosition=bottom;labelBackgroundColor=#ffffff;verticalAlign=top;aspect=fixed;imageAspect=0;image=data:image/svg+xml,PHN2ZyB4bWxuczpjYz0iaHR0cDovL2NyZWF0aXZlY29tbW9ucy5vcmcvbnMjIiB4bWxuczpkYz0iaHR0cDovL3B1cmwub3JnL2RjL2VsZW1lbnRzLzEuMS8iIHhtbG5zOmlua3NjYXBlPSJodHRwOi8vd3d3Lmlua3NjYXBlLm9yZy9uYW1lc3BhY2VzL2lua3NjYXBlIiB4bWxuczpyZGY9Imh0dHA6Ly93d3cudzMub3JnLzE5OTkvMDIvMjItcmRmLXN5bnRheC1ucyMiIHhtbG5zOnNvZGlwb2RpPSJodHRwOi8vc29kaXBvZGkuc291cmNlZm9yZ2UubmV0L0RURC9zb2RpcG9kaS0wLmR0ZCIgeG1sbnM6c3ZnPSJodHRwOi8vd3d3LnczLm9yZy8yMDAwL3N2ZyIgeG1sbnM9Imh0dHA6Ly93d3cudzMub3JnLzIwMDAvc3ZnIiB4bWxuczp4bGluaz0iaHR0cDovL3d3dy53My5vcmcvMTk5OS94bGluayIgdmVyc2lvbj0iMS4xIiBpZD0ic3ZnMzExNTkiIGlua3NjYXBlOnZlcnNpb249IjAuOTIuMyAoMjQwNTU0NiwgMjAxOC0wMy0xMSkiIHNvZGlwb2RpOmRvY25hbWU9Im1vbml0b3JfY2xlYW4uc3ZnIiB4PSIwcHgiIHk9IjBweCIgdmlld0JveD0iMCAwIDY0IDQ4LjMyIiBzdHlsZT0iZW5hYmxlLWJhY2tncm91bmQ6bmV3IDAgMCA2NCA0OC4zMjsiIHhtbDpzcGFjZT0icHJlc2VydmUiPiYjeGE7PHNvZGlwb2RpOm5hbWVkdmlldyBib3JkZXJjb2xvcj0iIzY2NjY2NiIgYm9yZGVyb3BhY2l0eT0iMSIgZml0LW1hcmdpbi1ib3R0b209IjAiIGZpdC1tYXJnaW4tbGVmdD0iMCIgZml0LW1hcmdpbi1yaWdodD0iMCIgZml0LW1hcmdpbi10b3A9IjAiIGdyaWR0b2xlcmFuY2U9IjEwIiBndWlkZXRvbGVyYW5jZT0iMTAiIGlkPSJuYW1lZHZpZXczMTE2MSIgaW5rc2NhcGU6Y3VycmVudC1sYXllcj0ic3ZnMzExNTkiIGlua3NjYXBlOmN4PSI0Mi42NjgxMTIiIGlua3NjYXBlOmN5PSIzMi4yMTA1ODQiIGlua3NjYXBlOnBhZ2VvcGFjaXR5PSIwIiBpbmtzY2FwZTpwYWdlc2hhZG93PSIyIiBpbmtzY2FwZTp3aW5kb3ctaGVpZ2h0PSIxMDE3IiBpbmtzY2FwZTp3aW5kb3ctbWF4aW1pemVkPSIxIiBpbmtzY2FwZTp3aW5kb3ctd2lkdGg9IjE5MjAiIGlua3NjYXBlOndpbmRvdy14PSItOCIgaW5rc2NhcGU6d2luZG93LXk9Ii04IiBpbmtzY2FwZTp6b29tPSIxMy40NTYwMTkiIG9iamVjdHRvbGVyYW5jZT0iMTAiIHBhZ2Vjb2xvcj0iI2ZmZmZmZiIgc2hvd2dyaWQ9ImZhbHNlIj4mI3hhOwk8L3NvZGlwb2RpOm5hbWVkdmlldz4mI3hhOzxnIGlkPSJnMzExNTciPiYjeGE7CTx0aXRsZSBpZD0idGl0bGUzMTE0MiI+UGFnZS0xPC90aXRsZT4mI3hhOwk8ZyBpZD0iZ3JvdXAzODk0LTEiPiYjeGE7CQk8dGl0bGUgaWQ9InRpdGxlMzExNDQiPk1vbml0b3IgKENsZWFuKTwvdGl0bGU+JiN4YTsJCTxnIGlkPSJzaGFwZTM4OTUtMiI+JiN4YTsJCQk8dGl0bGUgaWQ9InRpdGxlMzExNDYiPlNoZWV0LjM4OTU8L3RpdGxlPiYjeGE7CQkJPHBhdGggaWQ9InBhdGgzMTE0OCIgaW5rc2NhcGU6Y29ubmVjdG9yLWN1cnZhdHVyZT0iMCIgc3R5bGU9ImZpbGw6IzNGNTc2NTsiIGQ9Ik0wLDQ4LjMyaDY0VjBIMFY0OC4zMnogTTMuODYsNC4yMWg1Ni4zNXYzOS45NyAgICAgSDMuODZWNC4yMXoiLz4mI3hhOwkJPC9nPiYjeGE7CQk8ZyBpZD0ic2hhcGUzODk2LTQiIHRyYW5zZm9ybT0idHJhbnNsYXRlKDI5LjE5NCwtNy44NjY3MikiPiYjeGE7CQkJPHRpdGxlIGlkPSJ0aXRsZTMxMTUxIj5TaGVldC4zODk2PC90aXRsZT4mI3hhOwkJCTxwYXRoIGlkPSJwYXRoMzExNTMiIGlua3NjYXBlOmNvbm5lY3Rvci1jdXJ2YXR1cmU9IjAiIHN0eWxlPSJmaWxsOiMzRjU3NjU7IiBkPSJNMCw0My44M3Y0LjQ5aDQuNDl2LTQuNDlIMHoiLz4mI3hhOwkJPC9nPiYjeGE7CTwvZz4mI3hhOzwvZz4mI3hhOzwvc3ZnPg==;" vertex="1" parent="1">
          <mxGeometry x="1012.53" y="1005" width="29.33" height="22" as="geometry" />
        </mxCell>
        <mxCell id="_9aK7tR2FCW0y13HPatD-62" value="" style="aspect=fixed;html=1;points=[];align=center;image;fontSize=12;image=img/lib/azure2/networking/Virtual_Networks.svg;" vertex="1" parent="1">
          <mxGeometry x="1374" y="667" width="38.53" height="23" as="geometry" />
        </mxCell>
        <mxCell id="_9aK7tR2FCW0y13HPatD-63" style="edgeStyle=none;shape=link;rounded=0;orthogonalLoop=1;jettySize=auto;html=1;entryX=1;entryY=0.25;entryDx=0;entryDy=0;" edge="1" parent="1" source="_9aK7tR2FCW0y13HPatD-64" target="_9aK7tR2FCW0y13HPatD-57">
          <mxGeometry relative="1" as="geometry" />
        </mxCell>
        <mxCell id="_9aK7tR2FCW0y13HPatD-64" value="" style="rounded=0;whiteSpace=wrap;html=1;fillColor=none;" vertex="1" parent="1">
          <mxGeometry x="1434.53" y="801" width="120" height="60" as="geometry" />
        </mxCell>
        <mxCell id="_9aK7tR2FCW0y13HPatD-65" value="" style="shape=image;verticalLabelPosition=bottom;labelBackgroundColor=#ffffff;verticalAlign=top;aspect=fixed;imageAspect=0;image=data:image/svg+xml,PHN2ZyB4bWxuczpjYz0iaHR0cDovL2NyZWF0aXZlY29tbW9ucy5vcmcvbnMjIiB4bWxuczpkYz0iaHR0cDovL3B1cmwub3JnL2RjL2VsZW1lbnRzLzEuMS8iIHhtbG5zOmlua3NjYXBlPSJodHRwOi8vd3d3Lmlua3NjYXBlLm9yZy9uYW1lc3BhY2VzL2lua3NjYXBlIiB4bWxuczpyZGY9Imh0dHA6Ly93d3cudzMub3JnLzE5OTkvMDIvMjItcmRmLXN5bnRheC1ucyMiIHhtbG5zOnNvZGlwb2RpPSJodHRwOi8vc29kaXBvZGkuc291cmNlZm9yZ2UubmV0L0RURC9zb2RpcG9kaS0wLmR0ZCIgeG1sbnM6c3ZnPSJodHRwOi8vd3d3LnczLm9yZy8yMDAwL3N2ZyIgeG1sbnM9Imh0dHA6Ly93d3cudzMub3JnLzIwMDAvc3ZnIiB4bWxuczp4bGluaz0iaHR0cDovL3d3dy53My5vcmcvMTk5OS94bGluayIgdmVyc2lvbj0iMS4xIiBpZD0ic3ZnMTM5Mzg4IiBpbmtzY2FwZTp2ZXJzaW9uPSIwLjkyLjMgKDI0MDU1NDYsIDIwMTgtMDMtMTEpIiBzb2RpcG9kaTpkb2NuYW1lPSJhenVyZV92bS5zdmciIHg9IjBweCIgeT0iMHB4IiB2aWV3Qm94PSIwIDAgNDIuMjIgMzkuMyIgc3R5bGU9ImVuYWJsZS1iYWNrZ3JvdW5kOm5ldyAwIDAgNDIuMjIgMzkuMzsiIHhtbDpzcGFjZT0icHJlc2VydmUiPiYjeGE7PHNvZGlwb2RpOm5hbWVkdmlldyBib3JkZXJjb2xvcj0iIzY2NjY2NiIgYm9yZGVyb3BhY2l0eT0iMSIgZml0LW1hcmdpbi1ib3R0b209IjAiIGZpdC1tYXJnaW4tbGVmdD0iMCIgZml0LW1hcmdpbi1yaWdodD0iMCIgZml0LW1hcmdpbi10b3A9IjAiIGdyaWR0b2xlcmFuY2U9IjEwIiBndWlkZXRvbGVyYW5jZT0iMTAiIGlkPSJuYW1lZHZpZXcxMzkzOTAiIGlua3NjYXBlOmN1cnJlbnQtbGF5ZXI9InN2ZzEzOTM4OCIgaW5rc2NhcGU6Y3g9IjI4LjE0NDg0NyIgaW5rc2NhcGU6Y3k9IjI2LjIwMjY0OCIgaW5rc2NhcGU6cGFnZW9wYWNpdHk9IjAiIGlua3NjYXBlOnBhZ2VzaGFkb3c9IjIiIGlua3NjYXBlOndpbmRvdy1oZWlnaHQ9IjEwMTciIGlua3NjYXBlOndpbmRvdy1tYXhpbWl6ZWQ9IjEiIGlua3NjYXBlOndpbmRvdy13aWR0aD0iMTkyMCIgaW5rc2NhcGU6d2luZG93LXg9Ii04IiBpbmtzY2FwZTp3aW5kb3cteT0iLTgiIGlua3NjYXBlOnpvb209IjE2LjU0NzQ4IiBvYmplY3R0b2xlcmFuY2U9IjEwIiBwYWdlY29sb3I9IiNmZmZmZmYiIHNob3dncmlkPSJmYWxzZSI+JiN4YTsJPC9zb2RpcG9kaTpuYW1lZHZpZXc+JiN4YTs8ZyBpZD0iZzEzOTM4NiIgdHJhbnNmb3JtPSJ0cmFuc2xhdGUoMCwtMC4wMDE3OCkiPiYjeGE7CTx0aXRsZSBpZD0idGl0bGUxMzkzNTEiPlBhZ2UtMTwvdGl0bGU+JiN4YTsJPGcgaWQ9Imdyb3VwOTY2NC0xIj4mI3hhOwkJPHRpdGxlIGlkPSJ0aXRsZTEzOTM1MyI+QXp1cmUgVk08L3RpdGxlPiYjeGE7CQk8ZyBpZD0ic2hhcGU5NjY1LTIiIHRyYW5zZm9ybT0idHJhbnNsYXRlKDIuOTU1MjEsLTEwLjMwOTQpIj4mI3hhOwkJCTx0aXRsZSBpZD0idGl0bGUxMzkzNTUiPlNoZWV0Ljk2NjU8L3RpdGxlPiYjeGE7CQkJPHBhdGggaWQ9InBhdGgxMzkzNTciIGlua3NjYXBlOmNvbm5lY3Rvci1jdXJ2YXR1cmU9IjAiIHN0eWxlPSJmaWxsOiMwMEJCRjE7IiBkPSJNMzcuMzMsMTIuOTdWMzkuM0gwVjEyLjk3bDM3LjM5LTAuMDggICAgIEwzNy4zMywxMi45N3oiLz4mI3hhOwkJPC9nPiYjeGE7CQk8ZyBpZD0ic2hhcGU5NjY2LTQiIHRyYW5zZm9ybT0idHJhbnNsYXRlKDcuMTc2OTMpIj4mI3hhOwkJCTx0aXRsZSBpZD0idGl0bGUxMzkzNjAiPlNoZWV0Ljk2NjY8L3RpdGxlPiYjeGE7CQkJPHBhdGggaWQ9InBhdGgxMzkzNjIiIGlua3NjYXBlOmNvbm5lY3Rvci1jdXJ2YXR1cmU9IjAiIHN0eWxlPSJmaWxsOiM5MTkxOTE7IiBkPSJNMjAuMjYsMzEuMjdjLTEuMDUsMC0xLjA1LDAtMS4wNSwwICAgICBjLTkuOTcsMC05Ljk3LDAtOS45NywwYy0wLjU2LDAtMC41NiwwLTAuNTYsMGMxLjM3LDQuODMtMC41LDUuNTQtOC42OCw1LjU0YzAsMi40OSwwLDIuNDksMCwyLjQ5YzEwLjQ4LDAsMTAuNDgsMCwxMC40OCwwICAgICBjNy41OSwwLDcuNTksMCw3LjU5LDBjOS43OSwwLDkuNzksMCw5Ljc5LDBjMC0yLjQ5LDAtMi40OSwwLTIuNDlDMTkuNzEsMzYuODEsMTguODksMzYuMSwyMC4yNiwzMS4yN3oiLz4mI3hhOwkJPC9nPiYjeGE7CQk8ZyBpZD0ic2hhcGU5NjY3LTYiIHRyYW5zZm9ybT0idHJhbnNsYXRlKDAsLTguMDI4MjIpIj4mI3hhOwkJCTx0aXRsZSBpZD0idGl0bGUxMzkzNjUiPlNoZWV0Ljk2Njc8L3RpdGxlPiYjeGE7CQkJPHBhdGggaWQ9InBhdGgxMzkzNjciIGlua3NjYXBlOmNvbm5lY3Rvci1jdXJ2YXR1cmU9IjAiIHN0eWxlPSJmaWxsOiNDNUM1QzU7IiBkPSJNMzkuNjMsOC4wM2MtMzcuMjYsMC0zNy4yNiwwLTM3LjI2LDAgICAgIEMxLjA2LDguMDMsMCw5LjE5LDAsMTAuNTFjMCwyNi40MSwwLDI2LjQxLDAsMjYuNDFjMCwxLjMyLDEuMDYsMi4zOCwyLjM3LDIuMzhjMzcuMjYsMCwzNy4yNiwwLDM3LjI2LDAgICAgIGMxLjI5LDAsMi41OS0xLjA2LDIuNTktMi4zOGMwLTI2LjQxLDAtMjYuNDEsMC0yNi40MUM0Mi4yMiw5LjE5LDQwLjkyLDguMDMsMzkuNjMsOC4wM3ogTTM5LDExLjMzYzAsMjQuNjksMCwyNC42OSwwLDI0LjY5ICAgICBjLTM1Ljc1LDAtMzUuNzUsMC0zNS43NSwwYzAtMjQuNjksMC0yNC42OSwwLTI0LjY5YzM1LjgzLTAuMDgsMzUuODMtMC4wOCwzNS44My0wLjA4TDM5LDExLjMzeiIvPiYjeGE7CQk8L2c+JiN4YTsJCTxnIGlkPSJzaGFwZTk2NjgtOCIgdHJhbnNmb3JtPSJ0cmFuc2xhdGUoMTMuNTA5NSwtMjQuMDg0NykiPiYjeGE7CQkJPHRpdGxlIGlkPSJ0aXRsZTEzOTM3MCI+U2hlZXQuOTY2ODwvdGl0bGU+JiN4YTsJCQk8cGF0aCBpZD0icGF0aDEzOTM3MiIgaW5rc2NhcGU6Y29ubmVjdG9yLWN1cnZhdHVyZT0iMCIgc3R5bGU9ImZpbGw6I0U2RjhGRTsiIGQ9Ik03LjYsMzAuNDJjLTAuMDgsMC0wLjA4LDAtMC4xNiwwICAgICBjLTcuMzMsNC4yNS03LjMzLDQuMjUtNy4zMyw0LjI1QzAsMzQuNjcsMCwzNC43NSwwLDM0LjgzczAsMC4xNiwwLjExLDAuMjRjNy40MSw0LjIzLDcuNDEsNC4yMyw3LjQxLDQuMjNINy42ICAgICBjMC4xLDAsMC4xLDAsMC4xOCwwYzcuMzQtNC4yMyw3LjM0LTQuMjMsNy4zNC00LjIzYzAuMDgsMCwwLjA4LTAuMDgsMC4wOC0wLjE2YzAtMC4wOCwwLTAuMTYtMC4wOC0wLjI0ICAgICBDNy43LDMwLjQyLDcuNywzMC40Miw3LjcsMzAuNDJINy42eiIvPiYjeGE7CQk8L2c+JiN4YTsJCTxnIGlkPSJzaGFwZTk2NjktMTAiIHRyYW5zZm9ybT0idHJhbnNsYXRlKDEyLjI0MywtMTMuNTIxMikiPiYjeGE7CQkJPHRpdGxlIGlkPSJ0aXRsZTEzOTM3NSI+U2hlZXQuOTY2OTwvdGl0bGU+JiN4YTsJCQk8cGF0aCBpZD0icGF0aDEzOTM3NyIgaW5rc2NhcGU6Y29ubmVjdG9yLWN1cnZhdHVyZT0iMCIgc3R5bGU9ImZpbGw6I0NDRjFGQzsiIGQ9Ik0wLjI2LDI1Ljc3Yy0wLjA4LDAtMC4wOCwwLTAuMTUsMCAgICAgQzAsMjUuNzcsMCwyNS44OCwwLDI1Ljk2YzAsOC43NCwwLDguNzQsMCw4Ljc0YzAsMC4wOCwwLDAuMTYsMC4xMSwwLjI0YzcuNTksNC4yOCw3LjU5LDQuMjgsNy41OSw0LjI4ICAgICBjMCwwLjA4LDAuMDgsMC4wOCwwLjA4LDAuMDhjMC4wOCwwLDAuMDgsMCwwLjE2LTAuMDhjMCwwLDAuMDgtMC4wOCwwLjA4LTAuMTZjMC04Ljc0LDAtOC43NCwwLTguNzRjMC0wLjA4LTAuMDgtMC4xNi0wLjA4LTAuMTYgICAgIGMtNy42LTQuMzktNy42LTQuMzktNy42LTQuMzlTMC4yNiwyNS43NywwLjI2LDI1Ljc3eiIvPiYjeGE7CQk8L2c+JiN4YTsJCTxnIGlkPSJzaGFwZTk2NzAtMTIiIHRyYW5zZm9ybT0idHJhbnNsYXRlKDIxLjk1MywtMTMuNTIxMikiPiYjeGE7CQkJPHRpdGxlIGlkPSJ0aXRsZTEzOTM4MCI+U2hlZXQuOTY3MDwvdGl0bGU+JiN4YTsJCQk8cGF0aCBpZD0icGF0aDEzOTM4MiIgaW5rc2NhcGU6Y29ubmVjdG9yLWN1cnZhdHVyZT0iMCIgc3R5bGU9ImZpbGw6IzgwRERGODsiIGQ9Ik03LjM5LDI1Ljc3YzAsMC0wLjA4LDAtMC4wOCwwLjExICAgICBjLTcuMTUsNC4yOC03LjE1LDQuMjgtNy4xNSw0LjI4QzAuMDgsMzAuMjQsMCwzMC4zMiwwLDMwLjRjMCw4LjY2LDAsOC42NiwwLDguNjZjMCwwLjA4LDAuMDgsMC4xNiwwLjE2LDAuMTYgICAgIGMwLDAuMDgsMCwwLjA4LDAuMDgsMC4wOGMwLDAsMC4wOCwwLDAuMDgtMC4wOGM3LjItNC4yOCw3LjItNC4yOCw3LjItNC4yOEM3LjYsMzQuODYsNy42LDM0Ljc4LDcuNiwzNC43YzAtOC42NiwwLTguNjYsMC04LjY2ICAgICBjMC0wLjA4LDAtMC4xNi0wLjA4LTAuMTZDNy40NywyNS43Nyw3LjQ3LDI1Ljc3LDcuMzksMjUuNzd6Ii8+JiN4YTsJCTwvZz4mI3hhOwk8L2c+JiN4YTs8L2c+JiN4YTs8L3N2Zz4=;fillColor=none;" vertex="1" parent="1">
          <mxGeometry x="1483.53" y="808" width="30.15" height="28" as="geometry" />
        </mxCell>
        <mxCell id="_9aK7tR2FCW0y13HPatD-66" value="Vnet-A" style="text;html=1;align=center;verticalAlign=middle;resizable=0;points=[];autosize=1;strokeColor=none;fillColor=none;" vertex="1" parent="1">
          <mxGeometry x="990.91" y="672.5" width="47" height="18" as="geometry" />
        </mxCell>
        <mxCell id="_9aK7tR2FCW0y13HPatD-67" value="Vnet-B" style="text;html=1;align=center;verticalAlign=middle;resizable=0;points=[];autosize=1;strokeColor=none;fillColor=none;" vertex="1" parent="1">
          <mxGeometry x="1299.53" y="669.5" width="47" height="18" as="geometry" />
        </mxCell>
        <mxCell id="_9aK7tR2FCW0y13HPatD-68" value="Vnet-C" style="text;html=1;align=center;verticalAlign=middle;resizable=0;points=[];autosize=1;strokeColor=none;fillColor=none;" vertex="1" parent="1">
          <mxGeometry x="1475.11" y="865" width="47" height="18" as="geometry" />
        </mxCell>
        <mxCell id="_9aK7tR2FCW0y13HPatD-69" value="On-prem Location" style="text;html=1;align=center;verticalAlign=middle;resizable=0;points=[];autosize=1;strokeColor=none;fillColor=none;" vertex="1" parent="1">
          <mxGeometry x="953.98" y="1143" width="106" height="18" as="geometry" />
        </mxCell>
        <mxCell id="_9aK7tR2FCW0y13HPatD-70" value="Location - A" style="text;html=1;align=center;verticalAlign=middle;resizable=0;points=[];autosize=1;strokeColor=none;fillColor=none;" vertex="1" parent="1">
          <mxGeometry x="904" y="711" width="73" height="18" as="geometry" />
        </mxCell>
        <mxCell id="_9aK7tR2FCW0y13HPatD-71" value="Location - B" style="text;html=1;align=center;verticalAlign=middle;resizable=0;points=[];autosize=1;strokeColor=none;fillColor=none;" vertex="1" parent="1">
          <mxGeometry x="1212.53" y="701" width="74" height="18" as="geometry" />
        </mxCell>
        <mxCell id="_9aK7tR2FCW0y13HPatD-72" value="Location - C" style="text;html=1;align=center;verticalAlign=middle;resizable=0;points=[];autosize=1;strokeColor=none;fillColor=none;" vertex="1" parent="1">
          <mxGeometry x="1556.53" y="813" width="75" height="18" as="geometry" />
        </mxCell>
        <mxCell id="_9aK7tR2FCW0y13HPatD-73" value="On-prem-vm" style="text;html=1;align=center;verticalAlign=middle;resizable=0;points=[];autosize=1;strokeColor=none;fillColor=none;" vertex="1" parent="1">
          <mxGeometry x="968.72" y="1105" width="77" height="18" as="geometry" />
        </mxCell>
        <mxCell id="_9aK7tR2FCW0y13HPatD-74" value="VM-A" style="text;html=1;align=center;verticalAlign=middle;resizable=0;points=[];autosize=1;strokeColor=none;fillColor=none;" vertex="1" parent="1">
          <mxGeometry x="997.5299999999999" y="729" width="40" height="18" as="geometry" />
        </mxCell>
        <mxCell id="_9aK7tR2FCW0y13HPatD-75" value="VM-B" style="text;html=1;align=center;verticalAlign=middle;resizable=0;points=[];autosize=1;strokeColor=none;fillColor=none;" vertex="1" parent="1">
          <mxGeometry x="1322.5299999999997" y="730" width="40" height="18" as="geometry" />
        </mxCell>
        <mxCell id="_9aK7tR2FCW0y13HPatD-76" value="VM-C" style="text;html=1;align=center;verticalAlign=middle;resizable=0;points=[];autosize=1;strokeColor=none;fillColor=none;" vertex="1" parent="1">
          <mxGeometry x="1478.61" y="837" width="41" height="18" as="geometry" />
        </mxCell>
        <mxCell id="_9aK7tR2FCW0y13HPatD-77" value="vHUB Address Space" style="text;html=1;align=center;verticalAlign=middle;resizable=0;points=[];autosize=1;strokeColor=none;fillColor=none;" vertex="1" parent="1">
          <mxGeometry x="1174.5299999999997" y="931" width="125" height="18" as="geometry" />
        </mxCell>
        <mxCell id="_9aK7tR2FCW0y13HPatD-78" value="vWAN" style="text;html=1;align=center;verticalAlign=middle;resizable=0;points=[];autosize=1;strokeColor=none;fillColor=none;" vertex="1" parent="1">
          <mxGeometry x="1297.5299999999997" y="954" width="44" height="18" as="geometry" />
        </mxCell>
        <mxCell id="_9aK7tR2FCW0y13HPatD-79" value="vHUB-1" style="text;html=1;align=center;verticalAlign=middle;resizable=0;points=[];autosize=1;strokeColor=none;fillColor=none;" vertex="1" parent="1">
          <mxGeometry x="1319.5299999999997" y="928" width="52" height="18" as="geometry" />
        </mxCell>
        <mxCell id="_9aK7tR2FCW0y13HPatD-80" value="Secured HUB" style="text;html=1;align=center;verticalAlign=middle;resizable=0;points=[];autosize=1;strokeColor=none;fillColor=none;" vertex="1" parent="1">
          <mxGeometry x="1248.5299999999997" y="886" width="83" height="18" as="geometry" />
        </mxCell>
        <mxCell id="_9aK7tR2FCW0y13HPatD-88" value="" style="aspect=fixed;html=1;points=[];align=center;image;fontSize=12;image=img/lib/azure2/networking/Virtual_Network_Gateways.svg;" vertex="1" parent="1">
          <mxGeometry x="1152" y="231" width="25.62" height="34" as="geometry" />
        </mxCell>
        <mxCell id="_9aK7tR2FCW0y13HPatD-90" value="" style="aspect=fixed;html=1;points=[];align=center;image;fontSize=12;image=img/lib/azure2/networking/Virtual_Network_Gateways.svg;" vertex="1" parent="1">
          <mxGeometry x="1151.9999999999998" y="383" width="25.62" height="34" as="geometry" />
        </mxCell>
        <mxCell id="_9aK7tR2FCW0y13HPatD-91" value="" style="shape=image;verticalLabelPosition=bottom;labelBackgroundColor=#ffffff;verticalAlign=top;aspect=fixed;imageAspect=0;image=data:image/svg+xml,PHN2ZyB4bWxuczpjYz0iaHR0cDovL2NyZWF0aXZlY29tbW9ucy5vcmcvbnMjIiB4bWxuczpkYz0iaHR0cDovL3B1cmwub3JnL2RjL2VsZW1lbnRzLzEuMS8iIHhtbG5zOmlua3NjYXBlPSJodHRwOi8vd3d3Lmlua3NjYXBlLm9yZy9uYW1lc3BhY2VzL2lua3NjYXBlIiB4bWxuczpyZGY9Imh0dHA6Ly93d3cudzMub3JnLzE5OTkvMDIvMjItcmRmLXN5bnRheC1ucyMiIHhtbG5zOnNvZGlwb2RpPSJodHRwOi8vc29kaXBvZGkuc291cmNlZm9yZ2UubmV0L0RURC9zb2RpcG9kaS0wLmR0ZCIgeG1sbnM6c3ZnPSJodHRwOi8vd3d3LnczLm9yZy8yMDAwL3N2ZyIgeG1sbnM9Imh0dHA6Ly93d3cudzMub3JnLzIwMDAvc3ZnIiB4bWxuczp4bGluaz0iaHR0cDovL3d3dy53My5vcmcvMTk5OS94bGluayIgdmVyc2lvbj0iMS4xIiBpZD0ic3ZnMTQ5NyIgaW5rc2NhcGU6dmVyc2lvbj0iMC45Mi4zICgyNDA1NTQ2LCAyMDE4LTAzLTExKSIgc29kaXBvZGk6ZG9jbmFtZT0iYXBwbGUuc3ZnIiB4PSIwcHgiIHk9IjBweCIgdmlld0JveD0iMCAwIDc0LjY3IDcwLjQiIHN0eWxlPSJlbmFibGUtYmFja2dyb3VuZDpuZXcgMCAwIDc0LjY3IDcwLjQ7IiB4bWw6c3BhY2U9InByZXNlcnZlIj4mI3hhOzxzb2RpcG9kaTpuYW1lZHZpZXcgYm9yZGVyY29sb3I9IiM2NjY2NjYiIGJvcmRlcm9wYWNpdHk9IjEiIGZpdC1tYXJnaW4tYm90dG9tPSIwIiBmaXQtbWFyZ2luLWxlZnQ9IjAiIGZpdC1tYXJnaW4tcmlnaHQ9IjAiIGZpdC1tYXJnaW4tdG9wPSIwIiBncmlkdG9sZXJhbmNlPSIxMCIgZ3VpZGV0b2xlcmFuY2U9IjEwIiBpZD0ibmFtZWR2aWV3MTQ5OSIgaW5rc2NhcGU6Y3VycmVudC1sYXllcj0ic3ZnMTQ5NyIgaW5rc2NhcGU6Y3g9IjQ5Ljc3NTk3NyIgaW5rc2NhcGU6Y3k9IjQ2LjkzNDUyOSIgaW5rc2NhcGU6cGFnZW9wYWNpdHk9IjAiIGlua3NjYXBlOnBhZ2VzaGFkb3c9IjIiIGlua3NjYXBlOndpbmRvdy1oZWlnaHQ9IjEwMTciIGlua3NjYXBlOndpbmRvdy1tYXhpbWl6ZWQ9IjEiIGlua3NjYXBlOndpbmRvdy13aWR0aD0iMTkyMCIgaW5rc2NhcGU6d2luZG93LXg9Ii04IiBpbmtzY2FwZTp3aW5kb3cteT0iLTgiIGlua3NjYXBlOnpvb209IjguMjkwNDk0NCIgb2JqZWN0dG9sZXJhbmNlPSIxMCIgcGFnZWNvbG9yPSIjZmZmZmZmIiBzaG93Z3JpZD0iZmFsc2UiPiYjeGE7CTwvc29kaXBvZGk6bmFtZWR2aWV3PiYjeGE7PGcgaWQ9ImcxNDk1IiB0cmFuc2Zvcm09InRyYW5zbGF0ZSgtNC4wMTU4MTgzLC00LjAxMjcxMTQpIj4mI3hhOwk8dGl0bGUgaWQ9InRpdGxlMTQ3MCI+UGFnZS0xPC90aXRsZT4mI3hhOwk8ZyBpZD0iZ3JvdXAzODEwLTEiIHRyYW5zZm9ybT0idHJhbnNsYXRlKDQuMDE1NzcsLTQuMDE1NzUpIj4mI3hhOwkJPHRpdGxlIGlkPSJ0aXRsZTE0NzIiPkFwcGxlPC90aXRsZT4mI3hhOwkJPGcgaWQ9InNoYXBlMzgxMS0yIiB0cmFuc2Zvcm09InRyYW5zbGF0ZSgyNC4zOTgxLC00LjA2NjM1KSI+JiN4YTsJCQk8dGl0bGUgaWQ9InRpdGxlMTQ3NCI+U2hlZXQuMzgxMTwvdGl0bGU+JiN4YTsJCQk8cmVjdCBpZD0icmVjdDE0NzYiIHg9IjAiIHk9IjY4LjEiIHN0eWxlPSJmaWxsOiMyQzQyNEY7IiB3aWR0aD0iMjUuODciIGhlaWdodD0iMTAuMzQiLz4mI3hhOwkJPC9nPiYjeGE7CQk8ZyBpZD0ic2hhcGUzODEyLTQiIHRyYW5zZm9ybT0idHJhbnNsYXRlKDE1LjI4NTUpIj4mI3hhOwkJCTx0aXRsZSBpZD0idGl0bGUxNDc5Ij5TaGVldC4zODEyPC90aXRsZT4mI3hhOwkJCTxyZWN0IGlkPSJyZWN0MTQ4MSIgeD0iMCIgeT0iNzQuMzciIHN0eWxlPSJmaWxsOiNCQkMyQzY7IiB3aWR0aD0iNDQuMDkiIGhlaWdodD0iNC4wNyIvPiYjeGE7CQk8L2c+JiN4YTsJCTxnIGlkPSJzaGFwZTM4MTMtNiIgdHJhbnNmb3JtPSJ0cmFuc2xhdGUoMCwtMTQuNDAzNykiPiYjeGE7CQkJPHRpdGxlIGlkPSJ0aXRsZTE0ODQiPlNoZWV0LjM4MTM8L3RpdGxlPiYjeGE7CQkJPHBhdGggaWQ9InBhdGgxNDg2IiBpbmtzY2FwZTpjb25uZWN0b3ItY3VydmF0dXJlPSIwIiBzdHlsZT0iZmlsbDojQkJDMkM2OyIgZD0iTTAsNjQuNzJ2MTEuMDdjMCwxLjQ2LDEuMTgsMi42NCwyLjYzLDIuNjQgICAgIGMwLjAxLDAsMC4wMSwwLDAuMDIsMGg2OS4zMmMxLjQ2LDAuMDEsMi42NC0xLjE3LDIuNjUtMi42MmMwLTAuMDEsMC0wLjAxLDAtMC4wMlY2NC43MkgweiIvPiYjeGE7CQk8L2c+JiN4YTsJCTxnIGlkPSJzaGFwZTM4MTQtOCIgdHJhbnNmb3JtPSJ0cmFuc2xhdGUoMC4wNDg5OTIxLC0yOC4xMjE1KSI+JiN4YTsJCQk8dGl0bGUgaWQ9InRpdGxlMTQ4OSI+U2hlZXQuMzgxNDwvdGl0bGU+JiN4YTsJCQk8cGF0aCBpZD0icGF0aDE0OTEiIGlua3NjYXBlOmNvbm5lY3Rvci1jdXJ2YXR1cmU9IjAiIHN0eWxlPSJmaWxsOiM1MjdGOTk7IiBkPSJNNzQuNjIsMzguOGMwLjAxLTEuNDYtMS4xNy0yLjY0LTIuNjItMi42NSAgICAgYy0wLjAxLDAtMC4wMiwwLTAuMDMsMEgyLjY1QzEuMTksMzYuMTQsMC4wMSwzNy4zMiwwLDM4Ljc3YzAsMC4wMSwwLDAuMDIsMCwwLjAzdjM5LjYzaDc0LjYyVjM4Ljh6Ii8+JiN4YTsJCTwvZz4mI3hhOwk8L2c+JiN4YTs8L2c+JiN4YTs8L3N2Zz4=;" vertex="1" parent="1">
          <mxGeometry x="1148.7399999999998" y="427" width="32.14" height="30" as="geometry" />
        </mxCell>
        <mxCell id="_9aK7tR2FCW0y13HPatD-92" value="vHUB-2" style="text;html=1;align=center;verticalAlign=middle;resizable=0;points=[];autosize=1;strokeColor=none;fillColor=none;" vertex="1" parent="1">
          <mxGeometry x="1448.9999999999998" y="290" width="52" height="18" as="geometry" />
        </mxCell>
        <mxCell id="_9aK7tR2FCW0y13HPatD-94" value="" style="sketch=0;points=[[0.5,0,0],[1,0.5,0],[0.5,1,0],[0,0.5,0],[0.145,0.145,0],[0.8555,0.145,0],[0.855,0.8555,0],[0.145,0.855,0]];verticalLabelPosition=bottom;html=1;verticalAlign=top;aspect=fixed;align=center;pointerEvents=1;shape=mxgraph.cisco19.rect;prIcon=router;fillColor=#FAFAFA;strokeColor=#005073;" vertex="1" parent="1">
          <mxGeometry x="1302.03" y="163" width="35" height="35" as="geometry" />
        </mxCell>
        <mxCell id="_9aK7tR2FCW0y13HPatD-102" style="edgeStyle=orthogonalEdgeStyle;rounded=0;orthogonalLoop=1;jettySize=auto;html=1;shape=link;" edge="1" parent="1" source="_9aK7tR2FCW0y13HPatD-97" target="_9aK7tR2FCW0y13HPatD-100">
          <mxGeometry relative="1" as="geometry">
            <Array as="points">
              <mxPoint x="1149" y="331" />
              <mxPoint x="1149" y="331" />
            </Array>
          </mxGeometry>
        </mxCell>
        <mxCell id="_9aK7tR2FCW0y13HPatD-97" value="" style="shape=image;verticalLabelPosition=bottom;labelBackgroundColor=#ffffff;verticalAlign=top;aspect=fixed;imageAspect=0;image=data:image/svg+xml,PHN2ZyB4bWxuczpjYz0iaHR0cDovL2NyZWF0aXZlY29tbW9ucy5vcmcvbnMjIiB4bWxuczpkYz0iaHR0cDovL3B1cmwub3JnL2RjL2VsZW1lbnRzLzEuMS8iIHhtbG5zOmlua3NjYXBlPSJodHRwOi8vd3d3Lmlua3NjYXBlLm9yZy9uYW1lc3BhY2VzL2lua3NjYXBlIiB4bWxuczpyZGY9Imh0dHA6Ly93d3cudzMub3JnLzE5OTkvMDIvMjItcmRmLXN5bnRheC1ucyMiIHhtbG5zOnNvZGlwb2RpPSJodHRwOi8vc29kaXBvZGkuc291cmNlZm9yZ2UubmV0L0RURC9zb2RpcG9kaS0wLmR0ZCIgeG1sbnM6c3ZnPSJodHRwOi8vd3d3LnczLm9yZy8yMDAwL3N2ZyIgeG1sbnM9Imh0dHA6Ly93d3cudzMub3JnLzIwMDAvc3ZnIiB4bWxuczp4bGluaz0iaHR0cDovL3d3dy53My5vcmcvMTk5OS94bGluayIgdmVyc2lvbj0iMS4xIiBpZD0ic3ZnMzExNTkiIGlua3NjYXBlOnZlcnNpb249IjAuOTIuMyAoMjQwNTU0NiwgMjAxOC0wMy0xMSkiIHNvZGlwb2RpOmRvY25hbWU9Im1vbml0b3JfY2xlYW4uc3ZnIiB4PSIwcHgiIHk9IjBweCIgdmlld0JveD0iMCAwIDY0IDQ4LjMyIiBzdHlsZT0iZW5hYmxlLWJhY2tncm91bmQ6bmV3IDAgMCA2NCA0OC4zMjsiIHhtbDpzcGFjZT0icHJlc2VydmUiPiYjeGE7PHNvZGlwb2RpOm5hbWVkdmlldyBib3JkZXJjb2xvcj0iIzY2NjY2NiIgYm9yZGVyb3BhY2l0eT0iMSIgZml0LW1hcmdpbi1ib3R0b209IjAiIGZpdC1tYXJnaW4tbGVmdD0iMCIgZml0LW1hcmdpbi1yaWdodD0iMCIgZml0LW1hcmdpbi10b3A9IjAiIGdyaWR0b2xlcmFuY2U9IjEwIiBndWlkZXRvbGVyYW5jZT0iMTAiIGlkPSJuYW1lZHZpZXczMTE2MSIgaW5rc2NhcGU6Y3VycmVudC1sYXllcj0ic3ZnMzExNTkiIGlua3NjYXBlOmN4PSI0Mi42NjgxMTIiIGlua3NjYXBlOmN5PSIzMi4yMTA1ODQiIGlua3NjYXBlOnBhZ2VvcGFjaXR5PSIwIiBpbmtzY2FwZTpwYWdlc2hhZG93PSIyIiBpbmtzY2FwZTp3aW5kb3ctaGVpZ2h0PSIxMDE3IiBpbmtzY2FwZTp3aW5kb3ctbWF4aW1pemVkPSIxIiBpbmtzY2FwZTp3aW5kb3ctd2lkdGg9IjE5MjAiIGlua3NjYXBlOndpbmRvdy14PSItOCIgaW5rc2NhcGU6d2luZG93LXk9Ii04IiBpbmtzY2FwZTp6b29tPSIxMy40NTYwMTkiIG9iamVjdHRvbGVyYW5jZT0iMTAiIHBhZ2Vjb2xvcj0iI2ZmZmZmZiIgc2hvd2dyaWQ9ImZhbHNlIj4mI3hhOwk8L3NvZGlwb2RpOm5hbWVkdmlldz4mI3hhOzxnIGlkPSJnMzExNTciPiYjeGE7CTx0aXRsZSBpZD0idGl0bGUzMTE0MiI+UGFnZS0xPC90aXRsZT4mI3hhOwk8ZyBpZD0iZ3JvdXAzODk0LTEiPiYjeGE7CQk8dGl0bGUgaWQ9InRpdGxlMzExNDQiPk1vbml0b3IgKENsZWFuKTwvdGl0bGU+JiN4YTsJCTxnIGlkPSJzaGFwZTM4OTUtMiI+JiN4YTsJCQk8dGl0bGUgaWQ9InRpdGxlMzExNDYiPlNoZWV0LjM4OTU8L3RpdGxlPiYjeGE7CQkJPHBhdGggaWQ9InBhdGgzMTE0OCIgaW5rc2NhcGU6Y29ubmVjdG9yLWN1cnZhdHVyZT0iMCIgc3R5bGU9ImZpbGw6IzNGNTc2NTsiIGQ9Ik0wLDQ4LjMyaDY0VjBIMFY0OC4zMnogTTMuODYsNC4yMWg1Ni4zNXYzOS45NyAgICAgSDMuODZWNC4yMXoiLz4mI3hhOwkJPC9nPiYjeGE7CQk8ZyBpZD0ic2hhcGUzODk2LTQiIHRyYW5zZm9ybT0idHJhbnNsYXRlKDI5LjE5NCwtNy44NjY3MikiPiYjeGE7CQkJPHRpdGxlIGlkPSJ0aXRsZTMxMTUxIj5TaGVldC4zODk2PC90aXRsZT4mI3hhOwkJCTxwYXRoIGlkPSJwYXRoMzExNTMiIGlua3NjYXBlOmNvbm5lY3Rvci1jdXJ2YXR1cmU9IjAiIHN0eWxlPSJmaWxsOiMzRjU3NjU7IiBkPSJNMCw0My44M3Y0LjQ5aDQuNDl2LTQuNDlIMHoiLz4mI3hhOwkJPC9nPiYjeGE7CTwvZz4mI3hhOzwvZz4mI3hhOzwvc3ZnPg==;" vertex="1" parent="1">
          <mxGeometry x="1134" y="268" width="29.33" height="22" as="geometry" />
        </mxCell>
        <mxCell id="_9aK7tR2FCW0y13HPatD-103" style="edgeStyle=orthogonalEdgeStyle;shape=link;rounded=0;orthogonalLoop=1;jettySize=auto;html=1;entryX=0.387;entryY=0.032;entryDx=0;entryDy=0;entryPerimeter=0;" edge="1" parent="1" source="_9aK7tR2FCW0y13HPatD-99" target="_9aK7tR2FCW0y13HPatD-101">
          <mxGeometry relative="1" as="geometry" />
        </mxCell>
        <mxCell id="_9aK7tR2FCW0y13HPatD-99" value="" style="shape=image;verticalLabelPosition=bottom;labelBackgroundColor=#ffffff;verticalAlign=top;aspect=fixed;imageAspect=0;image=data:image/svg+xml,PHN2ZyB4bWxuczpjYz0iaHR0cDovL2NyZWF0aXZlY29tbW9ucy5vcmcvbnMjIiB4bWxuczpkYz0iaHR0cDovL3B1cmwub3JnL2RjL2VsZW1lbnRzLzEuMS8iIHhtbG5zOmlua3NjYXBlPSJodHRwOi8vd3d3Lmlua3NjYXBlLm9yZy9uYW1lc3BhY2VzL2lua3NjYXBlIiB4bWxuczpyZGY9Imh0dHA6Ly93d3cudzMub3JnLzE5OTkvMDIvMjItcmRmLXN5bnRheC1ucyMiIHhtbG5zOnNvZGlwb2RpPSJodHRwOi8vc29kaXBvZGkuc291cmNlZm9yZ2UubmV0L0RURC9zb2RpcG9kaS0wLmR0ZCIgeG1sbnM6c3ZnPSJodHRwOi8vd3d3LnczLm9yZy8yMDAwL3N2ZyIgeG1sbnM9Imh0dHA6Ly93d3cudzMub3JnLzIwMDAvc3ZnIiB4bWxuczp4bGluaz0iaHR0cDovL3d3dy53My5vcmcvMTk5OS94bGluayIgdmVyc2lvbj0iMS4xIiBpZD0ic3ZnMzExNTkiIGlua3NjYXBlOnZlcnNpb249IjAuOTIuMyAoMjQwNTU0NiwgMjAxOC0wMy0xMSkiIHNvZGlwb2RpOmRvY25hbWU9Im1vbml0b3JfY2xlYW4uc3ZnIiB4PSIwcHgiIHk9IjBweCIgdmlld0JveD0iMCAwIDY0IDQ4LjMyIiBzdHlsZT0iZW5hYmxlLWJhY2tncm91bmQ6bmV3IDAgMCA2NCA0OC4zMjsiIHhtbDpzcGFjZT0icHJlc2VydmUiPiYjeGE7PHNvZGlwb2RpOm5hbWVkdmlldyBib3JkZXJjb2xvcj0iIzY2NjY2NiIgYm9yZGVyb3BhY2l0eT0iMSIgZml0LW1hcmdpbi1ib3R0b209IjAiIGZpdC1tYXJnaW4tbGVmdD0iMCIgZml0LW1hcmdpbi1yaWdodD0iMCIgZml0LW1hcmdpbi10b3A9IjAiIGdyaWR0b2xlcmFuY2U9IjEwIiBndWlkZXRvbGVyYW5jZT0iMTAiIGlkPSJuYW1lZHZpZXczMTE2MSIgaW5rc2NhcGU6Y3VycmVudC1sYXllcj0ic3ZnMzExNTkiIGlua3NjYXBlOmN4PSI0Mi42NjgxMTIiIGlua3NjYXBlOmN5PSIzMi4yMTA1ODQiIGlua3NjYXBlOnBhZ2VvcGFjaXR5PSIwIiBpbmtzY2FwZTpwYWdlc2hhZG93PSIyIiBpbmtzY2FwZTp3aW5kb3ctaGVpZ2h0PSIxMDE3IiBpbmtzY2FwZTp3aW5kb3ctbWF4aW1pemVkPSIxIiBpbmtzY2FwZTp3aW5kb3ctd2lkdGg9IjE5MjAiIGlua3NjYXBlOndpbmRvdy14PSItOCIgaW5rc2NhcGU6d2luZG93LXk9Ii04IiBpbmtzY2FwZTp6b29tPSIxMy40NTYwMTkiIG9iamVjdHRvbGVyYW5jZT0iMTAiIHBhZ2Vjb2xvcj0iI2ZmZmZmZiIgc2hvd2dyaWQ9ImZhbHNlIj4mI3hhOwk8L3NvZGlwb2RpOm5hbWVkdmlldz4mI3hhOzxnIGlkPSJnMzExNTciPiYjeGE7CTx0aXRsZSBpZD0idGl0bGUzMTE0MiI+UGFnZS0xPC90aXRsZT4mI3hhOwk8ZyBpZD0iZ3JvdXAzODk0LTEiPiYjeGE7CQk8dGl0bGUgaWQ9InRpdGxlMzExNDQiPk1vbml0b3IgKENsZWFuKTwvdGl0bGU+JiN4YTsJCTxnIGlkPSJzaGFwZTM4OTUtMiI+JiN4YTsJCQk8dGl0bGUgaWQ9InRpdGxlMzExNDYiPlNoZWV0LjM4OTU8L3RpdGxlPiYjeGE7CQkJPHBhdGggaWQ9InBhdGgzMTE0OCIgaW5rc2NhcGU6Y29ubmVjdG9yLWN1cnZhdHVyZT0iMCIgc3R5bGU9ImZpbGw6IzNGNTc2NTsiIGQ9Ik0wLDQ4LjMyaDY0VjBIMFY0OC4zMnogTTMuODYsNC4yMWg1Ni4zNXYzOS45NyAgICAgSDMuODZWNC4yMXoiLz4mI3hhOwkJPC9nPiYjeGE7CQk8ZyBpZD0ic2hhcGUzODk2LTQiIHRyYW5zZm9ybT0idHJhbnNsYXRlKDI5LjE5NCwtNy44NjY3MikiPiYjeGE7CQkJPHRpdGxlIGlkPSJ0aXRsZTMxMTUxIj5TaGVldC4zODk2PC90aXRsZT4mI3hhOwkJCTxwYXRoIGlkPSJwYXRoMzExNTMiIGlua3NjYXBlOmNvbm5lY3Rvci1jdXJ2YXR1cmU9IjAiIHN0eWxlPSJmaWxsOiMzRjU3NjU7IiBkPSJNMCw0My44M3Y0LjQ5aDQuNDl2LTQuNDlIMHoiLz4mI3hhOwkJPC9nPiYjeGE7CTwvZz4mI3hhOzwvZz4mI3hhOzwvc3ZnPg==;" vertex="1" parent="1">
          <mxGeometry x="1165.53" y="268" width="28" height="21" as="geometry" />
        </mxCell>
        <mxCell id="_9aK7tR2FCW0y13HPatD-100" value="" style="shape=image;verticalLabelPosition=bottom;labelBackgroundColor=#ffffff;verticalAlign=top;aspect=fixed;imageAspect=0;image=data:image/svg+xml,PHN2ZyB4bWxuczpjYz0iaHR0cDovL2NyZWF0aXZlY29tbW9ucy5vcmcvbnMjIiB4bWxuczpkYz0iaHR0cDovL3B1cmwub3JnL2RjL2VsZW1lbnRzLzEuMS8iIHhtbG5zOmlua3NjYXBlPSJodHRwOi8vd3d3Lmlua3NjYXBlLm9yZy9uYW1lc3BhY2VzL2lua3NjYXBlIiB4bWxuczpyZGY9Imh0dHA6Ly93d3cudzMub3JnLzE5OTkvMDIvMjItcmRmLXN5bnRheC1ucyMiIHhtbG5zOnNvZGlwb2RpPSJodHRwOi8vc29kaXBvZGkuc291cmNlZm9yZ2UubmV0L0RURC9zb2RpcG9kaS0wLmR0ZCIgeG1sbnM6c3ZnPSJodHRwOi8vd3d3LnczLm9yZy8yMDAwL3N2ZyIgeG1sbnM9Imh0dHA6Ly93d3cudzMub3JnLzIwMDAvc3ZnIiB4bWxuczp4bGluaz0iaHR0cDovL3d3dy53My5vcmcvMTk5OS94bGluayIgdmVyc2lvbj0iMS4xIiBpZD0ic3ZnMzExNTkiIGlua3NjYXBlOnZlcnNpb249IjAuOTIuMyAoMjQwNTU0NiwgMjAxOC0wMy0xMSkiIHNvZGlwb2RpOmRvY25hbWU9Im1vbml0b3JfY2xlYW4uc3ZnIiB4PSIwcHgiIHk9IjBweCIgdmlld0JveD0iMCAwIDY0IDQ4LjMyIiBzdHlsZT0iZW5hYmxlLWJhY2tncm91bmQ6bmV3IDAgMCA2NCA0OC4zMjsiIHhtbDpzcGFjZT0icHJlc2VydmUiPiYjeGE7PHNvZGlwb2RpOm5hbWVkdmlldyBib3JkZXJjb2xvcj0iIzY2NjY2NiIgYm9yZGVyb3BhY2l0eT0iMSIgZml0LW1hcmdpbi1ib3R0b209IjAiIGZpdC1tYXJnaW4tbGVmdD0iMCIgZml0LW1hcmdpbi1yaWdodD0iMCIgZml0LW1hcmdpbi10b3A9IjAiIGdyaWR0b2xlcmFuY2U9IjEwIiBndWlkZXRvbGVyYW5jZT0iMTAiIGlkPSJuYW1lZHZpZXczMTE2MSIgaW5rc2NhcGU6Y3VycmVudC1sYXllcj0ic3ZnMzExNTkiIGlua3NjYXBlOmN4PSI0Mi42NjgxMTIiIGlua3NjYXBlOmN5PSIzMi4yMTA1ODQiIGlua3NjYXBlOnBhZ2VvcGFjaXR5PSIwIiBpbmtzY2FwZTpwYWdlc2hhZG93PSIyIiBpbmtzY2FwZTp3aW5kb3ctaGVpZ2h0PSIxMDE3IiBpbmtzY2FwZTp3aW5kb3ctbWF4aW1pemVkPSIxIiBpbmtzY2FwZTp3aW5kb3ctd2lkdGg9IjE5MjAiIGlua3NjYXBlOndpbmRvdy14PSItOCIgaW5rc2NhcGU6d2luZG93LXk9Ii04IiBpbmtzY2FwZTp6b29tPSIxMy40NTYwMTkiIG9iamVjdHRvbGVyYW5jZT0iMTAiIHBhZ2Vjb2xvcj0iI2ZmZmZmZiIgc2hvd2dyaWQ9ImZhbHNlIj4mI3hhOwk8L3NvZGlwb2RpOm5hbWVkdmlldz4mI3hhOzxnIGlkPSJnMzExNTciPiYjeGE7CTx0aXRsZSBpZD0idGl0bGUzMTE0MiI+UGFnZS0xPC90aXRsZT4mI3hhOwk8ZyBpZD0iZ3JvdXAzODk0LTEiPiYjeGE7CQk8dGl0bGUgaWQ9InRpdGxlMzExNDQiPk1vbml0b3IgKENsZWFuKTwvdGl0bGU+JiN4YTsJCTxnIGlkPSJzaGFwZTM4OTUtMiI+JiN4YTsJCQk8dGl0bGUgaWQ9InRpdGxlMzExNDYiPlNoZWV0LjM4OTU8L3RpdGxlPiYjeGE7CQkJPHBhdGggaWQ9InBhdGgzMTE0OCIgaW5rc2NhcGU6Y29ubmVjdG9yLWN1cnZhdHVyZT0iMCIgc3R5bGU9ImZpbGw6IzNGNTc2NTsiIGQ9Ik0wLDQ4LjMyaDY0VjBIMFY0OC4zMnogTTMuODYsNC4yMWg1Ni4zNXYzOS45NyAgICAgSDMuODZWNC4yMXoiLz4mI3hhOwkJPC9nPiYjeGE7CQk8ZyBpZD0ic2hhcGUzODk2LTQiIHRyYW5zZm9ybT0idHJhbnNsYXRlKDI5LjE5NCwtNy44NjY3MikiPiYjeGE7CQkJPHRpdGxlIGlkPSJ0aXRsZTMxMTUxIj5TaGVldC4zODk2PC90aXRsZT4mI3hhOwkJCTxwYXRoIGlkPSJwYXRoMzExNTMiIGlua3NjYXBlOmNvbm5lY3Rvci1jdXJ2YXR1cmU9IjAiIHN0eWxlPSJmaWxsOiMzRjU3NjU7IiBkPSJNMCw0My44M3Y0LjQ5aDQuNDl2LTQuNDlIMHoiLz4mI3hhOwkJPC9nPiYjeGE7CTwvZz4mI3hhOzwvZz4mI3hhOzwvc3ZnPg==;" vertex="1" parent="1">
          <mxGeometry x="1136.2" y="361" width="29.33" height="22" as="geometry" />
        </mxCell>
        <mxCell id="_9aK7tR2FCW0y13HPatD-101" value="" style="shape=image;verticalLabelPosition=bottom;labelBackgroundColor=#ffffff;verticalAlign=top;aspect=fixed;imageAspect=0;image=data:image/svg+xml,PHN2ZyB4bWxuczpjYz0iaHR0cDovL2NyZWF0aXZlY29tbW9ucy5vcmcvbnMjIiB4bWxuczpkYz0iaHR0cDovL3B1cmwub3JnL2RjL2VsZW1lbnRzLzEuMS8iIHhtbG5zOmlua3NjYXBlPSJodHRwOi8vd3d3Lmlua3NjYXBlLm9yZy9uYW1lc3BhY2VzL2lua3NjYXBlIiB4bWxuczpyZGY9Imh0dHA6Ly93d3cudzMub3JnLzE5OTkvMDIvMjItcmRmLXN5bnRheC1ucyMiIHhtbG5zOnNvZGlwb2RpPSJodHRwOi8vc29kaXBvZGkuc291cmNlZm9yZ2UubmV0L0RURC9zb2RpcG9kaS0wLmR0ZCIgeG1sbnM6c3ZnPSJodHRwOi8vd3d3LnczLm9yZy8yMDAwL3N2ZyIgeG1sbnM9Imh0dHA6Ly93d3cudzMub3JnLzIwMDAvc3ZnIiB4bWxuczp4bGluaz0iaHR0cDovL3d3dy53My5vcmcvMTk5OS94bGluayIgdmVyc2lvbj0iMS4xIiBpZD0ic3ZnMzExNTkiIGlua3NjYXBlOnZlcnNpb249IjAuOTIuMyAoMjQwNTU0NiwgMjAxOC0wMy0xMSkiIHNvZGlwb2RpOmRvY25hbWU9Im1vbml0b3JfY2xlYW4uc3ZnIiB4PSIwcHgiIHk9IjBweCIgdmlld0JveD0iMCAwIDY0IDQ4LjMyIiBzdHlsZT0iZW5hYmxlLWJhY2tncm91bmQ6bmV3IDAgMCA2NCA0OC4zMjsiIHhtbDpzcGFjZT0icHJlc2VydmUiPiYjeGE7PHNvZGlwb2RpOm5hbWVkdmlldyBib3JkZXJjb2xvcj0iIzY2NjY2NiIgYm9yZGVyb3BhY2l0eT0iMSIgZml0LW1hcmdpbi1ib3R0b209IjAiIGZpdC1tYXJnaW4tbGVmdD0iMCIgZml0LW1hcmdpbi1yaWdodD0iMCIgZml0LW1hcmdpbi10b3A9IjAiIGdyaWR0b2xlcmFuY2U9IjEwIiBndWlkZXRvbGVyYW5jZT0iMTAiIGlkPSJuYW1lZHZpZXczMTE2MSIgaW5rc2NhcGU6Y3VycmVudC1sYXllcj0ic3ZnMzExNTkiIGlua3NjYXBlOmN4PSI0Mi42NjgxMTIiIGlua3NjYXBlOmN5PSIzMi4yMTA1ODQiIGlua3NjYXBlOnBhZ2VvcGFjaXR5PSIwIiBpbmtzY2FwZTpwYWdlc2hhZG93PSIyIiBpbmtzY2FwZTp3aW5kb3ctaGVpZ2h0PSIxMDE3IiBpbmtzY2FwZTp3aW5kb3ctbWF4aW1pemVkPSIxIiBpbmtzY2FwZTp3aW5kb3ctd2lkdGg9IjE5MjAiIGlua3NjYXBlOndpbmRvdy14PSItOCIgaW5rc2NhcGU6d2luZG93LXk9Ii04IiBpbmtzY2FwZTp6b29tPSIxMy40NTYwMTkiIG9iamVjdHRvbGVyYW5jZT0iMTAiIHBhZ2Vjb2xvcj0iI2ZmZmZmZiIgc2hvd2dyaWQ9ImZhbHNlIj4mI3hhOwk8L3NvZGlwb2RpOm5hbWVkdmlldz4mI3hhOzxnIGlkPSJnMzExNTciPiYjeGE7CTx0aXRsZSBpZD0idGl0bGUzMTE0MiI+UGFnZS0xPC90aXRsZT4mI3hhOwk8ZyBpZD0iZ3JvdXAzODk0LTEiPiYjeGE7CQk8dGl0bGUgaWQ9InRpdGxlMzExNDQiPk1vbml0b3IgKENsZWFuKTwvdGl0bGU+JiN4YTsJCTxnIGlkPSJzaGFwZTM4OTUtMiI+JiN4YTsJCQk8dGl0bGUgaWQ9InRpdGxlMzExNDYiPlNoZWV0LjM4OTU8L3RpdGxlPiYjeGE7CQkJPHBhdGggaWQ9InBhdGgzMTE0OCIgaW5rc2NhcGU6Y29ubmVjdG9yLWN1cnZhdHVyZT0iMCIgc3R5bGU9ImZpbGw6IzNGNTc2NTsiIGQ9Ik0wLDQ4LjMyaDY0VjBIMFY0OC4zMnogTTMuODYsNC4yMWg1Ni4zNXYzOS45NyAgICAgSDMuODZWNC4yMXoiLz4mI3hhOwkJPC9nPiYjeGE7CQk8ZyBpZD0ic2hhcGUzODk2LTQiIHRyYW5zZm9ybT0idHJhbnNsYXRlKDI5LjE5NCwtNy44NjY3MikiPiYjeGE7CQkJPHRpdGxlIGlkPSJ0aXRsZTMxMTUxIj5TaGVldC4zODk2PC90aXRsZT4mI3hhOwkJCTxwYXRoIGlkPSJwYXRoMzExNTMiIGlua3NjYXBlOmNvbm5lY3Rvci1jdXJ2YXR1cmU9IjAiIHN0eWxlPSJmaWxsOiMzRjU3NjU7IiBkPSJNMCw0My44M3Y0LjQ5aDQuNDl2LTQuNDlIMHoiLz4mI3hhOwkJPC9nPiYjeGE7CTwvZz4mI3hhOzwvZz4mI3hhOzwvc3ZnPg==;" vertex="1" parent="1">
          <mxGeometry x="1168.3600000000001" y="361" width="29.33" height="22" as="geometry" />
        </mxCell>
        <mxCell id="_9aK7tR2FCW0y13HPatD-104" value="Second-On-prem-vm" style="text;html=1;align=center;verticalAlign=middle;resizable=0;points=[];autosize=1;strokeColor=none;fillColor=none;" vertex="1" parent="1">
          <mxGeometry x="1104.3100000000002" y="464" width="122" height="18" as="geometry" />
        </mxCell>
        <mxCell id="_9aK7tR2FCW0y13HPatD-105" value="Route Service" style="text;html=1;align=center;verticalAlign=middle;resizable=0;points=[];autosize=1;strokeColor=none;fillColor=none;" vertex="1" parent="1">
          <mxGeometry x="1272.5300000000002" y="198" width="85" height="18" as="geometry" />
        </mxCell>
        <mxCell id="_9aK7tR2FCW0y13HPatD-106" value="Route Service" style="text;html=1;align=center;verticalAlign=middle;resizable=0;points=[];autosize=1;strokeColor=none;fillColor=none;" vertex="1" parent="1">
          <mxGeometry x="1684.0000000000002" y="197" width="85" height="18" as="geometry" />
        </mxCell>
        <mxCell id="_9aK7tR2FCW0y13HPatD-108" value="" style="shape=image;verticalLabelPosition=bottom;labelBackgroundColor=#ffffff;verticalAlign=top;aspect=fixed;imageAspect=0;image=data:image/svg+xml,PHN2ZyB4bWxuczpjYz0iaHR0cDovL2NyZWF0aXZlY29tbW9ucy5vcmcvbnMjIiB4bWxuczpkYz0iaHR0cDovL3B1cmwub3JnL2RjL2VsZW1lbnRzLzEuMS8iIHhtbG5zOmlua3NjYXBlPSJodHRwOi8vd3d3Lmlua3NjYXBlLm9yZy9uYW1lc3BhY2VzL2lua3NjYXBlIiB4bWxuczpyZGY9Imh0dHA6Ly93d3cudzMub3JnLzE5OTkvMDIvMjItcmRmLXN5bnRheC1ucyMiIHhtbG5zOnNvZGlwb2RpPSJodHRwOi8vc29kaXBvZGkuc291cmNlZm9yZ2UubmV0L0RURC9zb2RpcG9kaS0wLmR0ZCIgeG1sbnM6c3ZnPSJodHRwOi8vd3d3LnczLm9yZy8yMDAwL3N2ZyIgeG1sbnM9Imh0dHA6Ly93d3cudzMub3JnLzIwMDAvc3ZnIiB4bWxuczp4bGluaz0iaHR0cDovL3d3dy53My5vcmcvMTk5OS94bGluayIgdmVyc2lvbj0iMS4xIiBpZD0ic3ZnMTM5Mzg4IiBpbmtzY2FwZTp2ZXJzaW9uPSIwLjkyLjMgKDI0MDU1NDYsIDIwMTgtMDMtMTEpIiBzb2RpcG9kaTpkb2NuYW1lPSJhenVyZV92bS5zdmciIHg9IjBweCIgeT0iMHB4IiB2aWV3Qm94PSIwIDAgNDIuMjIgMzkuMyIgc3R5bGU9ImVuYWJsZS1iYWNrZ3JvdW5kOm5ldyAwIDAgNDIuMjIgMzkuMzsiIHhtbDpzcGFjZT0icHJlc2VydmUiPiYjeGE7PHNvZGlwb2RpOm5hbWVkdmlldyBib3JkZXJjb2xvcj0iIzY2NjY2NiIgYm9yZGVyb3BhY2l0eT0iMSIgZml0LW1hcmdpbi1ib3R0b209IjAiIGZpdC1tYXJnaW4tbGVmdD0iMCIgZml0LW1hcmdpbi1yaWdodD0iMCIgZml0LW1hcmdpbi10b3A9IjAiIGdyaWR0b2xlcmFuY2U9IjEwIiBndWlkZXRvbGVyYW5jZT0iMTAiIGlkPSJuYW1lZHZpZXcxMzkzOTAiIGlua3NjYXBlOmN1cnJlbnQtbGF5ZXI9InN2ZzEzOTM4OCIgaW5rc2NhcGU6Y3g9IjI4LjE0NDg0NyIgaW5rc2NhcGU6Y3k9IjI2LjIwMjY0OCIgaW5rc2NhcGU6cGFnZW9wYWNpdHk9IjAiIGlua3NjYXBlOnBhZ2VzaGFkb3c9IjIiIGlua3NjYXBlOndpbmRvdy1oZWlnaHQ9IjEwMTciIGlua3NjYXBlOndpbmRvdy1tYXhpbWl6ZWQ9IjEiIGlua3NjYXBlOndpbmRvdy13aWR0aD0iMTkyMCIgaW5rc2NhcGU6d2luZG93LXg9Ii04IiBpbmtzY2FwZTp3aW5kb3cteT0iLTgiIGlua3NjYXBlOnpvb209IjE2LjU0NzQ4IiBvYmplY3R0b2xlcmFuY2U9IjEwIiBwYWdlY29sb3I9IiNmZmZmZmYiIHNob3dncmlkPSJmYWxzZSI+JiN4YTsJPC9zb2RpcG9kaTpuYW1lZHZpZXc+JiN4YTs8ZyBpZD0iZzEzOTM4NiIgdHJhbnNmb3JtPSJ0cmFuc2xhdGUoMCwtMC4wMDE3OCkiPiYjeGE7CTx0aXRsZSBpZD0idGl0bGUxMzkzNTEiPlBhZ2UtMTwvdGl0bGU+JiN4YTsJPGcgaWQ9Imdyb3VwOTY2NC0xIj4mI3hhOwkJPHRpdGxlIGlkPSJ0aXRsZTEzOTM1MyI+QXp1cmUgVk08L3RpdGxlPiYjeGE7CQk8ZyBpZD0ic2hhcGU5NjY1LTIiIHRyYW5zZm9ybT0idHJhbnNsYXRlKDIuOTU1MjEsLTEwLjMwOTQpIj4mI3hhOwkJCTx0aXRsZSBpZD0idGl0bGUxMzkzNTUiPlNoZWV0Ljk2NjU8L3RpdGxlPiYjeGE7CQkJPHBhdGggaWQ9InBhdGgxMzkzNTciIGlua3NjYXBlOmNvbm5lY3Rvci1jdXJ2YXR1cmU9IjAiIHN0eWxlPSJmaWxsOiMwMEJCRjE7IiBkPSJNMzcuMzMsMTIuOTdWMzkuM0gwVjEyLjk3bDM3LjM5LTAuMDggICAgIEwzNy4zMywxMi45N3oiLz4mI3hhOwkJPC9nPiYjeGE7CQk8ZyBpZD0ic2hhcGU5NjY2LTQiIHRyYW5zZm9ybT0idHJhbnNsYXRlKDcuMTc2OTMpIj4mI3hhOwkJCTx0aXRsZSBpZD0idGl0bGUxMzkzNjAiPlNoZWV0Ljk2NjY8L3RpdGxlPiYjeGE7CQkJPHBhdGggaWQ9InBhdGgxMzkzNjIiIGlua3NjYXBlOmNvbm5lY3Rvci1jdXJ2YXR1cmU9IjAiIHN0eWxlPSJmaWxsOiM5MTkxOTE7IiBkPSJNMjAuMjYsMzEuMjdjLTEuMDUsMC0xLjA1LDAtMS4wNSwwICAgICBjLTkuOTcsMC05Ljk3LDAtOS45NywwYy0wLjU2LDAtMC41NiwwLTAuNTYsMGMxLjM3LDQuODMtMC41LDUuNTQtOC42OCw1LjU0YzAsMi40OSwwLDIuNDksMCwyLjQ5YzEwLjQ4LDAsMTAuNDgsMCwxMC40OCwwICAgICBjNy41OSwwLDcuNTksMCw3LjU5LDBjOS43OSwwLDkuNzksMCw5Ljc5LDBjMC0yLjQ5LDAtMi40OSwwLTIuNDlDMTkuNzEsMzYuODEsMTguODksMzYuMSwyMC4yNiwzMS4yN3oiLz4mI3hhOwkJPC9nPiYjeGE7CQk8ZyBpZD0ic2hhcGU5NjY3LTYiIHRyYW5zZm9ybT0idHJhbnNsYXRlKDAsLTguMDI4MjIpIj4mI3hhOwkJCTx0aXRsZSBpZD0idGl0bGUxMzkzNjUiPlNoZWV0Ljk2Njc8L3RpdGxlPiYjeGE7CQkJPHBhdGggaWQ9InBhdGgxMzkzNjciIGlua3NjYXBlOmNvbm5lY3Rvci1jdXJ2YXR1cmU9IjAiIHN0eWxlPSJmaWxsOiNDNUM1QzU7IiBkPSJNMzkuNjMsOC4wM2MtMzcuMjYsMC0zNy4yNiwwLTM3LjI2LDAgICAgIEMxLjA2LDguMDMsMCw5LjE5LDAsMTAuNTFjMCwyNi40MSwwLDI2LjQxLDAsMjYuNDFjMCwxLjMyLDEuMDYsMi4zOCwyLjM3LDIuMzhjMzcuMjYsMCwzNy4yNiwwLDM3LjI2LDAgICAgIGMxLjI5LDAsMi41OS0xLjA2LDIuNTktMi4zOGMwLTI2LjQxLDAtMjYuNDEsMC0yNi40MUM0Mi4yMiw5LjE5LDQwLjkyLDguMDMsMzkuNjMsOC4wM3ogTTM5LDExLjMzYzAsMjQuNjksMCwyNC42OSwwLDI0LjY5ICAgICBjLTM1Ljc1LDAtMzUuNzUsMC0zNS43NSwwYzAtMjQuNjksMC0yNC42OSwwLTI0LjY5YzM1LjgzLTAuMDgsMzUuODMtMC4wOCwzNS44My0wLjA4TDM5LDExLjMzeiIvPiYjeGE7CQk8L2c+JiN4YTsJCTxnIGlkPSJzaGFwZTk2NjgtOCIgdHJhbnNmb3JtPSJ0cmFuc2xhdGUoMTMuNTA5NSwtMjQuMDg0NykiPiYjeGE7CQkJPHRpdGxlIGlkPSJ0aXRsZTEzOTM3MCI+U2hlZXQuOTY2ODwvdGl0bGU+JiN4YTsJCQk8cGF0aCBpZD0icGF0aDEzOTM3MiIgaW5rc2NhcGU6Y29ubmVjdG9yLWN1cnZhdHVyZT0iMCIgc3R5bGU9ImZpbGw6I0U2RjhGRTsiIGQ9Ik03LjYsMzAuNDJjLTAuMDgsMC0wLjA4LDAtMC4xNiwwICAgICBjLTcuMzMsNC4yNS03LjMzLDQuMjUtNy4zMyw0LjI1QzAsMzQuNjcsMCwzNC43NSwwLDM0LjgzczAsMC4xNiwwLjExLDAuMjRjNy40MSw0LjIzLDcuNDEsNC4yMyw3LjQxLDQuMjNINy42ICAgICBjMC4xLDAsMC4xLDAsMC4xOCwwYzcuMzQtNC4yMyw3LjM0LTQuMjMsNy4zNC00LjIzYzAuMDgsMCwwLjA4LTAuMDgsMC4wOC0wLjE2YzAtMC4wOCwwLTAuMTYtMC4wOC0wLjI0ICAgICBDNy43LDMwLjQyLDcuNywzMC40Miw3LjcsMzAuNDJINy42eiIvPiYjeGE7CQk8L2c+JiN4YTsJCTxnIGlkPSJzaGFwZTk2NjktMTAiIHRyYW5zZm9ybT0idHJhbnNsYXRlKDEyLjI0MywtMTMuNTIxMikiPiYjeGE7CQkJPHRpdGxlIGlkPSJ0aXRsZTEzOTM3NSI+U2hlZXQuOTY2OTwvdGl0bGU+JiN4YTsJCQk8cGF0aCBpZD0icGF0aDEzOTM3NyIgaW5rc2NhcGU6Y29ubmVjdG9yLWN1cnZhdHVyZT0iMCIgc3R5bGU9ImZpbGw6I0NDRjFGQzsiIGQ9Ik0wLjI2LDI1Ljc3Yy0wLjA4LDAtMC4wOCwwLTAuMTUsMCAgICAgQzAsMjUuNzcsMCwyNS44OCwwLDI1Ljk2YzAsOC43NCwwLDguNzQsMCw4Ljc0YzAsMC4wOCwwLDAuMTYsMC4xMSwwLjI0YzcuNTksNC4yOCw3LjU5LDQuMjgsNy41OSw0LjI4ICAgICBjMCwwLjA4LDAuMDgsMC4wOCwwLjA4LDAuMDhjMC4wOCwwLDAuMDgsMCwwLjE2LTAuMDhjMCwwLDAuMDgtMC4wOCwwLjA4LTAuMTZjMC04Ljc0LDAtOC43NCwwLTguNzRjMC0wLjA4LTAuMDgtMC4xNi0wLjA4LTAuMTYgICAgIGMtNy42LTQuMzktNy42LTQuMzktNy42LTQuMzlTMC4yNiwyNS43NywwLjI2LDI1Ljc3eiIvPiYjeGE7CQk8L2c+JiN4YTsJCTxnIGlkPSJzaGFwZTk2NzAtMTIiIHRyYW5zZm9ybT0idHJhbnNsYXRlKDIxLjk1MywtMTMuNTIxMikiPiYjeGE7CQkJPHRpdGxlIGlkPSJ0aXRsZTEzOTM4MCI+U2hlZXQuOTY3MDwvdGl0bGU+JiN4YTsJCQk8cGF0aCBpZD0icGF0aDEzOTM4MiIgaW5rc2NhcGU6Y29ubmVjdG9yLWN1cnZhdHVyZT0iMCIgc3R5bGU9ImZpbGw6IzgwRERGODsiIGQ9Ik03LjM5LDI1Ljc3YzAsMC0wLjA4LDAtMC4wOCwwLjExICAgICBjLTcuMTUsNC4yOC03LjE1LDQuMjgtNy4xNSw0LjI4QzAuMDgsMzAuMjQsMCwzMC4zMiwwLDMwLjRjMCw4LjY2LDAsOC42NiwwLDguNjZjMCwwLjA4LDAuMDgsMC4xNiwwLjE2LDAuMTYgICAgIGMwLDAuMDgsMCwwLjA4LDAuMDgsMC4wOGMwLDAsMC4wOCwwLDAuMDgtMC4wOGM3LjItNC4yOCw3LjItNC4yOCw3LjItNC4yOEM3LjYsMzQuODYsNy42LDM0Ljc4LDcuNiwzNC43YzAtOC42NiwwLTguNjYsMC04LjY2ICAgICBjMC0wLjA4LDAtMC4xNi0wLjA4LTAuMTZDNy40NywyNS43Nyw3LjQ3LDI1Ljc3LDcuMzksMjUuNzd6Ii8+JiN4YTsJCTwvZz4mI3hhOwk8L2c+JiN4YTs8L2c+JiN4YTs8L3N2Zz4=;fillColor=none;" vertex="1" parent="1">
          <mxGeometry x="1143.92" y="66" width="30.15" height="28" as="geometry" />
        </mxCell>
        <mxCell id="_9aK7tR2FCW0y13HPatD-110" value="Vnet-D" style="text;html=1;align=center;verticalAlign=middle;resizable=0;points=[];autosize=1;strokeColor=none;fillColor=none;" vertex="1" parent="1">
          <mxGeometry x="1216" y="96" width="47" height="18" as="geometry" />
        </mxCell>
        <mxCell id="_9aK7tR2FCW0y13HPatD-113" style="edgeStyle=orthogonalEdgeStyle;shape=link;rounded=0;orthogonalLoop=1;jettySize=auto;html=1;" edge="1" parent="1" source="_9aK7tR2FCW0y13HPatD-111" target="_9aK7tR2FCW0y13HPatD-81">
          <mxGeometry relative="1" as="geometry">
            <Array as="points">
              <mxPoint x="1160" y="134" />
              <mxPoint x="1201" y="134" />
            </Array>
          </mxGeometry>
        </mxCell>
        <mxCell id="_9aK7tR2FCW0y13HPatD-111" value="VM-D" style="text;html=1;align=center;verticalAlign=middle;resizable=0;points=[];autosize=1;strokeColor=none;fillColor=none;" vertex="1" parent="1">
          <mxGeometry x="1139.8799999999999" y="96" width="41" height="18" as="geometry" />
        </mxCell>
        <mxCell id="_9aK7tR2FCW0y13HPatD-112" value="Location - D" style="text;html=1;align=center;verticalAlign=middle;resizable=0;points=[];autosize=1;strokeColor=none;fillColor=none;" vertex="1" parent="1">
          <mxGeometry x="1127.8099999999997" y="36" width="75" height="18" as="geometry" />
        </mxCell>
      </root>
    </mxGraphModel>
  </diagram>
</mxfile>
